<ttFont>
    <TTGlyph name="A" xMin="16" yMin="0" xMax="542" yMax="639">
      <contour>
        <pt x="488" y="0" on="1"/>
        <pt x="474" y="54" on="1"/>
        <pt x="426" y="192" on="1"/>
        <pt x="274" y="194" on="1"/>
        <pt x="137" y="192" on="1"/>
        <pt x="85" y="56" on="1"/>
        <pt x="70" y="0" on="1"/>
        <pt x="16" y="0" on="1"/>
        <pt x="260" y="639" on="1"/>
        <pt x="319" y="639" on="1"/>
        <pt x="542" y="0" on="1"/>
      </contour>
      <contour>
        <pt x="291" y="579" on="1"/>
        <pt x="285" y="579" on="1"/>
        <pt x="155" y="238" on="1"/>
        <pt x="280" y="237" on="1"/>
        <pt x="410" y="238" on="1"/>
      </contour>
    </TTGlyph>
    <TTGlyph name="AE" xMin="-15" yMin="0" xMax="780" yMax="639">
      <contour>
        <pt x="774" y="0" on="1"/>
        <pt x="447" y="0" on="1"/>
        <pt x="442" y="54" on="1"/>
        <pt x="407" y="274" on="1"/>
        <pt x="157" y="224" on="1"/>
        <pt x="64" y="56" on="1"/>
        <pt x="41" y="0" on="1"/>
        <pt x="-15" y="0" on="1"/>
        <pt x="337" y="639" on="1"/>
        <pt x="676" y="639" on="1"/>
        <pt x="680" y="633" on="1"/>
        <pt x="674" y="592" on="1"/>
        <pt x="510" y="595" on="1"/>
        <pt x="408" y="595" on="1"/>
        <pt x="450" y="326" on="1"/>
        <pt x="675" y="368" on="1"/>
        <pt x="680" y="364" on="1"/>
        <pt x="680" y="325" on="1"/>
        <pt x="457" y="284" on="1"/>
        <pt x="494" y="44" on="1"/>
        <pt x="612" y="44" on="1"/>
        <pt x="776" y="47" on="1"/>
        <pt x="780" y="41" on="1"/>
      </contour>
      <contour>
        <pt x="358" y="579" on="1"/>
        <pt x="354" y="579" on="1"/>
        <pt x="185" y="275" on="1"/>
        <pt x="400" y="316" on="1"/>
      </contour>
    </TTGlyph>
    <TTGlyph name="AEacute" xMin="-15" yMin="0" xMax="780" yMax="851">
      <component glyphName="AE" x="0" y="0" flags="0x1000"/>
      <component glyphName="acute.cap" x="329" y="184" flags="0x1000"/>
    </TTGlyph>
    <TTGlyph name="Aacute" xMin="16" yMin="0" xMax="542" yMax="851">
      <component glyphName="A" x="0" y="0" flags="0x1000"/>
      <component glyphName="acute.cap" x="118" y="184" flags="0x1000"/>
    </TTGlyph>
    <TTGlyph name="Abreve" xMin="16" yMin="0" xMax="542" yMax="829">
      <component glyphName="A" x="0" y="0" flags="0x1000"/>
      <component glyphName="breve.cap" x="89" y="184" flags="0x1000"/>
    </TTGlyph>
    <TTGlyph name="Abreveacute" xMin="16" yMin="0" xMax="542" yMax="924">
      <component glyphName="A" x="0" y="0" flags="0x1000"/>
      <component glyphName="breveacute" x="89" y="184" flags="0x1000"/>
    </TTGlyph>
    <TTGlyph name="Abrevedotbelow" xMin="16" yMin="-146" xMax="542" yMax="828">
      <contour>
        <pt x="195" y="726" on="0"/>
        <pt x="169" y="808" on="1"/>
        <pt x="187" y="828" on="1"/>
        <pt x="196" y="828" on="1"/>
        <pt x="215" y="765" on="0"/>
        <pt x="284" y="765" on="1"/>
        <pt x="352" y="765" on="0"/>
        <pt x="372" y="828" on="1"/>
        <pt x="380" y="828" on="1"/>
        <pt x="398" y="808" on="1"/>
        <pt x="370" y="726" on="0"/>
        <pt x="282" y="726" on="1"/>
      </contour>
      <contour>
        <pt x="487" y="0" on="1"/>
        <pt x="474" y="54" on="1"/>
        <pt x="426" y="192" on="1"/>
        <pt x="275" y="194" on="1"/>
        <pt x="137" y="192" on="1"/>
        <pt x="85" y="56" on="1"/>
        <pt x="70" y="0" on="1"/>
        <pt x="16" y="0" on="1"/>
        <pt x="260" y="639" on="1"/>
        <pt x="319" y="639" on="1"/>
        <pt x="542" y="0" on="1"/>
      </contour>
      <contour>
        <pt x="291" y="579" on="1"/>
        <pt x="285" y="579" on="1"/>
        <pt x="155" y="238" on="1"/>
        <pt x="280" y="237" on="1"/>
        <pt x="410" y="238" on="1"/>
      </contour>
      <contour>
        <pt x="314" y="-78" on="0"/>
        <pt x="314" y="-112" on="1"/>
        <pt x="314" y="-128" on="0"/>
        <pt x="296" y="-146" on="0"/>
        <pt x="280" y="-146" on="1"/>
        <pt x="247" y="-146" on="0"/>
        <pt x="247" y="-113" on="1"/>
        <pt x="247" y="-97" on="0"/>
        <pt x="265" y="-78" on="0"/>
        <pt x="281" y="-78" on="1"/>
      </contour>
    </TTGlyph>
    <TTGlyph name="Abrevegrave" xMin="16" yMin="0" xMax="542" yMax="924">
      <component glyphName="A" x="0" y="0" flags="0x1000"/>
      <component glyphName="brevegrave" x="89" y="184" flags="0x1000"/>
    </TTGlyph>
    <TTGlyph name="Abrevehookabove" xMin="16" yMin="0" xMax="542" yMax="967">
      <contour>
        <pt x="252" y="934" on="0"/>
        <pt x="224" y="911" on="1"/>
        <pt x="212" y="931" on="1"/>
        <pt x="248" y="967" on="0"/>
        <pt x="287" y="967" on="1"/>
        <pt x="310" y="967" on="0"/>
        <pt x="341" y="939" on="0"/>
        <pt x="341" y="919" on="1"/>
        <pt x="341" y="887" on="0"/>
        <pt x="291" y="849" on="1"/>
        <pt x="309" y="817" on="1"/>
        <pt x="283" y="804" on="1"/>
        <pt x="256" y="852" on="1"/>
        <pt x="306" y="888" on="0"/>
        <pt x="306" y="914" on="1"/>
        <pt x="306" y="934" on="0"/>
        <pt x="280" y="934" on="1"/>
      </contour>
      <contour>
        <pt x="195" y="707" on="0"/>
        <pt x="170" y="789" on="1"/>
        <pt x="187" y="809" on="1"/>
        <pt x="196" y="809" on="1"/>
        <pt x="215" y="746" on="0"/>
        <pt x="284" y="746" on="1"/>
        <pt x="352" y="746" on="0"/>
        <pt x="372" y="809" on="1"/>
        <pt x="381" y="809" on="1"/>
        <pt x="399" y="789" on="1"/>
        <pt x="386" y="749" on="0"/>
        <pt x="325" y="707" on="0"/>
        <pt x="283" y="707" on="1"/>
      </contour>
      <contour>
        <pt x="487" y="0" on="1"/>
        <pt x="474" y="54" on="1"/>
        <pt x="426" y="192" on="1"/>
        <pt x="275" y="194" on="1"/>
        <pt x="137" y="192" on="1"/>
        <pt x="85" y="56" on="1"/>
        <pt x="70" y="0" on="1"/>
        <pt x="16" y="0" on="1"/>
        <pt x="260" y="639" on="1"/>
        <pt x="319" y="639" on="1"/>
        <pt x="542" y="0" on="1"/>
      </contour>
      <contour>
        <pt x="291" y="579" on="1"/>
        <pt x="285" y="579" on="1"/>
        <pt x="155" y="238" on="1"/>
        <pt x="280" y="237" on="1"/>
        <pt x="410" y="238" on="1"/>
      </contour>
    </TTGlyph>
    <TTGlyph name="Abrevetilde" xMin="16" yMin="0" xMax="542" yMax="939">
      <contour>
        <pt x="146" y="866" on="1"/>
        <pt x="146" y="872" on="1"/>
        <pt x="200" y="930" on="1"/>
        <pt x="208" y="932" on="1"/>
        <pt x="227" y="930" on="0"/>
        <pt x="287" y="912" on="1"/>
        <pt x="343" y="896" on="0"/>
        <pt x="354" y="896" on="1"/>
        <pt x="365" y="896" on="0"/>
        <pt x="392" y="925" on="1"/>
        <pt x="406" y="939" on="1"/>
        <pt x="411" y="939" on="1"/>
        <pt x="428" y="921" on="1"/>
        <pt x="428" y="915" on="1"/>
        <pt x="374" y="857" on="1"/>
        <pt x="366" y="854" on="1"/>
        <pt x="354" y="855" on="0"/>
        <pt x="292" y="873" on="1"/>
        <pt x="232" y="891" on="0"/>
        <pt x="220" y="891" on="1"/>
        <pt x="213" y="891" on="0"/>
        <pt x="195" y="875" on="0"/>
        <pt x="184" y="864" on="1"/>
        <pt x="180" y="859" on="0"/>
        <pt x="169" y="848" on="1"/>
        <pt x="163" y="848" on="1"/>
      </contour>
      <contour>
        <pt x="352" y="746" on="0"/>
        <pt x="371" y="808" on="1"/>
        <pt x="380" y="808" on="1"/>
        <pt x="398" y="789" on="1"/>
        <pt x="385" y="749" on="0"/>
        <pt x="325" y="707" on="0"/>
        <pt x="283" y="707" on="1"/>
        <pt x="242" y="707" on="0"/>
        <pt x="184" y="749" on="0"/>
        <pt x="172" y="789" on="1"/>
        <pt x="189" y="808" on="1"/>
        <pt x="198" y="808" on="1"/>
        <pt x="217" y="746" on="0"/>
        <pt x="285" y="746" on="1"/>
      </contour>
      <contour>
        <pt x="487" y="0" on="1"/>
        <pt x="474" y="54" on="1"/>
        <pt x="426" y="192" on="1"/>
        <pt x="275" y="194" on="1"/>
        <pt x="137" y="192" on="1"/>
        <pt x="85" y="56" on="1"/>
        <pt x="70" y="0" on="1"/>
        <pt x="16" y="0" on="1"/>
        <pt x="260" y="639" on="1"/>
        <pt x="319" y="639" on="1"/>
        <pt x="542" y="0" on="1"/>
      </contour>
      <contour>
        <pt x="291" y="579" on="1"/>
        <pt x="285" y="579" on="1"/>
        <pt x="155" y="238" on="1"/>
        <pt x="280" y="237" on="1"/>
        <pt x="410" y="238" on="1"/>
      </contour>
    </TTGlyph>
    <TTGlyph name="Acaron" xMin="16" yMin="0" xMax="542" yMax="835">
      <component glyphName="A" x="0" y="0" flags="0x1000"/>
      <component glyphName="caron.cap" x="89" y="184" flags="0x1000"/>
    </TTGlyph>
    <TTGlyph name="Acircumflex" xMin="16" yMin="0" xMax="542" yMax="844">
      <contour>
        <pt x="166" y="761" on="1"/>
        <pt x="209" y="790" on="0"/>
        <pt x="274" y="844" on="1"/>
        <pt x="293" y="844" on="1"/>
        <pt x="366" y="786" on="0"/>
        <pt x="402" y="761" on="1"/>
        <pt x="390" y="736" on="1"/>
        <pt x="383" y="736" on="1"/>
        <pt x="308" y="786" on="0"/>
        <pt x="284" y="804" on="1"/>
        <pt x="260" y="787" on="0"/>
        <pt x="185" y="736" on="1"/>
        <pt x="178" y="736" on="1"/>
      </contour>
      <contour>
        <pt x="487" y="0" on="1"/>
        <pt x="474" y="54" on="1"/>
        <pt x="426" y="192" on="1"/>
        <pt x="275" y="194" on="1"/>
        <pt x="137" y="192" on="1"/>
        <pt x="85" y="56" on="1"/>
        <pt x="70" y="0" on="1"/>
        <pt x="16" y="0" on="1"/>
        <pt x="260" y="639" on="1"/>
        <pt x="319" y="639" on="1"/>
        <pt x="542" y="0" on="1"/>
      </contour>
      <contour>
        <pt x="291" y="579" on="1"/>
        <pt x="285" y="579" on="1"/>
        <pt x="155" y="238" on="1"/>
        <pt x="280" y="237" on="1"/>
        <pt x="410" y="238" on="1"/>
      </contour>
    </TTGlyph>
    <TTGlyph name="Acircumflexacute" xMin="16" yMin="0" xMax="542" yMax="922">
      <component glyphName="A" x="0" y="0" flags="0x1000"/>
      <component glyphName="circumflexacute" x="89" y="184" flags="0x1000"/>
    </TTGlyph>
    <TTGlyph name="Acircumflexdotbelow" xMin="16" yMin="-146" xMax="542" yMax="843">
      <contour>
        <pt x="165" y="760" on="1"/>
        <pt x="208" y="789" on="0"/>
        <pt x="273" y="843" on="1"/>
        <pt x="292" y="843" on="1"/>
        <pt x="365" y="785" on="0"/>
        <pt x="401" y="760" on="1"/>
        <pt x="389" y="735" on="1"/>
        <pt x="382" y="735" on="1"/>
        <pt x="307" y="786" on="0"/>
        <pt x="283" y="803" on="1"/>
        <pt x="259" y="785" on="0"/>
        <pt x="184" y="735" on="1"/>
        <pt x="177" y="735" on="1"/>
      </contour>
      <contour>
        <pt x="487" y="0" on="1"/>
        <pt x="474" y="54" on="1"/>
        <pt x="426" y="192" on="1"/>
        <pt x="275" y="194" on="1"/>
        <pt x="137" y="192" on="1"/>
        <pt x="85" y="56" on="1"/>
        <pt x="70" y="0" on="1"/>
        <pt x="16" y="0" on="1"/>
        <pt x="260" y="639" on="1"/>
        <pt x="319" y="639" on="1"/>
        <pt x="542" y="0" on="1"/>
      </contour>
      <contour>
        <pt x="291" y="579" on="1"/>
        <pt x="285" y="579" on="1"/>
        <pt x="155" y="238" on="1"/>
        <pt x="280" y="237" on="1"/>
        <pt x="410" y="238" on="1"/>
      </contour>
      <contour>
        <pt x="314" y="-78" on="0"/>
        <pt x="314" y="-112" on="1"/>
        <pt x="314" y="-128" on="0"/>
        <pt x="296" y="-146" on="0"/>
        <pt x="280" y="-146" on="1"/>
        <pt x="247" y="-146" on="0"/>
        <pt x="247" y="-113" on="1"/>
        <pt x="247" y="-97" on="0"/>
        <pt x="265" y="-78" on="0"/>
        <pt x="281" y="-78" on="1"/>
      </contour>
    </TTGlyph>
    <TTGlyph name="Acircumflexgrave" xMin="16" yMin="0" xMax="542" yMax="922">
      <component glyphName="A" x="0" y="0" flags="0x1000"/>
      <component glyphName="circumflexgrave" x="89" y="184" flags="0x1000"/>
    </TTGlyph>
    <TTGlyph name="Acircumflexhookabove" xMin="16" yMin="0" xMax="542" yMax="955">
      <contour>
        <pt x="340" y="924" on="0"/>
        <pt x="315" y="902" on="1"/>
        <pt x="303" y="921" on="1"/>
        <pt x="339" y="955" on="0"/>
        <pt x="375" y="955" on="1"/>
        <pt x="397" y="955" on="0"/>
        <pt x="426" y="930" on="0"/>
        <pt x="426" y="910" on="1"/>
        <pt x="426" y="880" on="0"/>
        <pt x="379" y="843" on="1"/>
        <pt x="396" y="813" on="1"/>
        <pt x="371" y="800" on="1"/>
        <pt x="345" y="846" on="1"/>
        <pt x="393" y="880" on="0"/>
        <pt x="393" y="905" on="1"/>
        <pt x="393" y="924" on="0"/>
        <pt x="368" y="924" on="1"/>
      </contour>
      <contour>
        <pt x="166" y="741" on="1"/>
        <pt x="209" y="770" on="0"/>
        <pt x="274" y="824" on="1"/>
        <pt x="293" y="824" on="1"/>
        <pt x="366" y="766" on="0"/>
        <pt x="402" y="741" on="1"/>
        <pt x="390" y="716" on="1"/>
        <pt x="383" y="716" on="1"/>
        <pt x="308" y="767" on="0"/>
        <pt x="284" y="784" on="1"/>
        <pt x="260" y="766" on="0"/>
        <pt x="185" y="716" on="1"/>
        <pt x="178" y="716" on="1"/>
      </contour>
      <contour>
        <pt x="487" y="0" on="1"/>
        <pt x="474" y="54" on="1"/>
        <pt x="426" y="192" on="1"/>
        <pt x="275" y="194" on="1"/>
        <pt x="137" y="192" on="1"/>
        <pt x="85" y="56" on="1"/>
        <pt x="70" y="0" on="1"/>
        <pt x="16" y="0" on="1"/>
        <pt x="260" y="639" on="1"/>
        <pt x="319" y="639" on="1"/>
        <pt x="542" y="0" on="1"/>
      </contour>
      <contour>
        <pt x="291" y="579" on="1"/>
        <pt x="285" y="579" on="1"/>
        <pt x="155" y="238" on="1"/>
        <pt x="280" y="237" on="1"/>
        <pt x="410" y="238" on="1"/>
      </contour>
    </TTGlyph>
    <TTGlyph name="Acircumflextilde" xMin="16" yMin="0" xMax="542" yMax="939">
      <contour>
        <pt x="146" y="866" on="1"/>
        <pt x="146" y="872" on="1"/>
        <pt x="200" y="930" on="1"/>
        <pt x="208" y="932" on="1"/>
        <pt x="227" y="930" on="0"/>
        <pt x="287" y="912" on="1"/>
        <pt x="343" y="896" on="0"/>
        <pt x="354" y="896" on="1"/>
        <pt x="365" y="896" on="0"/>
        <pt x="392" y="925" on="1"/>
        <pt x="406" y="939" on="1"/>
        <pt x="411" y="939" on="1"/>
        <pt x="428" y="921" on="1"/>
        <pt x="428" y="915" on="1"/>
        <pt x="374" y="857" on="1"/>
        <pt x="366" y="854" on="1"/>
        <pt x="354" y="855" on="0"/>
        <pt x="292" y="873" on="1"/>
        <pt x="232" y="891" on="0"/>
        <pt x="220" y="891" on="1"/>
        <pt x="213" y="891" on="0"/>
        <pt x="195" y="875" on="0"/>
        <pt x="184" y="864" on="1"/>
        <pt x="180" y="859" on="0"/>
        <pt x="169" y="848" on="1"/>
        <pt x="163" y="848" on="1"/>
      </contour>
      <contour>
        <pt x="366" y="766" on="0"/>
        <pt x="402" y="741" on="1"/>
        <pt x="390" y="716" on="1"/>
        <pt x="383" y="716" on="1"/>
        <pt x="308" y="767" on="0"/>
        <pt x="284" y="784" on="1"/>
        <pt x="260" y="766" on="0"/>
        <pt x="185" y="716" on="1"/>
        <pt x="178" y="716" on="1"/>
        <pt x="166" y="741" on="1"/>
        <pt x="209" y="770" on="0"/>
        <pt x="274" y="824" on="1"/>
        <pt x="293" y="824" on="1"/>
      </contour>
      <contour>
        <pt x="487" y="0" on="1"/>
        <pt x="474" y="54" on="1"/>
        <pt x="426" y="192" on="1"/>
        <pt x="275" y="194" on="1"/>
        <pt x="137" y="192" on="1"/>
        <pt x="85" y="56" on="1"/>
        <pt x="70" y="0" on="1"/>
        <pt x="16" y="0" on="1"/>
        <pt x="260" y="639" on="1"/>
        <pt x="319" y="639" on="1"/>
        <pt x="542" y="0" on="1"/>
      </contour>
      <contour>
        <pt x="291" y="579" on="1"/>
        <pt x="285" y="579" on="1"/>
        <pt x="155" y="238" on="1"/>
        <pt x="280" y="237" on="1"/>
        <pt x="410" y="238" on="1"/>
      </contour>
    </TTGlyph>
    <TTGlyph name="Adieresis" xMin="16" yMin="0" xMax="542" yMax="818">
      <contour>
        <pt x="177" y="752" on="0"/>
        <pt x="177" y="784" on="1"/>
        <pt x="177" y="800" on="0"/>
        <pt x="195" y="818" on="0"/>
        <pt x="211" y="818" on="1"/>
        <pt x="243" y="818" on="0"/>
        <pt x="243" y="786" on="1"/>
        <pt x="243" y="770" on="0"/>
        <pt x="225" y="752" on="0"/>
        <pt x="209" y="752" on="1"/>
      </contour>
      <contour>
        <pt x="326" y="752" on="0"/>
        <pt x="326" y="784" on="1"/>
        <pt x="326" y="800" on="0"/>
        <pt x="344" y="818" on="0"/>
        <pt x="360" y="818" on="1"/>
        <pt x="392" y="818" on="0"/>
        <pt x="392" y="786" on="1"/>
        <pt x="392" y="770" on="0"/>
        <pt x="374" y="752" on="0"/>
        <pt x="358" y="752" on="1"/>
      </contour>
      <contour>
        <pt x="487" y="0" on="1"/>
        <pt x="474" y="54" on="1"/>
        <pt x="426" y="192" on="1"/>
        <pt x="275" y="194" on="1"/>
        <pt x="137" y="192" on="1"/>
        <pt x="85" y="56" on="1"/>
        <pt x="70" y="0" on="1"/>
        <pt x="16" y="0" on="1"/>
        <pt x="260" y="639" on="1"/>
        <pt x="319" y="639" on="1"/>
        <pt x="542" y="0" on="1"/>
      </contour>
      <contour>
        <pt x="291" y="579" on="1"/>
        <pt x="285" y="579" on="1"/>
        <pt x="155" y="238" on="1"/>
        <pt x="280" y="237" on="1"/>
        <pt x="410" y="238" on="1"/>
      </contour>
    </TTGlyph>
    <TTGlyph name="Adotbelow" xMin="16" yMin="-146" xMax="542" yMax="639">
      <contour>
        <pt x="487" y="0" on="1"/>
        <pt x="474" y="54" on="1"/>
        <pt x="426" y="192" on="1"/>
        <pt x="275" y="194" on="1"/>
        <pt x="137" y="192" on="1"/>
        <pt x="85" y="56" on="1"/>
        <pt x="70" y="0" on="1"/>
        <pt x="16" y="0" on="1"/>
        <pt x="260" y="639" on="1"/>
        <pt x="319" y="639" on="1"/>
        <pt x="542" y="0" on="1"/>
      </contour>
      <contour>
        <pt x="291" y="579" on="1"/>
        <pt x="285" y="579" on="1"/>
        <pt x="155" y="238" on="1"/>
        <pt x="280" y="237" on="1"/>
        <pt x="410" y="238" on="1"/>
      </contour>
      <contour>
        <pt x="314" y="-78" on="0"/>
        <pt x="314" y="-112" on="1"/>
        <pt x="314" y="-128" on="0"/>
        <pt x="296" y="-146" on="0"/>
        <pt x="280" y="-146" on="1"/>
        <pt x="247" y="-146" on="0"/>
        <pt x="247" y="-113" on="1"/>
        <pt x="247" y="-97" on="0"/>
        <pt x="265" y="-78" on="0"/>
        <pt x="281" y="-78" on="1"/>
      </contour>
    </TTGlyph>
    <TTGlyph name="Agrave" xMin="16" yMin="0" xMax="542" yMax="853">
      <contour>
        <pt x="268" y="770" on="0"/>
        <pt x="183" y="814" on="1"/>
        <pt x="181" y="821" on="1"/>
        <pt x="195" y="851" on="1"/>
        <pt x="202" y="853" on="1"/>
        <pt x="278" y="807" on="0"/>
        <pt x="387" y="754" on="1"/>
        <pt x="376" y="728" on="1"/>
        <pt x="368" y="725" on="1"/>
      </contour>
      <contour>
        <pt x="487" y="0" on="1"/>
        <pt x="474" y="54" on="1"/>
        <pt x="426" y="192" on="1"/>
        <pt x="275" y="194" on="1"/>
        <pt x="137" y="192" on="1"/>
        <pt x="85" y="56" on="1"/>
        <pt x="70" y="0" on="1"/>
        <pt x="16" y="0" on="1"/>
        <pt x="260" y="639" on="1"/>
        <pt x="319" y="639" on="1"/>
        <pt x="542" y="0" on="1"/>
      </contour>
      <contour>
        <pt x="291" y="579" on="1"/>
        <pt x="285" y="579" on="1"/>
        <pt x="155" y="238" on="1"/>
        <pt x="280" y="237" on="1"/>
        <pt x="410" y="238" on="1"/>
      </contour>
    </TTGlyph>
    <TTGlyph name="Ahookabove" xMin="16" yMin="0" xMax="542" yMax="879">
      <component glyphName="A" x="0" y="0" flags="0x1000"/>
      <component glyphName="hookabove" x="88" y="183" flags="0x1000"/>
    </TTGlyph>
    <TTGlyph name="Amacron" xMin="16" yMin="0" xMax="542" yMax="805">
      <component glyphName="A" x="0" y="0" flags="0x1000"/>
      <component glyphName="macron" x="89" y="184" flags="0x1000"/>
    </TTGlyph>
    <TTGlyph name="Aogonek" xMin="16" yMin="-197" xMax="606" yMax="639">
      <contour>
        <pt x="557" y="-197" on="0"/>
        <pt x="508" y="-197" on="1"/>
        <pt x="476" y="-197" on="0"/>
        <pt x="437" y="-158" on="0"/>
        <pt x="437" y="-126" on="1"/>
        <pt x="437" y="-105" on="0"/>
        <pt x="462" y="-50" on="0"/>
        <pt x="495" y="0" on="1"/>
        <pt x="487" y="0" on="1"/>
        <pt x="474" y="54" on="1"/>
        <pt x="426" y="192" on="1"/>
        <pt x="275" y="194" on="1"/>
        <pt x="137" y="192" on="1"/>
        <pt x="85" y="56" on="1"/>
        <pt x="70" y="0" on="1"/>
        <pt x="16" y="0" on="1"/>
        <pt x="260" y="639" on="1"/>
        <pt x="319" y="639" on="1"/>
        <pt x="542" y="0" on="1"/>
        <pt x="531" y="0" on="1"/>
        <pt x="474" y="-87" on="0"/>
        <pt x="474" y="-119" on="1"/>
        <pt x="474" y="-159" on="0"/>
        <pt x="514" y="-159" on="1"/>
        <pt x="554" y="-159" on="0"/>
        <pt x="591" y="-114" on="1"/>
        <pt x="595" y="-114" on="1"/>
        <pt x="606" y="-142" on="1"/>
      </contour>
      <contour>
        <pt x="291" y="579" on="1"/>
        <pt x="285" y="579" on="1"/>
        <pt x="155" y="238" on="1"/>
        <pt x="280" y="237" on="1"/>
        <pt x="410" y="238" on="1"/>
      </contour>
    </TTGlyph>
    <TTGlyph name="Aring" xMin="16" yMin="0" xMax="542" yMax="867">
      <component glyphName="A" x="0" y="0" flags="0x1000"/>
      <component glyphName="ring" x="89" y="184" flags="0x1000"/>
    </TTGlyph>
    <TTGlyph name="Aringacute" xMin="16" yMin="0" xMax="542" yMax="876">
      <contour>
        <pt x="205" y="810" on="1"/>
        <pt x="311" y="840" on="0"/>
        <pt x="404" y="876" on="1"/>
        <pt x="411" y="873" on="1"/>
        <pt x="419" y="841" on="1"/>
        <pt x="416" y="834" on="1"/>
        <pt x="351" y="813" on="0"/>
        <pt x="218" y="777" on="1"/>
        <pt x="212" y="782" on="1"/>
      </contour>
      <contour>
        <pt x="487" y="0" on="1"/>
        <pt x="474" y="54" on="1"/>
        <pt x="426" y="191" on="1"/>
        <pt x="275" y="193" on="1"/>
        <pt x="137" y="191" on="1"/>
        <pt x="85" y="56" on="1"/>
        <pt x="70" y="0" on="1"/>
        <pt x="16" y="0" on="1"/>
        <pt x="254" y="615" on="1"/>
        <pt x="212" y="635" on="0"/>
        <pt x="212" y="685" on="1"/>
        <pt x="212" y="719" on="0"/>
        <pt x="254" y="761" on="0"/>
        <pt x="290" y="761" on="1"/>
        <pt x="326" y="761" on="0"/>
        <pt x="367" y="718" on="0"/>
        <pt x="367" y="686" on="1"/>
        <pt x="367" y="635" on="0"/>
        <pt x="324" y="616" on="1"/>
        <pt x="542" y="0" on="1"/>
      </contour>
      <contour>
        <pt x="267" y="731" on="0"/>
        <pt x="242" y="707" on="0"/>
        <pt x="242" y="686" on="1"/>
        <pt x="242" y="663" on="0"/>
        <pt x="268" y="638" on="0"/>
        <pt x="289" y="638" on="1"/>
        <pt x="310" y="638" on="0"/>
        <pt x="338" y="662" on="0"/>
        <pt x="338" y="684" on="1"/>
        <pt x="338" y="705" on="0"/>
        <pt x="313" y="731" on="0"/>
        <pt x="289" y="731" on="1"/>
      </contour>
      <contour>
        <pt x="291" y="576" on="1"/>
        <pt x="285" y="576" on="1"/>
        <pt x="155" y="237" on="1"/>
        <pt x="280" y="236" on="1"/>
        <pt x="410" y="237" on="1"/>
      </contour>
    </TTGlyph>
    <TTGlyph name="Atilde" xMin="16" yMin="0" xMax="542" yMax="834">
      <component glyphName="A" x="0" y="0" flags="0x1000"/>
      <component glyphName="tilde" x="89" y="184" flags="0x1000"/>
    </TTGlyph>
    <TTGlyph name="B" xMin="101" yMin="-3" xMax="474" yMax="640">
      <contour>
        <pt x="474" y="311" on="0"/>
        <pt x="474" y="177" on="1"/>
        <pt x="474" y="90" on="0"/>
        <pt x="348" y="-3" on="0"/>
        <pt x="228" y="-3" on="1"/>
        <pt x="158" y="-3" on="0"/>
        <pt x="101" y="0" on="1"/>
        <pt x="104" y="194" on="1"/>
        <pt x="101" y="639" on="1"/>
        <pt x="253" y="640" on="1"/>
        <pt x="337" y="640" on="0"/>
        <pt x="429" y="562" on="0"/>
        <pt x="429" y="489" on="1"/>
        <pt x="429" y="373" on="0"/>
        <pt x="333" y="334" on="1"/>
      </contour>
      <contour>
        <pt x="376" y="596" on="0"/>
        <pt x="248" y="596" on="1"/>
        <pt x="154" y="596" on="1"/>
        <pt x="152" y="352" on="1"/>
        <pt x="272" y="350" on="1"/>
        <pt x="376" y="372" on="0"/>
        <pt x="376" y="484" on="1"/>
      </contour>
      <contour>
        <pt x="323" y="41" on="0"/>
        <pt x="422" y="113" on="0"/>
        <pt x="422" y="180" on="1"/>
        <pt x="422" y="236" on="0"/>
        <pt x="350" y="300" on="0"/>
        <pt x="282" y="307" on="1"/>
        <pt x="152" y="306" on="1"/>
        <pt x="151" y="197" on="1"/>
        <pt x="153" y="44" on="1"/>
        <pt x="192" y="41" on="0"/>
        <pt x="232" y="41" on="1"/>
      </contour>
    </TTGlyph>
    <TTGlyph name="C" xMin="43" yMin="-6" xMax="493" yMax="644">
      <contour>
        <pt x="418" y="644" on="0"/>
        <pt x="493" y="591" on="1"/>
        <pt x="482" y="544" on="1"/>
        <pt x="474" y="543" on="1"/>
        <pt x="404" y="599" on="0"/>
        <pt x="316" y="599" on="1"/>
        <pt x="209" y="599" on="0"/>
        <pt x="96" y="455" on="0"/>
        <pt x="96" y="319" on="1"/>
        <pt x="96" y="183" on="0"/>
        <pt x="206" y="40" on="0"/>
        <pt x="309" y="40" on="1"/>
        <pt x="404" y="40" on="0"/>
        <pt x="484" y="103" on="1"/>
        <pt x="492" y="100" on="1"/>
        <pt x="488" y="51" on="1"/>
        <pt x="402" y="-6" on="0"/>
        <pt x="306" y="-6" on="1"/>
        <pt x="180" y="-6" on="0"/>
        <pt x="43" y="161" on="0"/>
        <pt x="43" y="316" on="1"/>
        <pt x="43" y="473" on="0"/>
        <pt x="186" y="644" on="0"/>
        <pt x="318" y="644" on="1"/>
      </contour>
    </TTGlyph>
    <TTGlyph name="C.ss01" xMin="-100" yMin="0" xMax="564" yMax="495">
      <contour>
        <pt x="397" y="467" on="1"/>
        <pt x="419" y="455" on="1"/>
        <pt x="409" y="411" on="1"/>
        <pt x="402" y="409" on="1"/>
        <pt x="348" y="452" on="0"/>
        <pt x="275" y="452" on="1"/>
        <pt x="192" y="452" on="0"/>
        <pt x="105" y="349" on="0"/>
        <pt x="105" y="249" on="1"/>
        <pt x="105" y="149" on="0"/>
        <pt x="190" y="43" on="0"/>
        <pt x="270" y="43" on="1"/>
        <pt x="345" y="43" on="0"/>
        <pt x="410" y="90" on="1"/>
        <pt x="417" y="87" on="1"/>
        <pt x="413" y="43" on="1"/>
        <pt x="399" y="33" on="0"/>
        <pt x="385" y="28" on="1"/>
        <pt x="564" y="28" on="1"/>
        <pt x="564" y="0" on="1"/>
        <pt x="-100" y="0" on="1"/>
        <pt x="-100" y="28" on="1"/>
        <pt x="156" y="28" on="1"/>
        <pt x="55" y="85" on="0"/>
        <pt x="55" y="245" on="1"/>
        <pt x="55" y="410" on="0"/>
        <pt x="163" y="467" on="1"/>
        <pt x="-100" y="467" on="1"/>
        <pt x="-100" y="495" on="1"/>
        <pt x="564" y="495" on="1"/>
        <pt x="564" y="467" on="1"/>
      </contour>
    </TTGlyph>
    <TTGlyph name="Cacute" xMin="43" yMin="-6" xMax="493" yMax="851">
      <component glyphName="C" x="0" y="0" flags="0x1000"/>
      <component glyphName="acute.cap" x="148" y="184" flags="0x1000"/>
    </TTGlyph>
    <TTGlyph name="Ccaron" xMin="43" yMin="-6" xMax="493" yMax="835">
      <component glyphName="C" x="0" y="0" flags="0x1000"/>
      <component glyphName="caron.cap" x="119" y="184" flags="0x1000"/>
    </TTGlyph>
    <TTGlyph name="Ccedilla" xMin="43" yMin="-186" xMax="494" yMax="644">
      <contour>
        <pt x="405" y="40" on="0"/>
        <pt x="484" y="103" on="1"/>
        <pt x="492" y="100" on="1"/>
        <pt x="488" y="51" on="1"/>
        <pt x="408" y="-1" on="0"/>
        <pt x="325" y="-5" on="1"/>
        <pt x="310" y="-53" on="1"/>
        <pt x="342" y="-73" on="1"/>
        <pt x="378" y="-94" on="0"/>
        <pt x="378" y="-126" on="1"/>
        <pt x="378" y="-153" on="0"/>
        <pt x="337" y="-186" on="0"/>
        <pt x="307" y="-186" on="1"/>
        <pt x="267" y="-186" on="0"/>
        <pt x="241" y="-154" on="1"/>
        <pt x="248" y="-125" on="1"/>
        <pt x="252" y="-124" on="1"/>
        <pt x="278" y="-155" on="0"/>
        <pt x="305" y="-155" on="1"/>
        <pt x="321" y="-155" on="0"/>
        <pt x="341" y="-139" on="0"/>
        <pt x="341" y="-125" on="1"/>
        <pt x="341" y="-109" on="0"/>
        <pt x="318" y="-96" on="1"/>
        <pt x="272" y="-68" on="1"/>
        <pt x="291" y="-6" on="1"/>
        <pt x="172" y="-1" on="0"/>
        <pt x="43" y="166" on="0"/>
        <pt x="43" y="316" on="1"/>
        <pt x="43" y="473" on="0"/>
        <pt x="186" y="644" on="0"/>
        <pt x="318" y="644" on="1"/>
        <pt x="418" y="644" on="0"/>
        <pt x="494" y="591" on="1"/>
        <pt x="482" y="544" on="1"/>
        <pt x="474" y="543" on="1"/>
        <pt x="404" y="599" on="0"/>
        <pt x="316" y="599" on="1"/>
        <pt x="210" y="599" on="0"/>
        <pt x="96" y="455" on="0"/>
        <pt x="96" y="319" on="1"/>
        <pt x="96" y="183" on="0"/>
        <pt x="206" y="40" on="0"/>
        <pt x="309" y="40" on="1"/>
      </contour>
    </TTGlyph>
    <TTGlyph name="Ccircumflex" xMin="43" yMin="-6" xMax="493" yMax="844">
      <component glyphName="C" x="0" y="0" flags="0x1000"/>
      <component glyphName="caron.cap" x="509" y="1387" scale="-1.0" flags="0x1000"/>
    </TTGlyph>
    <TTGlyph name="Cdotaccent" xMin="43" yMin="-6" xMax="493" yMax="832">
      <component glyphName="C" x="0" y="0" flags="0x1000"/>
      <component glyphName="period" x="199" y="767" flags="0x1000"/>
    </TTGlyph>
    <TTGlyph name="D" xMin="101" yMin="-5" xMax="599" yMax="643">
      <contour>
        <pt x="454" y="643" on="0"/>
        <pt x="599" y="487" on="0"/>
        <pt x="599" y="341" on="1"/>
        <pt x="599" y="174" on="0"/>
        <pt x="445" y="-5" on="0"/>
        <pt x="301" y="-5" on="1"/>
        <pt x="226" y="-5" on="0"/>
        <pt x="101" y="0" on="1"/>
        <pt x="104" y="194" on="1"/>
        <pt x="101" y="639" on="1"/>
        <pt x="318" y="643" on="1"/>
      </contour>
      <contour>
        <pt x="423" y="39" on="0"/>
        <pt x="546" y="189" on="0"/>
        <pt x="546" y="332" on="1"/>
        <pt x="546" y="464" on="0"/>
        <pt x="428" y="599" on="0"/>
        <pt x="315" y="599" on="1"/>
        <pt x="257" y="599" on="0"/>
        <pt x="154" y="594" on="1"/>
        <pt x="151" y="197" on="1"/>
        <pt x="153" y="45" on="1"/>
        <pt x="245" y="39" on="0"/>
        <pt x="308" y="39" on="1"/>
      </contour>
    </TTGlyph>
    <TTGlyph name="D.ss01" xMin="-100" yMin="0" xMax="663" yMax="495">
      <contour>
        <pt x="401" y="467" on="1"/>
        <pt x="507" y="413" on="0"/>
        <pt x="507" y="263" on="1"/>
        <pt x="507" y="88" on="0"/>
        <pt x="391" y="28" on="1"/>
        <pt x="663" y="28" on="1"/>
        <pt x="663" y="0" on="1"/>
        <pt x="-100" y="0" on="1"/>
        <pt x="-100" y="28" on="1"/>
        <pt x="103" y="28" on="1"/>
        <pt x="104" y="151" on="1"/>
        <pt x="103" y="467" on="1"/>
        <pt x="-100" y="467" on="1"/>
        <pt x="-100" y="495" on="1"/>
        <pt x="663" y="495" on="1"/>
        <pt x="663" y="467" on="1"/>
      </contour>
      <contour>
        <pt x="458" y="450" on="0"/>
        <pt x="277" y="450" on="1"/>
        <pt x="151" y="447" on="1"/>
        <pt x="149" y="155" on="1"/>
        <pt x="150" y="45" on="1"/>
        <pt x="216" y="41" on="0"/>
        <pt x="273" y="41" on="1"/>
        <pt x="362" y="41" on="0"/>
        <pt x="458" y="149" on="0"/>
        <pt x="458" y="254" on="1"/>
      </contour>
    </TTGlyph>
    <TTGlyph name="Dcaron" xMin="101" yMin="-5" xMax="599" yMax="835">
      <component glyphName="D" x="0" y="0" flags="0x1000"/>
      <component glyphName="caron.cap" x="117" y="184" flags="0x1000"/>
    </TTGlyph>
    <TTGlyph name="Dcroat" xMin="101" yMin="-5" xMax="599" yMax="805">
      <component glyphName="D" x="0" y="0" flags="0x1000"/>
      <component glyphName="macron" x="116" y="184" flags="0x1000"/>
    </TTGlyph>
    <TTGlyph name="Delta" xMin="16" yMin="0" xMax="542" yMax="639">
      <contour>
        <pt x="16" y="0" on="1"/>
        <pt x="260" y="639" on="1"/>
        <pt x="319" y="639" on="1"/>
        <pt x="542" y="0" on="1"/>
      </contour>
      <contour>
        <pt x="81" y="45" on="1"/>
        <pt x="476" y="45" on="1"/>
        <pt x="291" y="579" on="1"/>
        <pt x="285" y="579" on="1"/>
      </contour>
    </TTGlyph>
    <TTGlyph name="E" xMin="101" yMin="0" xMax="443" yMax="639">
      <contour>
        <pt x="438" y="0" on="1"/>
        <pt x="101" y="0" on="1"/>
        <pt x="104" y="194" on="1"/>
        <pt x="101" y="639" on="1"/>
        <pt x="437" y="639" on="1"/>
        <pt x="441" y="633" on="1"/>
        <pt x="435" y="592" on="1"/>
        <pt x="286" y="594" on="1"/>
        <pt x="154" y="593" on="1"/>
        <pt x="152" y="352" on="1"/>
        <pt x="277" y="351" on="1"/>
        <pt x="384" y="352" on="1"/>
        <pt x="388" y="347" on="1"/>
        <pt x="383" y="306" on="1"/>
        <pt x="152" y="307" on="1"/>
        <pt x="151" y="197" on="1"/>
        <pt x="153" y="45" on="1"/>
        <pt x="282" y="44" on="1"/>
        <pt x="439" y="47" on="1"/>
        <pt x="443" y="41" on="1"/>
      </contour>
    </TTGlyph>
    <TTGlyph name="Eacute" xMin="101" yMin="0" xMax="443" yMax="851">
      <component glyphName="E" x="0" y="0" flags="0x1000"/>
      <component glyphName="acute.cap" x="104" y="184" flags="0x1000"/>
    </TTGlyph>
    <TTGlyph name="Ebreve" xMin="101" yMin="0" xMax="443" yMax="829">
      <component glyphName="E" x="0" y="0" flags="0x1000"/>
      <component glyphName="breve.cap" x="75" y="184" flags="0x1000"/>
    </TTGlyph>
    <TTGlyph name="Ecaron" xMin="101" yMin="0" xMax="443" yMax="835">
      <component glyphName="E" x="0" y="0" flags="0x1000"/>
      <component glyphName="caron.cap" x="76" y="184" flags="0x1000"/>
    </TTGlyph>
    <TTGlyph name="Ecircumflex" xMin="101" yMin="0" xMax="443" yMax="844">
      <contour>
        <pt x="153" y="761" on="1"/>
        <pt x="196" y="790" on="0"/>
        <pt x="261" y="844" on="1"/>
        <pt x="280" y="844" on="1"/>
        <pt x="353" y="786" on="0"/>
        <pt x="389" y="761" on="1"/>
        <pt x="377" y="736" on="1"/>
        <pt x="370" y="736" on="1"/>
        <pt x="295" y="786" on="0"/>
        <pt x="271" y="804" on="1"/>
        <pt x="247" y="787" on="0"/>
        <pt x="172" y="736" on="1"/>
        <pt x="165" y="736" on="1"/>
      </contour>
      <contour>
        <pt x="438" y="0" on="1"/>
        <pt x="101" y="0" on="1"/>
        <pt x="104" y="194" on="1"/>
        <pt x="101" y="639" on="1"/>
        <pt x="437" y="639" on="1"/>
        <pt x="441" y="633" on="1"/>
        <pt x="435" y="592" on="1"/>
        <pt x="286" y="594" on="1"/>
        <pt x="154" y="593" on="1"/>
        <pt x="152" y="352" on="1"/>
        <pt x="277" y="351" on="1"/>
        <pt x="383" y="352" on="1"/>
        <pt x="388" y="347" on="1"/>
        <pt x="382" y="306" on="1"/>
        <pt x="152" y="307" on="1"/>
        <pt x="151" y="197" on="1"/>
        <pt x="153" y="45" on="1"/>
        <pt x="282" y="44" on="1"/>
        <pt x="439" y="47" on="1"/>
        <pt x="443" y="41" on="1"/>
      </contour>
    </TTGlyph>
    <TTGlyph name="Ecircumflexacute" xMin="101" yMin="0" xMax="443" yMax="922">
      <component glyphName="E" x="0" y="0" flags="0x1000"/>
      <component glyphName="circumflexacute" x="75" y="184" flags="0x1000"/>
    </TTGlyph>
    <TTGlyph name="Ecircumflexdotbelow" xMin="101" yMin="-146" xMax="443" yMax="844">
      <contour>
        <pt x="153" y="761" on="1"/>
        <pt x="196" y="790" on="0"/>
        <pt x="261" y="844" on="1"/>
        <pt x="280" y="844" on="1"/>
        <pt x="353" y="786" on="0"/>
        <pt x="389" y="761" on="1"/>
        <pt x="377" y="736" on="1"/>
        <pt x="370" y="736" on="1"/>
        <pt x="295" y="786" on="0"/>
        <pt x="271" y="804" on="1"/>
        <pt x="247" y="787" on="0"/>
        <pt x="172" y="736" on="1"/>
        <pt x="165" y="736" on="1"/>
      </contour>
      <contour>
        <pt x="438" y="0" on="1"/>
        <pt x="101" y="0" on="1"/>
        <pt x="104" y="194" on="1"/>
        <pt x="101" y="639" on="1"/>
        <pt x="437" y="639" on="1"/>
        <pt x="441" y="633" on="1"/>
        <pt x="435" y="592" on="1"/>
        <pt x="286" y="594" on="1"/>
        <pt x="154" y="593" on="1"/>
        <pt x="152" y="352" on="1"/>
        <pt x="277" y="351" on="1"/>
        <pt x="383" y="352" on="1"/>
        <pt x="388" y="347" on="1"/>
        <pt x="382" y="306" on="1"/>
        <pt x="152" y="307" on="1"/>
        <pt x="151" y="197" on="1"/>
        <pt x="153" y="45" on="1"/>
        <pt x="282" y="44" on="1"/>
        <pt x="439" y="47" on="1"/>
        <pt x="443" y="41" on="1"/>
      </contour>
      <contour>
        <pt x="307" y="-78" on="0"/>
        <pt x="307" y="-112" on="1"/>
        <pt x="307" y="-128" on="0"/>
        <pt x="289" y="-146" on="0"/>
        <pt x="273" y="-146" on="1"/>
        <pt x="240" y="-146" on="0"/>
        <pt x="240" y="-113" on="1"/>
        <pt x="240" y="-97" on="0"/>
        <pt x="258" y="-78" on="0"/>
        <pt x="274" y="-78" on="1"/>
      </contour>
    </TTGlyph>
    <TTGlyph name="Ecircumflexgrave" xMin="101" yMin="0" xMax="443" yMax="922">
      <component glyphName="E" x="0" y="0" flags="0x1000"/>
      <component glyphName="circumflexgrave" x="75" y="184" flags="0x1000"/>
    </TTGlyph>
    <TTGlyph name="Ecircumflexhookabove" xMin="101" yMin="0" xMax="443" yMax="955">
      <contour>
        <pt x="326" y="924" on="0"/>
        <pt x="301" y="902" on="1"/>
        <pt x="289" y="921" on="1"/>
        <pt x="325" y="955" on="0"/>
        <pt x="361" y="955" on="1"/>
        <pt x="383" y="955" on="0"/>
        <pt x="412" y="930" on="0"/>
        <pt x="412" y="910" on="1"/>
        <pt x="412" y="880" on="0"/>
        <pt x="365" y="843" on="1"/>
        <pt x="382" y="813" on="1"/>
        <pt x="357" y="800" on="1"/>
        <pt x="331" y="846" on="1"/>
        <pt x="379" y="880" on="0"/>
        <pt x="379" y="905" on="1"/>
        <pt x="379" y="924" on="0"/>
        <pt x="354" y="924" on="1"/>
      </contour>
      <contour>
        <pt x="152" y="741" on="1"/>
        <pt x="195" y="770" on="0"/>
        <pt x="260" y="824" on="1"/>
        <pt x="279" y="824" on="1"/>
        <pt x="352" y="766" on="0"/>
        <pt x="388" y="741" on="1"/>
        <pt x="376" y="716" on="1"/>
        <pt x="369" y="716" on="1"/>
        <pt x="294" y="766" on="0"/>
        <pt x="270" y="784" on="1"/>
        <pt x="246" y="766" on="0"/>
        <pt x="171" y="716" on="1"/>
        <pt x="164" y="716" on="1"/>
      </contour>
      <contour>
        <pt x="438" y="0" on="1"/>
        <pt x="101" y="0" on="1"/>
        <pt x="104" y="194" on="1"/>
        <pt x="101" y="639" on="1"/>
        <pt x="437" y="639" on="1"/>
        <pt x="441" y="633" on="1"/>
        <pt x="435" y="592" on="1"/>
        <pt x="286" y="594" on="1"/>
        <pt x="154" y="593" on="1"/>
        <pt x="152" y="352" on="1"/>
        <pt x="277" y="351" on="1"/>
        <pt x="383" y="352" on="1"/>
        <pt x="388" y="347" on="1"/>
        <pt x="382" y="306" on="1"/>
        <pt x="152" y="307" on="1"/>
        <pt x="151" y="197" on="1"/>
        <pt x="153" y="45" on="1"/>
        <pt x="282" y="44" on="1"/>
        <pt x="439" y="47" on="1"/>
        <pt x="443" y="41" on="1"/>
      </contour>
    </TTGlyph>
    <TTGlyph name="Ecircumflextilde" xMin="101" yMin="0" xMax="443" yMax="922">
      <component glyphName="E" x="0" y="0" flags="0x1000"/>
      <component glyphName="circumflexgrave" x="75" y="184" flags="0x1000"/>
    </TTGlyph>
    <TTGlyph name="Edieresis" xMin="101" yMin="0" xMax="443" yMax="818">
      <contour>
        <pt x="163" y="752" on="0"/>
        <pt x="163" y="784" on="1"/>
        <pt x="163" y="800" on="0"/>
        <pt x="181" y="818" on="0"/>
        <pt x="197" y="818" on="1"/>
        <pt x="229" y="818" on="0"/>
        <pt x="229" y="786" on="1"/>
        <pt x="229" y="770" on="0"/>
        <pt x="211" y="752" on="0"/>
        <pt x="195" y="752" on="1"/>
      </contour>
      <contour>
        <pt x="312" y="752" on="0"/>
        <pt x="312" y="784" on="1"/>
        <pt x="312" y="800" on="0"/>
        <pt x="330" y="818" on="0"/>
        <pt x="346" y="818" on="1"/>
        <pt x="378" y="818" on="0"/>
        <pt x="378" y="786" on="1"/>
        <pt x="378" y="770" on="0"/>
        <pt x="360" y="752" on="0"/>
        <pt x="344" y="752" on="1"/>
      </contour>
      <contour>
        <pt x="438" y="0" on="1"/>
        <pt x="101" y="0" on="1"/>
        <pt x="104" y="194" on="1"/>
        <pt x="101" y="639" on="1"/>
        <pt x="437" y="639" on="1"/>
        <pt x="441" y="633" on="1"/>
        <pt x="435" y="592" on="1"/>
        <pt x="286" y="594" on="1"/>
        <pt x="154" y="593" on="1"/>
        <pt x="152" y="352" on="1"/>
        <pt x="277" y="351" on="1"/>
        <pt x="383" y="352" on="1"/>
        <pt x="388" y="347" on="1"/>
        <pt x="382" y="306" on="1"/>
        <pt x="152" y="307" on="1"/>
        <pt x="151" y="197" on="1"/>
        <pt x="153" y="45" on="1"/>
        <pt x="282" y="44" on="1"/>
        <pt x="439" y="47" on="1"/>
        <pt x="443" y="41" on="1"/>
      </contour>
    </TTGlyph>
    <TTGlyph name="Edotaccent" xMin="101" yMin="0" xMax="443" yMax="832">
      <contour>
        <pt x="237" y="764" on="0"/>
        <pt x="237" y="797" on="1"/>
        <pt x="237" y="813" on="0"/>
        <pt x="255" y="832" on="0"/>
        <pt x="271" y="832" on="1"/>
        <pt x="304" y="832" on="0"/>
        <pt x="304" y="799" on="1"/>
        <pt x="304" y="764" on="0"/>
        <pt x="270" y="764" on="1"/>
      </contour>
      <contour>
        <pt x="438" y="0" on="1"/>
        <pt x="101" y="0" on="1"/>
        <pt x="104" y="194" on="1"/>
        <pt x="101" y="639" on="1"/>
        <pt x="437" y="639" on="1"/>
        <pt x="441" y="633" on="1"/>
        <pt x="435" y="592" on="1"/>
        <pt x="286" y="594" on="1"/>
        <pt x="154" y="593" on="1"/>
        <pt x="152" y="352" on="1"/>
        <pt x="277" y="351" on="1"/>
        <pt x="383" y="352" on="1"/>
        <pt x="388" y="347" on="1"/>
        <pt x="382" y="306" on="1"/>
        <pt x="152" y="307" on="1"/>
        <pt x="151" y="197" on="1"/>
        <pt x="153" y="45" on="1"/>
        <pt x="282" y="44" on="1"/>
        <pt x="439" y="47" on="1"/>
        <pt x="443" y="41" on="1"/>
      </contour>
    </TTGlyph>
    <TTGlyph name="Edotbelow" xMin="101" yMin="-146" xMax="443" yMax="639">
      <contour>
        <pt x="438" y="0" on="1"/>
        <pt x="101" y="0" on="1"/>
        <pt x="104" y="194" on="1"/>
        <pt x="101" y="639" on="1"/>
        <pt x="437" y="639" on="1"/>
        <pt x="441" y="633" on="1"/>
        <pt x="435" y="592" on="1"/>
        <pt x="286" y="594" on="1"/>
        <pt x="154" y="593" on="1"/>
        <pt x="152" y="352" on="1"/>
        <pt x="277" y="351" on="1"/>
        <pt x="383" y="352" on="1"/>
        <pt x="388" y="347" on="1"/>
        <pt x="382" y="306" on="1"/>
        <pt x="152" y="307" on="1"/>
        <pt x="151" y="197" on="1"/>
        <pt x="153" y="45" on="1"/>
        <pt x="282" y="44" on="1"/>
        <pt x="439" y="47" on="1"/>
        <pt x="443" y="41" on="1"/>
      </contour>
      <contour>
        <pt x="307" y="-78" on="0"/>
        <pt x="307" y="-112" on="1"/>
        <pt x="307" y="-128" on="0"/>
        <pt x="289" y="-146" on="0"/>
        <pt x="273" y="-146" on="1"/>
        <pt x="240" y="-146" on="0"/>
        <pt x="240" y="-113" on="1"/>
        <pt x="240" y="-97" on="0"/>
        <pt x="258" y="-78" on="0"/>
        <pt x="274" y="-78" on="1"/>
      </contour>
    </TTGlyph>
    <TTGlyph name="Egrave" xMin="101" yMin="0" xMax="443" yMax="853">
      <contour>
        <pt x="255" y="770" on="0"/>
        <pt x="170" y="814" on="1"/>
        <pt x="168" y="821" on="1"/>
        <pt x="182" y="851" on="1"/>
        <pt x="189" y="853" on="1"/>
        <pt x="265" y="807" on="0"/>
        <pt x="374" y="754" on="1"/>
        <pt x="363" y="728" on="1"/>
        <pt x="355" y="725" on="1"/>
      </contour>
      <contour>
        <pt x="438" y="0" on="1"/>
        <pt x="101" y="0" on="1"/>
        <pt x="104" y="194" on="1"/>
        <pt x="101" y="639" on="1"/>
        <pt x="437" y="639" on="1"/>
        <pt x="441" y="633" on="1"/>
        <pt x="435" y="592" on="1"/>
        <pt x="286" y="594" on="1"/>
        <pt x="154" y="593" on="1"/>
        <pt x="152" y="352" on="1"/>
        <pt x="277" y="351" on="1"/>
        <pt x="383" y="352" on="1"/>
        <pt x="388" y="347" on="1"/>
        <pt x="382" y="306" on="1"/>
        <pt x="152" y="307" on="1"/>
        <pt x="151" y="197" on="1"/>
        <pt x="153" y="45" on="1"/>
        <pt x="282" y="44" on="1"/>
        <pt x="439" y="47" on="1"/>
        <pt x="443" y="41" on="1"/>
      </contour>
    </TTGlyph>
    <TTGlyph name="Ehookabove" xMin="101" yMin="0" xMax="443" yMax="879">
      <component glyphName="E" x="0" y="0" flags="0x1000"/>
      <component glyphName="hookabove" x="75" y="183" flags="0x1000"/>
    </TTGlyph>
    <TTGlyph name="Emacron" xMin="101" yMin="0" xMax="443" yMax="805">
      <component glyphName="E" x="0" y="0" flags="0x1000"/>
      <component glyphName="macron" x="75" y="184" flags="0x1000"/>
    </TTGlyph>
    <TTGlyph name="Eng" xMin="101" yMin="-153" xMax="576" yMax="640">
      <contour>
        <pt x="573" y="48" on="1"/>
        <pt x="573" y="-19" on="0"/>
        <pt x="505" y="-110" on="0"/>
        <pt x="422" y="-153" on="1"/>
        <pt x="401" y="-124" on="1"/>
        <pt x="401" y="-116" on="1"/>
        <pt x="454" y="-86" on="0"/>
        <pt x="509" y="-31" on="0"/>
        <pt x="518" y="3" on="1"/>
        <pt x="155" y="552" on="1"/>
        <pt x="149" y="552" on="1"/>
        <pt x="148" y="205" on="1"/>
        <pt x="150" y="0" on="1"/>
        <pt x="101" y="0" on="1"/>
        <pt x="104" y="190" on="1"/>
        <pt x="102" y="639" on="1"/>
        <pt x="156" y="639" on="1"/>
        <pt x="521" y="88" on="1"/>
        <pt x="526" y="88" on="1"/>
        <pt x="527" y="636" on="1"/>
        <pt x="576" y="640" on="1"/>
        <pt x="573" y="182" on="1"/>
      </contour>
    </TTGlyph>
    <TTGlyph name="Eogonek" xMin="101" yMin="-197" xMax="449" yMax="639">
      <contour>
        <pt x="403" y="-197" on="0"/>
        <pt x="354" y="-197" on="1"/>
        <pt x="321" y="-197" on="0"/>
        <pt x="281" y="-157" on="0"/>
        <pt x="281" y="-124" on="1"/>
        <pt x="281" y="-89" on="0"/>
        <pt x="304" y="-57" on="1"/>
        <pt x="343" y="0" on="1"/>
        <pt x="101" y="0" on="1"/>
        <pt x="104" y="194" on="1"/>
        <pt x="101" y="639" on="1"/>
        <pt x="437" y="639" on="1"/>
        <pt x="441" y="633" on="1"/>
        <pt x="435" y="592" on="1"/>
        <pt x="286" y="594" on="1"/>
        <pt x="154" y="593" on="1"/>
        <pt x="152" y="352" on="1"/>
        <pt x="277" y="351" on="1"/>
        <pt x="383" y="352" on="1"/>
        <pt x="388" y="347" on="1"/>
        <pt x="382" y="306" on="1"/>
        <pt x="152" y="307" on="1"/>
        <pt x="151" y="197" on="1"/>
        <pt x="153" y="45" on="1"/>
        <pt x="282" y="44" on="1"/>
        <pt x="439" y="47" on="1"/>
        <pt x="443" y="41" on="1"/>
        <pt x="438" y="0" on="1"/>
        <pt x="380" y="0" on="1"/>
        <pt x="337" y="-65" on="1"/>
        <pt x="318" y="-94" on="0"/>
        <pt x="318" y="-117" on="1"/>
        <pt x="318" y="-136" on="0"/>
        <pt x="340" y="-159" on="0"/>
        <pt x="360" y="-159" on="1"/>
        <pt x="398" y="-159" on="0"/>
        <pt x="435" y="-114" on="1"/>
        <pt x="438" y="-114" on="1"/>
        <pt x="449" y="-142" on="1"/>
      </contour>
    </TTGlyph>
    <TTGlyph name="Eth" xMin="10" yMin="-5" xMax="619" yMax="643">
      <contour>
        <pt x="474" y="643" on="0"/>
        <pt x="619" y="487" on="0"/>
        <pt x="619" y="341" on="1"/>
        <pt x="619" y="174" on="0"/>
        <pt x="464" y="-5" on="0"/>
        <pt x="321" y="-5" on="1"/>
        <pt x="246" y="-5" on="0"/>
        <pt x="121" y="0" on="1"/>
        <pt x="120" y="0" on="1"/>
        <pt x="123" y="194" on="1"/>
        <pt x="122" y="307" on="1"/>
        <pt x="13" y="307" on="1"/>
        <pt x="10" y="312" on="1"/>
        <pt x="12" y="346" on="1"/>
        <pt x="122" y="346" on="1"/>
        <pt x="120" y="639" on="1"/>
        <pt x="121" y="639" on="1"/>
        <pt x="338" y="643" on="1"/>
      </contour>
      <contour>
        <pt x="443" y="39" on="0"/>
        <pt x="566" y="189" on="0"/>
        <pt x="566" y="332" on="1"/>
        <pt x="566" y="464" on="0"/>
        <pt x="448" y="599" on="0"/>
        <pt x="335" y="599" on="1"/>
        <pt x="276" y="599" on="0"/>
        <pt x="173" y="594" on="1"/>
        <pt x="172" y="346" on="1"/>
        <pt x="329" y="346" on="1"/>
        <pt x="332" y="341" on="1"/>
        <pt x="330" y="307" on="1"/>
        <pt x="171" y="307" on="1"/>
        <pt x="171" y="197" on="1"/>
        <pt x="173" y="45" on="1"/>
        <pt x="267" y="39" on="0"/>
        <pt x="328" y="39" on="1"/>
      </contour>
    </TTGlyph>
    <TTGlyph name="Etilde" xMin="101" yMin="0" xMax="443" yMax="834">
      <component glyphName="E" x="0" y="0" flags="0x1000"/>
      <component glyphName="tilde" x="75" y="184" flags="0x1000"/>
    </TTGlyph>
    <TTGlyph name="Euro" xMin="19" yMin="-5" xMax="453" yMax="498">
      <contour>
        <pt x="381" y="34" on="0"/>
        <pt x="442" y="79" on="1"/>
        <pt x="449" y="75" on="1"/>
        <pt x="445" y="39" on="1"/>
        <pt x="377" y="-5" on="0"/>
        <pt x="304" y="-5" on="1"/>
        <pt x="220" y="-5" on="0"/>
        <pt x="116" y="81" on="0"/>
        <pt x="100" y="163" on="1"/>
        <pt x="22" y="163" on="1"/>
        <pt x="19" y="167" on="1"/>
        <pt x="22" y="197" on="1"/>
        <pt x="95" y="197" on="1"/>
        <pt x="93" y="225" on="0"/>
        <pt x="93" y="241" on="1"/>
        <pt x="93" y="268" on="0"/>
        <pt x="95" y="281" on="1"/>
        <pt x="22" y="281" on="1"/>
        <pt x="19" y="285" on="1"/>
        <pt x="22" y="315" on="1"/>
        <pt x="99" y="315" on="1"/>
        <pt x="116" y="404" on="0"/>
        <pt x="226" y="498" on="0"/>
        <pt x="316" y="498" on="1"/>
        <pt x="391" y="498" on="0"/>
        <pt x="453" y="458" on="1"/>
        <pt x="443" y="421" on="1"/>
        <pt x="437" y="420" on="1"/>
        <pt x="385" y="460" on="0"/>
        <pt x="314" y="460" on="1"/>
        <pt x="244" y="460" on="0"/>
        <pt x="159" y="386" on="0"/>
        <pt x="146" y="315" on="1"/>
        <pt x="345" y="315" on="1"/>
        <pt x="349" y="311" on="1"/>
        <pt x="346" y="281" on="1"/>
        <pt x="141" y="281" on="1"/>
        <pt x="139" y="269" on="0"/>
        <pt x="139" y="244" on="1"/>
        <pt x="139" y="220" on="0"/>
        <pt x="142" y="197" on="1"/>
        <pt x="345" y="197" on="1"/>
        <pt x="349" y="193" on="1"/>
        <pt x="346" y="163" on="1"/>
        <pt x="148" y="163" on="1"/>
        <pt x="177" y="34" on="0"/>
        <pt x="306" y="34" on="1"/>
      </contour>
    </TTGlyph>
    <TTGlyph name="F" xMin="101" yMin="0" xMax="426" yMax="639">
      <contour>
        <pt x="152" y="340" on="1"/>
        <pt x="269" y="339" on="1"/>
        <pt x="371" y="341" on="1"/>
        <pt x="376" y="335" on="1"/>
        <pt x="370" y="295" on="1"/>
        <pt x="152" y="296" on="1"/>
        <pt x="151" y="197" on="1"/>
        <pt x="153" y="0" on="1"/>
        <pt x="101" y="0" on="1"/>
        <pt x="104" y="194" on="1"/>
        <pt x="101" y="639" on="1"/>
        <pt x="421" y="639" on="1"/>
        <pt x="426" y="633" on="1"/>
        <pt x="420" y="591" on="1"/>
        <pt x="277" y="594" on="1"/>
        <pt x="154" y="593" on="1"/>
      </contour>
    </TTGlyph>
    <TTGlyph name="G" xMin="43" yMin="-6" xMax="531" yMax="644">
      <contour>
        <pt x="441" y="644" on="0"/>
        <pt x="531" y="594" on="1"/>
        <pt x="519" y="546" on="1"/>
        <pt x="511" y="545" on="1"/>
        <pt x="421" y="599" on="0"/>
        <pt x="341" y="599" on="1"/>
        <pt x="221" y="599" on="0"/>
        <pt x="96" y="454" on="0"/>
        <pt x="96" y="312" on="1"/>
        <pt x="96" y="40" on="0"/>
        <pt x="318" y="40" on="1"/>
        <pt x="384" y="40" on="0"/>
        <pt x="476" y="66" on="1"/>
        <pt x="477" y="159" on="1"/>
        <pt x="476" y="244" on="1"/>
        <pt x="526" y="248" on="1"/>
        <pt x="525" y="165" on="1"/>
        <pt x="527" y="30" on="1"/>
        <pt x="405" y="-5" on="0"/>
        <pt x="317" y="-6" on="1"/>
        <pt x="182" y="-6" on="0"/>
        <pt x="43" y="158" on="0"/>
        <pt x="43" y="310" on="1"/>
        <pt x="43" y="471" on="0"/>
        <pt x="201" y="644" on="0"/>
        <pt x="347" y="644" on="1"/>
      </contour>
    </TTGlyph>
    <TTGlyph name="Gbreve" xMin="43" yMin="-6" xMax="531" yMax="829">
      <component glyphName="G" x="0" y="0" flags="0x1000"/>
      <component glyphName="breve.cap" x="130" y="184" flags="0x1000"/>
    </TTGlyph>
    <TTGlyph name="Gcircumflex" xMin="43" yMin="-6" xMax="531" yMax="844">
      <component glyphName="G" x="0" y="0" flags="0x1000"/>
      <component glyphName="caron.cap" x="521" y="1387" scale="-1.0" flags="0x1000"/>
    </TTGlyph>
    <TTGlyph name="Gcommaaccent" xMin="43" yMin="-227" xMax="532" yMax="644">
      <contour>
        <pt x="442" y="644" on="0"/>
        <pt x="532" y="594" on="1"/>
        <pt x="520" y="546" on="1"/>
        <pt x="511" y="545" on="1"/>
        <pt x="421" y="599" on="0"/>
        <pt x="341" y="599" on="1"/>
        <pt x="222" y="599" on="0"/>
        <pt x="96" y="454" on="0"/>
        <pt x="96" y="312" on="1"/>
        <pt x="96" y="40" on="0"/>
        <pt x="318" y="40" on="1"/>
        <pt x="385" y="40" on="0"/>
        <pt x="476" y="66" on="1"/>
        <pt x="478" y="159" on="1"/>
        <pt x="477" y="244" on="1"/>
        <pt x="526" y="248" on="1"/>
        <pt x="525" y="165" on="1"/>
        <pt x="527" y="30" on="1"/>
        <pt x="405" y="-5" on="0"/>
        <pt x="317" y="-6" on="1"/>
        <pt x="182" y="-6" on="0"/>
        <pt x="43" y="158" on="0"/>
        <pt x="43" y="310" on="1"/>
        <pt x="43" y="471" on="0"/>
        <pt x="201" y="644" on="0"/>
        <pt x="347" y="644" on="1"/>
      </contour>
      <contour>
        <pt x="359" y="-83" on="0"/>
        <pt x="359" y="-117" on="1"/>
        <pt x="359" y="-170" on="0"/>
        <pt x="281" y="-227" on="1"/>
        <pt x="262" y="-210" on="1"/>
        <pt x="263" y="-205" on="1"/>
        <pt x="315" y="-165" on="0"/>
        <pt x="315" y="-125" on="1"/>
        <pt x="315" y="-102" on="0"/>
        <pt x="286" y="-85" on="1"/>
        <pt x="286" y="-79" on="1"/>
        <pt x="305" y="-66" on="0"/>
        <pt x="320" y="-61" on="1"/>
      </contour>
    </TTGlyph>
    <TTGlyph name="Gdieresis" xMin="43" yMin="-6" xMax="531" yMax="802">
      <component glyphName="G" x="0" y="0" flags="0x1000"/>
      <component glyphName="period" x="281" y="738" scale="0.977294921875" flags="0x1000"/>
      <component glyphName="period" x="136" y="738" scale="0.977294921875" flags="0x1000"/>
    </TTGlyph>
    <TTGlyph name="Gdotaccent" xMin="43" yMin="-6" xMax="531" yMax="832">
      <component glyphName="G" x="0" y="0" flags="0x1000"/>
      <component glyphName="period" x="211" y="767" flags="0x1000"/>
    </TTGlyph>
    <TTGlyph name="Gtilde" xMin="43" yMin="-6" xMax="531" yMax="834">
      <component glyphName="G" x="0" y="0" flags="0x1000"/>
      <component glyphName="tilde" x="130" y="184" flags="0x1000"/>
    </TTGlyph>
    <TTGlyph name="H" xMin="101" yMin="0" xMax="576" yMax="639">
      <contour>
        <pt x="575" y="0" on="1"/>
        <pt x="523" y="0" on="1"/>
        <pt x="526" y="194" on="1"/>
        <pt x="525" y="301" on="1"/>
        <pt x="331" y="302" on="1"/>
        <pt x="152" y="301" on="1"/>
        <pt x="151" y="197" on="1"/>
        <pt x="153" y="0" on="1"/>
        <pt x="101" y="0" on="1"/>
        <pt x="104" y="194" on="1"/>
        <pt x="101" y="639" on="1"/>
        <pt x="154" y="639" on="1"/>
        <pt x="152" y="347" on="1"/>
        <pt x="336" y="346" on="1"/>
        <pt x="525" y="347" on="1"/>
        <pt x="523" y="639" on="1"/>
        <pt x="576" y="639" on="1"/>
        <pt x="574" y="197" on="1"/>
      </contour>
    </TTGlyph>
    <TTGlyph name="Hbar" xMin="47" yMin="0" xMax="661" yMax="639">
      <contour>
        <pt x="588" y="197" on="1"/>
        <pt x="590" y="0" on="1"/>
        <pt x="538" y="0" on="1"/>
        <pt x="541" y="194" on="1"/>
        <pt x="540" y="301" on="1"/>
        <pt x="345" y="302" on="1"/>
        <pt x="166" y="301" on="1"/>
        <pt x="166" y="197" on="1"/>
        <pt x="168" y="0" on="1"/>
        <pt x="115" y="0" on="1"/>
        <pt x="118" y="194" on="1"/>
        <pt x="116" y="481" on="1"/>
        <pt x="51" y="481" on="1"/>
        <pt x="47" y="485" on="1"/>
        <pt x="50" y="520" on="1"/>
        <pt x="116" y="520" on="1"/>
        <pt x="115" y="639" on="1"/>
        <pt x="168" y="639" on="1"/>
        <pt x="167" y="520" on="1"/>
        <pt x="539" y="520" on="1"/>
        <pt x="538" y="639" on="1"/>
        <pt x="590" y="639" on="1"/>
        <pt x="589" y="520" on="1"/>
        <pt x="656" y="520" on="1"/>
        <pt x="661" y="515" on="1"/>
        <pt x="658" y="481" on="1"/>
        <pt x="589" y="481" on="1"/>
      </contour>
      <contour>
        <pt x="167" y="481" on="1"/>
        <pt x="167" y="347" on="1"/>
        <pt x="351" y="346" on="1"/>
        <pt x="540" y="347" on="1"/>
        <pt x="539" y="481" on="1"/>
      </contour>
    </TTGlyph>
    <TTGlyph name="Hcircumflex" xMin="101" yMin="0" xMax="576" yMax="844">
      <contour>
        <pt x="217" y="761" on="1"/>
        <pt x="260" y="790" on="0"/>
        <pt x="325" y="844" on="1"/>
        <pt x="344" y="844" on="1"/>
        <pt x="417" y="786" on="0"/>
        <pt x="453" y="761" on="1"/>
        <pt x="441" y="736" on="1"/>
        <pt x="434" y="736" on="1"/>
        <pt x="359" y="786" on="0"/>
        <pt x="335" y="804" on="1"/>
        <pt x="311" y="787" on="0"/>
        <pt x="236" y="736" on="1"/>
        <pt x="229" y="736" on="1"/>
      </contour>
      <contour>
        <pt x="575" y="0" on="1"/>
        <pt x="523" y="0" on="1"/>
        <pt x="526" y="194" on="1"/>
        <pt x="525" y="301" on="1"/>
        <pt x="331" y="302" on="1"/>
        <pt x="152" y="301" on="1"/>
        <pt x="151" y="197" on="1"/>
        <pt x="153" y="0" on="1"/>
        <pt x="101" y="0" on="1"/>
        <pt x="104" y="194" on="1"/>
        <pt x="101" y="639" on="1"/>
        <pt x="154" y="639" on="1"/>
        <pt x="152" y="347" on="1"/>
        <pt x="337" y="346" on="1"/>
        <pt x="525" y="347" on="1"/>
        <pt x="523" y="639" on="1"/>
        <pt x="576" y="639" on="1"/>
        <pt x="573" y="197" on="1"/>
      </contour>
    </TTGlyph>
    <TTGlyph name="I" xMin="101" yMin="0" xMax="154" yMax="639">
      <contour>
        <pt x="153" y="0" on="1"/>
        <pt x="101" y="0" on="1"/>
        <pt x="104" y="194" on="1"/>
        <pt x="101" y="639" on="1"/>
        <pt x="154" y="639" on="1"/>
        <pt x="151" y="197" on="1"/>
      </contour>
    </TTGlyph>
    <TTGlyph name="I.ss01" xMin="-100" yMin="0" xMax="349" yMax="495">
      <contour>
        <pt x="147" y="28" on="1"/>
        <pt x="349" y="28" on="1"/>
        <pt x="349" y="0" on="1"/>
        <pt x="-100" y="0" on="1"/>
        <pt x="-100" y="28" on="1"/>
        <pt x="99" y="28" on="1"/>
        <pt x="100" y="150" on="1"/>
        <pt x="99" y="467" on="1"/>
        <pt x="-100" y="467" on="1"/>
        <pt x="-100" y="495" on="1"/>
        <pt x="349" y="495" on="1"/>
        <pt x="349" y="467" on="1"/>
        <pt x="148" y="467" on="1"/>
        <pt x="146" y="154" on="1"/>
      </contour>
    </TTGlyph>
    <TTGlyph name="IJ" xMin="101" yMin="-100" xMax="445" yMax="639">
      <component glyphName="I" x="0" y="0" flags="0x1000"/>
      <component glyphName="J" x="255" y="0" flags="0x1000"/>
    </TTGlyph>
    <TTGlyph name="Iacute" xMin="53" yMin="0" xMax="259" yMax="851">
      <component glyphName="I" x="0" y="0" flags="0x1000"/>
      <component glyphName="acute.cap" x="-39" y="184" flags="0x1000"/>
    </TTGlyph>
    <TTGlyph name="Iacute_J.loclNLD" xMin="53" yMin="-100" xMax="508" yMax="851">
      <component glyphName="I" x="0" y="0" flags="0x1000"/>
      <component glyphName="acute.cap" x="-39" y="184" flags="0x1000"/>
      <component glyphName="J" x="255" y="0" flags="0x1000"/>
      <component glyphName="acute.cap" x="210" y="184" flags="0x1000"/>
    </TTGlyph>
    <TTGlyph name="Ibreve" xMin="13" yMin="0" xMax="242" yMax="829">
      <component glyphName="I" x="0" y="0" flags="0x1000"/>
      <component glyphName="breve.cap" x="-68" y="184" flags="0x1000"/>
    </TTGlyph>
    <TTGlyph name="Icaron" xMin="10" yMin="0" xMax="246" yMax="835">
      <component glyphName="I" x="0" y="0" flags="0x1000"/>
      <component glyphName="caron.cap" x="-67" y="184" flags="0x1000"/>
    </TTGlyph>
    <TTGlyph name="Icircumflex" xMin="10" yMin="0" xMax="246" yMax="844">
      <contour>
        <pt x="53" y="790" on="0"/>
        <pt x="118" y="844" on="1"/>
        <pt x="137" y="844" on="1"/>
        <pt x="210" y="786" on="0"/>
        <pt x="246" y="761" on="1"/>
        <pt x="234" y="736" on="1"/>
        <pt x="227" y="736" on="1"/>
        <pt x="152" y="786" on="0"/>
        <pt x="128" y="804" on="1"/>
        <pt x="104" y="787" on="0"/>
        <pt x="29" y="736" on="1"/>
        <pt x="22" y="736" on="1"/>
        <pt x="10" y="761" on="1"/>
      </contour>
      <contour>
        <pt x="153" y="0" on="1"/>
        <pt x="101" y="0" on="1"/>
        <pt x="104" y="194" on="1"/>
        <pt x="101" y="639" on="1"/>
        <pt x="154" y="639" on="1"/>
        <pt x="151" y="197" on="1"/>
      </contour>
    </TTGlyph>
    <TTGlyph name="Idieresis" xMin="37" yMin="0" xMax="218" yMax="818">
      <contour>
        <pt x="103" y="818" on="0"/>
        <pt x="103" y="786" on="1"/>
        <pt x="103" y="770" on="0"/>
        <pt x="85" y="752" on="0"/>
        <pt x="69" y="752" on="1"/>
        <pt x="37" y="752" on="0"/>
        <pt x="37" y="784" on="1"/>
        <pt x="37" y="800" on="0"/>
        <pt x="55" y="818" on="0"/>
        <pt x="71" y="818" on="1"/>
      </contour>
      <contour>
        <pt x="218" y="818" on="0"/>
        <pt x="218" y="786" on="1"/>
        <pt x="218" y="770" on="0"/>
        <pt x="200" y="752" on="0"/>
        <pt x="184" y="752" on="1"/>
        <pt x="152" y="752" on="0"/>
        <pt x="152" y="784" on="1"/>
        <pt x="152" y="800" on="0"/>
        <pt x="170" y="818" on="0"/>
        <pt x="186" y="818" on="1"/>
      </contour>
      <contour>
        <pt x="153" y="0" on="1"/>
        <pt x="101" y="0" on="1"/>
        <pt x="104" y="194" on="1"/>
        <pt x="101" y="639" on="1"/>
        <pt x="154" y="639" on="1"/>
        <pt x="151" y="197" on="1"/>
      </contour>
    </TTGlyph>
    <TTGlyph name="Idotaccent" xMin="94" yMin="0" xMax="161" yMax="832">
      <contour>
        <pt x="161" y="832" on="0"/>
        <pt x="161" y="799" on="1"/>
        <pt x="161" y="764" on="0"/>
        <pt x="127" y="764" on="1"/>
        <pt x="94" y="764" on="0"/>
        <pt x="94" y="797" on="1"/>
        <pt x="94" y="813" on="0"/>
        <pt x="112" y="832" on="0"/>
        <pt x="128" y="832" on="1"/>
      </contour>
      <contour>
        <pt x="153" y="0" on="1"/>
        <pt x="101" y="0" on="1"/>
        <pt x="104" y="194" on="1"/>
        <pt x="101" y="639" on="1"/>
        <pt x="154" y="639" on="1"/>
        <pt x="151" y="197" on="1"/>
      </contour>
    </TTGlyph>
    <TTGlyph name="Idotbelow" xMin="88" yMin="-146" xMax="155" yMax="639">
      <contour>
        <pt x="153" y="0" on="1"/>
        <pt x="101" y="0" on="1"/>
        <pt x="104" y="194" on="1"/>
        <pt x="101" y="639" on="1"/>
        <pt x="154" y="639" on="1"/>
        <pt x="151" y="197" on="1"/>
      </contour>
      <contour>
        <pt x="155" y="-78" on="0"/>
        <pt x="155" y="-112" on="1"/>
        <pt x="155" y="-128" on="0"/>
        <pt x="137" y="-146" on="0"/>
        <pt x="121" y="-146" on="1"/>
        <pt x="88" y="-146" on="0"/>
        <pt x="88" y="-113" on="1"/>
        <pt x="88" y="-97" on="0"/>
        <pt x="106" y="-78" on="0"/>
        <pt x="122" y="-78" on="1"/>
      </contour>
    </TTGlyph>
    <TTGlyph name="Igrave" xMin="25" yMin="0" xMax="231" yMax="853">
      <contour>
        <pt x="122" y="807" on="0"/>
        <pt x="231" y="754" on="1"/>
        <pt x="220" y="728" on="1"/>
        <pt x="212" y="725" on="1"/>
        <pt x="112" y="770" on="0"/>
        <pt x="27" y="814" on="1"/>
        <pt x="25" y="821" on="1"/>
        <pt x="39" y="851" on="1"/>
        <pt x="46" y="853" on="1"/>
      </contour>
      <contour>
        <pt x="153" y="0" on="1"/>
        <pt x="101" y="0" on="1"/>
        <pt x="104" y="194" on="1"/>
        <pt x="101" y="639" on="1"/>
        <pt x="154" y="639" on="1"/>
        <pt x="151" y="197" on="1"/>
      </contour>
    </TTGlyph>
    <TTGlyph name="Ihookabove" xMin="51" yMin="0" xMax="180" yMax="879">
      <component glyphName="I" x="0" y="0" flags="0x1000"/>
      <component glyphName="hookabove" x="-68" y="183" flags="0x1000"/>
    </TTGlyph>
    <TTGlyph name="Imacron" xMin="17" yMin="0" xMax="237" yMax="805">
      <component glyphName="I" x="0" y="0" flags="0x1000"/>
      <component glyphName="macron.i" x="-68" y="184" flags="0x1000"/>
    </TTGlyph>
    <TTGlyph name="Iogonek" xMin="34" yMin="-197" xMax="161" yMax="639">
      <contour>
        <pt x="134" y="-197" on="0"/>
        <pt x="96" y="-197" on="1"/>
        <pt x="68" y="-197" on="0"/>
        <pt x="34" y="-163" on="0"/>
        <pt x="34" y="-135" on="1"/>
        <pt x="34" y="-112" on="0"/>
        <pt x="65" y="-52" on="0"/>
        <pt x="101" y="0" on="1"/>
        <pt x="104" y="194" on="1"/>
        <pt x="101" y="639" on="1"/>
        <pt x="154" y="639" on="1"/>
        <pt x="151" y="197" on="1"/>
        <pt x="153" y="0" on="1"/>
        <pt x="137" y="0" on="1"/>
        <pt x="71" y="-96" on="0"/>
        <pt x="71" y="-128" on="1"/>
        <pt x="71" y="-159" on="0"/>
        <pt x="102" y="-159" on="1"/>
        <pt x="128" y="-159" on="0"/>
        <pt x="145" y="-126" on="1"/>
        <pt x="150" y="-126" on="1"/>
        <pt x="161" y="-158" on="1"/>
      </contour>
    </TTGlyph>
    <TTGlyph name="Itilde" xMin="-5" yMin="0" xMax="260" yMax="831">
      <component glyphName="I" x="0" y="0" flags="0x1000"/>
      <component glyphName="tilde.i" x="-67" y="184" flags="0x1000"/>
    </TTGlyph>
    <TTGlyph name="J" xMin="7" yMin="-100" xMax="190" yMax="639">
      <contour>
        <pt x="189" y="116" on="1"/>
        <pt x="189" y="43" on="0"/>
        <pt x="121" y="-54" on="0"/>
        <pt x="38" y="-100" on="1"/>
        <pt x="17" y="-71" on="1"/>
        <pt x="17" y="-63" on="1"/>
        <pt x="84" y="-23" on="0"/>
        <pt x="140" y="56" on="0"/>
        <pt x="140" y="115" on="1"/>
        <pt x="140" y="206" on="1"/>
        <pt x="138" y="595" on="1"/>
        <pt x="13" y="595" on="1"/>
        <pt x="7" y="600" on="1"/>
        <pt x="11" y="639" on="1"/>
        <pt x="190" y="639" on="1"/>
        <pt x="188" y="212" on="1"/>
      </contour>
    </TTGlyph>
    <TTGlyph name="Jcircumflex" xMin="3" yMin="-100" xMax="239" yMax="844">
      <component glyphName="J" x="0" y="0" flags="0x1000"/>
      <component glyphName="caron.cap" x="316" y="1387" scale="-1.0" flags="0x1000"/>
    </TTGlyph>
    <TTGlyph name="K" xMin="100" yMin="-8" xMax="524" yMax="639">
      <contour>
        <pt x="153" y="0" on="1"/>
        <pt x="100" y="0" on="1"/>
        <pt x="103" y="194" on="1"/>
        <pt x="100" y="639" on="1"/>
        <pt x="153" y="639" on="1"/>
        <pt x="151" y="197" on="1"/>
      </contour>
      <contour>
        <pt x="373" y="161" on="0"/>
        <pt x="524" y="11" on="1"/>
        <pt x="523" y="4" on="1"/>
        <pt x="508" y="-2" on="0"/>
        <pt x="476" y="-8" on="1"/>
        <pt x="469" y="-5" on="1"/>
        <pt x="295" y="179" on="0"/>
        <pt x="172" y="337" on="1"/>
        <pt x="172" y="341" on="1"/>
        <pt x="403" y="588" on="1"/>
        <pt x="444" y="639" on="1"/>
        <pt x="507" y="639" on="1"/>
        <pt x="230" y="340" on="1"/>
      </contour>
    </TTGlyph>
    <TTGlyph name="Kcommaaccent" xMin="100" yMin="-227" xMax="524" yMax="639">
      <contour>
        <pt x="152" y="0" on="1"/>
        <pt x="100" y="0" on="1"/>
        <pt x="103" y="194" on="1"/>
        <pt x="100" y="639" on="1"/>
        <pt x="153" y="639" on="1"/>
        <pt x="150" y="197" on="1"/>
      </contour>
      <contour>
        <pt x="373" y="161" on="0"/>
        <pt x="524" y="11" on="1"/>
        <pt x="523" y="4" on="1"/>
        <pt x="508" y="-2" on="0"/>
        <pt x="476" y="-8" on="1"/>
        <pt x="469" y="-5" on="1"/>
        <pt x="295" y="179" on="0"/>
        <pt x="172" y="337" on="1"/>
        <pt x="172" y="341" on="1"/>
        <pt x="403" y="588" on="1"/>
        <pt x="444" y="639" on="1"/>
        <pt x="507" y="639" on="1"/>
        <pt x="230" y="340" on="1"/>
      </contour>
      <contour>
        <pt x="330" y="-83" on="0"/>
        <pt x="330" y="-117" on="1"/>
        <pt x="330" y="-170" on="0"/>
        <pt x="252" y="-227" on="1"/>
        <pt x="233" y="-210" on="1"/>
        <pt x="234" y="-205" on="1"/>
        <pt x="286" y="-165" on="0"/>
        <pt x="286" y="-125" on="1"/>
        <pt x="286" y="-102" on="0"/>
        <pt x="257" y="-85" on="1"/>
        <pt x="257" y="-79" on="1"/>
        <pt x="276" y="-66" on="0"/>
        <pt x="291" y="-61" on="1"/>
      </contour>
    </TTGlyph>
    <TTGlyph name="L" xMin="99" yMin="0" xMax="404" yMax="639">
      <contour>
        <pt x="398" y="0" on="1"/>
        <pt x="99" y="0" on="1"/>
        <pt x="102" y="194" on="1"/>
        <pt x="99" y="639" on="1"/>
        <pt x="152" y="639" on="1"/>
        <pt x="149" y="197" on="1"/>
        <pt x="151" y="45" on="1"/>
        <pt x="399" y="45" on="1"/>
        <pt x="404" y="39" on="1"/>
      </contour>
    </TTGlyph>
    <TTGlyph name="L.ss01" xMin="-100" yMin="0" xMax="480" yMax="495">
      <contour>
        <pt x="144" y="43" on="1"/>
        <pt x="320" y="43" on="1"/>
        <pt x="322" y="131" on="1"/>
        <pt x="359" y="132" on="1"/>
        <pt x="358" y="28" on="1"/>
        <pt x="480" y="28" on="1"/>
        <pt x="480" y="0" on="1"/>
        <pt x="-100" y="0" on="1"/>
        <pt x="-100" y="28" on="1"/>
        <pt x="97" y="28" on="1"/>
        <pt x="99" y="164" on="1"/>
        <pt x="97" y="467" on="1"/>
        <pt x="-100" y="467" on="1"/>
        <pt x="-100" y="495" on="1"/>
        <pt x="480" y="495" on="1"/>
        <pt x="480" y="467" on="1"/>
        <pt x="146" y="467" on="1"/>
        <pt x="144" y="167" on="1"/>
      </contour>
    </TTGlyph>
    <TTGlyph name="Lacute" xMin="99" yMin="0" xMax="404" yMax="851">
      <component glyphName="L" x="0" y="0" flags="0x1000"/>
      <component glyphName="acute.cap" x="34" y="184" flags="0x1000"/>
    </TTGlyph>
    <TTGlyph name="Lcaron" xMin="99" yMin="0" xMax="404" yMax="639">
      <contour>
        <pt x="398" y="0" on="1"/>
        <pt x="99" y="0" on="1"/>
        <pt x="102" y="194" on="1"/>
        <pt x="99" y="639" on="1"/>
        <pt x="152" y="639" on="1"/>
        <pt x="149" y="197" on="1"/>
        <pt x="151" y="45" on="1"/>
        <pt x="399" y="45" on="1"/>
        <pt x="404" y="39" on="1"/>
      </contour>
      <contour>
        <pt x="317" y="418" on="1"/>
        <pt x="325" y="578" on="1"/>
        <pt x="364" y="581" on="1"/>
        <pt x="368" y="575" on="1"/>
        <pt x="350" y="417" on="1"/>
        <pt x="322" y="413" on="1"/>
      </contour>
    </TTGlyph>
    <TTGlyph name="Lcommaaccent" xMin="99" yMin="-227" xMax="404" yMax="639">
      <contour>
        <pt x="398" y="0" on="1"/>
        <pt x="99" y="0" on="1"/>
        <pt x="102" y="194" on="1"/>
        <pt x="99" y="639" on="1"/>
        <pt x="152" y="639" on="1"/>
        <pt x="149" y="197" on="1"/>
        <pt x="151" y="45" on="1"/>
        <pt x="399" y="45" on="1"/>
        <pt x="404" y="39" on="1"/>
      </contour>
      <contour>
        <pt x="284" y="-83" on="0"/>
        <pt x="284" y="-117" on="1"/>
        <pt x="284" y="-170" on="0"/>
        <pt x="206" y="-227" on="1"/>
        <pt x="187" y="-210" on="1"/>
        <pt x="188" y="-205" on="1"/>
        <pt x="240" y="-165" on="0"/>
        <pt x="240" y="-125" on="1"/>
        <pt x="240" y="-102" on="0"/>
        <pt x="211" y="-85" on="1"/>
        <pt x="211" y="-79" on="1"/>
        <pt x="230" y="-66" on="0"/>
        <pt x="245" y="-61" on="1"/>
      </contour>
    </TTGlyph>
    <TTGlyph name="Ldot" xMin="99" yMin="0" xMax="404" yMax="639">
      <component glyphName="L" x="0" y="0" flags="0x1000"/>
      <component glyphName="period" x="209" y="342" flags="0x1000"/>
    </TTGlyph>
    <TTGlyph name="Lslash" xMin="16" yMin="0" xMax="416" yMax="639">
      <contour>
        <pt x="410" y="0" on="1"/>
        <pt x="111" y="0" on="1"/>
        <pt x="114" y="194" on="1"/>
        <pt x="113" y="309" on="1"/>
        <pt x="34" y="267" on="1"/>
        <pt x="27" y="271" on="1"/>
        <pt x="16" y="304" on="1"/>
        <pt x="113" y="355" on="1"/>
        <pt x="111" y="639" on="1"/>
        <pt x="164" y="639" on="1"/>
        <pt x="162" y="381" on="1"/>
        <pt x="307" y="458" on="1"/>
        <pt x="314" y="455" on="1"/>
        <pt x="325" y="423" on="1"/>
        <pt x="162" y="336" on="1"/>
        <pt x="161" y="197" on="1"/>
        <pt x="163" y="45" on="1"/>
        <pt x="411" y="45" on="1"/>
        <pt x="416" y="39" on="1"/>
      </contour>
    </TTGlyph>
    <TTGlyph name="M" xMin="67" yMin="0" xMax="717" yMax="639">
      <contour>
        <pt x="669" y="0" on="1"/>
        <pt x="652" y="195" on="1"/>
        <pt x="613" y="549" on="1"/>
        <pt x="607" y="549" on="1"/>
        <pt x="412" y="77" on="1"/>
        <pt x="365" y="77" on="1"/>
        <pt x="177" y="549" on="1"/>
        <pt x="171" y="549" on="1"/>
        <pt x="132" y="198" on="1"/>
        <pt x="113" y="0" on="1"/>
        <pt x="67" y="0" on="1"/>
        <pt x="136" y="639" on="1"/>
        <pt x="195" y="639" on="1"/>
        <pt x="231" y="541" on="1"/>
        <pt x="388" y="146" on="1"/>
        <pt x="393" y="146" on="1"/>
        <pt x="559" y="549" on="1"/>
        <pt x="593" y="639" on="1"/>
        <pt x="652" y="639" on="1"/>
        <pt x="717" y="0" on="1"/>
      </contour>
    </TTGlyph>
    <TTGlyph name="M.ss01" xMin="-100" yMin="0" xMax="780" yMax="495">
      <contour>
        <pt x="596" y="28" on="1"/>
        <pt x="780" y="28" on="1"/>
        <pt x="780" y="0" on="1"/>
        <pt x="-100" y="0" on="1"/>
        <pt x="-100" y="28" on="1"/>
        <pt x="81" y="28" on="1"/>
        <pt x="131" y="467" on="1"/>
        <pt x="-100" y="467" on="1"/>
        <pt x="-100" y="495" on="1"/>
        <pt x="780" y="495" on="1"/>
        <pt x="780" y="467" on="1"/>
        <pt x="549" y="467" on="1"/>
      </contour>
      <contour>
        <pt x="196" y="467" on="1"/>
        <pt x="215" y="418" on="1"/>
        <pt x="335" y="144" on="1"/>
        <pt x="340" y="144" on="1"/>
        <pt x="466" y="423" on="1"/>
        <pt x="485" y="467" on="1"/>
      </contour>
      <contour>
        <pt x="541" y="161" on="1"/>
        <pt x="513" y="413" on="1"/>
        <pt x="508" y="413" on="1"/>
        <pt x="357" y="81" on="1"/>
        <pt x="315" y="81" on="1"/>
        <pt x="169" y="413" on="1"/>
        <pt x="165" y="413" on="1"/>
        <pt x="136" y="164" on="1"/>
        <pt x="123" y="28" on="1"/>
        <pt x="553" y="28" on="1"/>
      </contour>
    </TTGlyph>
    <TTGlyph name="N" xMin="101" yMin="0" xMax="576" yMax="640">
      <contour>
        <pt x="573" y="0" on="1"/>
        <pt x="520" y="0" on="1"/>
        <pt x="155" y="552" on="1"/>
        <pt x="149" y="552" on="1"/>
        <pt x="148" y="205" on="1"/>
        <pt x="150" y="0" on="1"/>
        <pt x="101" y="0" on="1"/>
        <pt x="104" y="190" on="1"/>
        <pt x="102" y="639" on="1"/>
        <pt x="156" y="639" on="1"/>
        <pt x="521" y="87" on="1"/>
        <pt x="526" y="87" on="1"/>
        <pt x="527" y="636" on="1"/>
        <pt x="576" y="640" on="1"/>
        <pt x="573" y="182" on="1"/>
      </contour>
    </TTGlyph>
    <TTGlyph name="Nacute" xMin="101" yMin="0" xMax="576" yMax="851">
      <component glyphName="N" x="0" y="0" flags="0x1000"/>
      <component glyphName="acute.cap" x="169" y="184" flags="0x1000"/>
    </TTGlyph>
    <TTGlyph name="Ncaron" xMin="101" yMin="0" xMax="576" yMax="835">
      <component glyphName="N" x="0" y="0" flags="0x1000"/>
      <component glyphName="caron.cap" x="141" y="184" flags="0x1000"/>
    </TTGlyph>
    <TTGlyph name="Ncommaaccent" xMin="101" yMin="-227" xMax="577" yMax="640">
      <contour>
        <pt x="574" y="0" on="1"/>
        <pt x="520" y="0" on="1"/>
        <pt x="155" y="552" on="1"/>
        <pt x="149" y="552" on="1"/>
        <pt x="148" y="205" on="1"/>
        <pt x="150" y="0" on="1"/>
        <pt x="101" y="0" on="1"/>
        <pt x="104" y="190" on="1"/>
        <pt x="102" y="639" on="1"/>
        <pt x="156" y="639" on="1"/>
        <pt x="521" y="87" on="1"/>
        <pt x="527" y="87" on="1"/>
        <pt x="527" y="636" on="1"/>
        <pt x="577" y="640" on="1"/>
        <pt x="573" y="182" on="1"/>
      </contour>
      <contour>
        <pt x="383" y="-83" on="0"/>
        <pt x="383" y="-117" on="1"/>
        <pt x="383" y="-170" on="0"/>
        <pt x="305" y="-227" on="1"/>
        <pt x="286" y="-210" on="1"/>
        <pt x="287" y="-205" on="1"/>
        <pt x="339" y="-165" on="0"/>
        <pt x="339" y="-125" on="1"/>
        <pt x="339" y="-102" on="0"/>
        <pt x="310" y="-85" on="1"/>
        <pt x="310" y="-79" on="1"/>
        <pt x="329" y="-66" on="0"/>
        <pt x="344" y="-61" on="1"/>
      </contour>
    </TTGlyph>
    <TTGlyph name="Ntilde" xMin="101" yMin="0" xMax="576" yMax="834">
      <component glyphName="N" x="0" y="0" flags="0x1000"/>
      <component glyphName="tilde" x="140" y="184" flags="0x1000"/>
    </TTGlyph>
    <TTGlyph name="O" xMin="43" yMin="-6" xMax="589" yMax="645">
      <contour>
        <pt x="451" y="645" on="0"/>
        <pt x="589" y="482" on="0"/>
        <pt x="589" y="331" on="1"/>
        <pt x="589" y="169" on="0"/>
        <pt x="443" y="-6" on="0"/>
        <pt x="309" y="-6" on="1"/>
        <pt x="181" y="-6" on="0"/>
        <pt x="43" y="161" on="0"/>
        <pt x="43" y="316" on="1"/>
        <pt x="43" y="474" on="0"/>
        <pt x="188" y="645" on="0"/>
        <pt x="322" y="645" on="1"/>
      </contour>
      <contour>
        <pt x="208" y="600" on="0"/>
        <pt x="95" y="458" on="0"/>
        <pt x="95" y="321" on="1"/>
        <pt x="95" y="182" on="0"/>
        <pt x="205" y="38" on="0"/>
        <pt x="312" y="38" on="1"/>
        <pt x="421" y="38" on="0"/>
        <pt x="536" y="184" on="0"/>
        <pt x="536" y="324" on="1"/>
        <pt x="536" y="460" on="0"/>
        <pt x="425" y="600" on="0"/>
        <pt x="318" y="600" on="1"/>
      </contour>
    </TTGlyph>
    <TTGlyph name="OE" xMin="43" yMin="-12" xMax="817" yMax="651">
      <contour>
        <pt x="387" y="651" on="0"/>
        <pt x="439" y="645" on="1"/>
        <pt x="491" y="639" on="0"/>
        <pt x="518" y="639" on="1"/>
        <pt x="810" y="639" on="1"/>
        <pt x="814" y="633" on="1"/>
        <pt x="809" y="592" on="1"/>
        <pt x="670" y="594" on="1"/>
        <pt x="526" y="594" on="1"/>
        <pt x="526" y="352" on="1"/>
        <pt x="643" y="351" on="1"/>
        <pt x="758" y="352" on="1"/>
        <pt x="762" y="347" on="1"/>
        <pt x="757" y="306" on="1"/>
        <pt x="525" y="307" on="1"/>
        <pt x="525" y="45" on="1"/>
        <pt x="658" y="44" on="1"/>
        <pt x="812" y="47" on="1"/>
        <pt x="817" y="41" on="1"/>
        <pt x="811" y="0" on="1"/>
        <pt x="518" y="0" on="1"/>
        <pt x="487" y="0" on="0"/>
        <pt x="429" y="-6" on="1"/>
        <pt x="371" y="-12" on="0"/>
        <pt x="344" y="-12" on="1"/>
        <pt x="200" y="-12" on="0"/>
        <pt x="43" y="161" on="0"/>
        <pt x="43" y="317" on="1"/>
        <pt x="43" y="475" on="0"/>
        <pt x="207" y="651" on="0"/>
        <pt x="357" y="651" on="1"/>
      </contour>
      <contour>
        <pt x="228" y="606" on="0"/>
        <pt x="95" y="458" on="0"/>
        <pt x="95" y="318" on="1"/>
        <pt x="95" y="180" on="0"/>
        <pt x="224" y="33" on="0"/>
        <pt x="350" y="33" on="1"/>
        <pt x="409" y="33" on="0"/>
        <pt x="451" y="43" on="1"/>
        <pt x="466" y="47" on="0"/>
        <pt x="477" y="59" on="0"/>
        <pt x="477" y="73" on="1"/>
        <pt x="474" y="559" on="1"/>
        <pt x="474" y="578" on="0"/>
        <pt x="468" y="592" on="0"/>
        <pt x="460" y="594" on="1"/>
        <pt x="448" y="598" on="0"/>
        <pt x="383" y="606" on="0"/>
        <pt x="353" y="606" on="1"/>
      </contour>
    </TTGlyph>
    <TTGlyph name="Oacute" xMin="43" yMin="-6" xMax="589" yMax="851">
      <component glyphName="O" x="0" y="0" flags="0x1000"/>
      <component glyphName="acute.cap" x="150" y="184" flags="0x1000"/>
    </TTGlyph>
    <TTGlyph name="Obreve" xMin="43" yMin="-6" xMax="589" yMax="829">
      <component glyphName="O" x="0" y="0" flags="0x1000"/>
      <component glyphName="breve.cap" x="121" y="184" flags="0x1000"/>
    </TTGlyph>
    <TTGlyph name="Ocaron" xMin="43" yMin="-6" xMax="589" yMax="835">
      <component glyphName="O" x="0" y="0" flags="0x1000"/>
      <component glyphName="caron.cap" x="122" y="184" flags="0x1000"/>
    </TTGlyph>
    <TTGlyph name="Ocircumflex" xMin="43" yMin="-6" xMax="589" yMax="844">
      <component glyphName="O" x="0" y="0" flags="0x1000"/>
      <component glyphName="caron.cap" x="512" y="1387" scale="-1.0" flags="0x1000"/>
    </TTGlyph>
    <TTGlyph name="Ocircumflexacute" xMin="43" yMin="-6" xMax="589" yMax="922">
      <component glyphName="O" x="0" y="0" flags="0x1000"/>
      <component glyphName="circumflexacute" x="121" y="184" flags="0x1000"/>
    </TTGlyph>
    <TTGlyph name="Ocircumflexdotbelow" xMin="43" yMin="-146" xMax="589" yMax="835">
      <contour>
        <pt x="254" y="781" on="0"/>
        <pt x="319" y="835" on="1"/>
        <pt x="338" y="835" on="1"/>
        <pt x="411" y="777" on="0"/>
        <pt x="447" y="752" on="1"/>
        <pt x="435" y="727" on="1"/>
        <pt x="428" y="727" on="1"/>
        <pt x="353" y="777" on="0"/>
        <pt x="329" y="795" on="1"/>
        <pt x="305" y="777" on="0"/>
        <pt x="230" y="727" on="1"/>
        <pt x="223" y="727" on="1"/>
        <pt x="211" y="752" on="1"/>
      </contour>
      <contour>
        <pt x="451" y="645" on="0"/>
        <pt x="589" y="482" on="0"/>
        <pt x="589" y="331" on="1"/>
        <pt x="589" y="168" on="0"/>
        <pt x="444" y="-6" on="0"/>
        <pt x="309" y="-6" on="1"/>
        <pt x="181" y="-6" on="0"/>
        <pt x="43" y="161" on="0"/>
        <pt x="43" y="316" on="1"/>
        <pt x="43" y="474" on="0"/>
        <pt x="188" y="645" on="0"/>
        <pt x="323" y="645" on="1"/>
      </contour>
      <contour>
        <pt x="208" y="600" on="0"/>
        <pt x="95" y="458" on="0"/>
        <pt x="95" y="321" on="1"/>
        <pt x="95" y="182" on="0"/>
        <pt x="205" y="38" on="0"/>
        <pt x="311" y="38" on="1"/>
        <pt x="421" y="38" on="0"/>
        <pt x="535" y="183" on="0"/>
        <pt x="535" y="324" on="1"/>
        <pt x="535" y="460" on="0"/>
        <pt x="425" y="600" on="0"/>
        <pt x="318" y="600" on="1"/>
      </contour>
      <contour>
        <pt x="347" y="-78" on="0"/>
        <pt x="347" y="-112" on="1"/>
        <pt x="347" y="-128" on="0"/>
        <pt x="329" y="-146" on="0"/>
        <pt x="313" y="-146" on="1"/>
        <pt x="280" y="-146" on="0"/>
        <pt x="280" y="-113" on="1"/>
        <pt x="280" y="-97" on="0"/>
        <pt x="298" y="-78" on="0"/>
        <pt x="314" y="-78" on="1"/>
      </contour>
    </TTGlyph>
    <TTGlyph name="Ocircumflexgrave" xMin="43" yMin="-6" xMax="589" yMax="922">
      <component glyphName="O" x="0" y="0" flags="0x1000"/>
      <component glyphName="circumflexgrave" x="121" y="184" flags="0x1000"/>
    </TTGlyph>
    <TTGlyph name="Ocircumflexhookabove" xMin="43" yMin="-6" xMax="589" yMax="942">
      <component glyphName="O" x="0" y="0" flags="0x1000"/>
      <component glyphName="hookabove" x="211" y="279" scale="0.951965332031" flags="0x1000"/>
      <component glyphName="circumflex.cap" x="121" y="164" flags="0x1000"/>
    </TTGlyph>
    <TTGlyph name="Ocircumflextilde" xMin="43" yMin="-6" xMax="589" yMax="934">
      <component glyphName="O" x="0" y="0" flags="0x1000"/>
      <component glyphName="tilde" x="128" y="294" scalex="0.944763183594" scaley="0.984069824219" flags="0x1000"/>
      <component glyphName="circumflex.cap" x="121" y="164" flags="0x1000"/>
    </TTGlyph>
    <TTGlyph name="Odieresis" xMin="43" yMin="-6" xMax="589" yMax="815">
      <component glyphName="O" x="0" y="0" flags="0x1000"/>
      <component glyphName="period" x="273" y="738" scale="0.977294921875" flags="0x1000"/>
      <component glyphName="dotaccent" x="123" y="181" scale="0.977294921875" flags="0x1000"/>
    </TTGlyph>
    <TTGlyph name="Odotbelow" xMin="43" yMin="-146" xMax="589" yMax="645">
      <contour>
        <pt x="451" y="645" on="0"/>
        <pt x="589" y="482" on="0"/>
        <pt x="589" y="331" on="1"/>
        <pt x="589" y="168" on="0"/>
        <pt x="444" y="-6" on="0"/>
        <pt x="309" y="-6" on="1"/>
        <pt x="181" y="-6" on="0"/>
        <pt x="43" y="161" on="0"/>
        <pt x="43" y="316" on="1"/>
        <pt x="43" y="474" on="0"/>
        <pt x="188" y="645" on="0"/>
        <pt x="323" y="645" on="1"/>
      </contour>
      <contour>
        <pt x="208" y="600" on="0"/>
        <pt x="95" y="458" on="0"/>
        <pt x="95" y="321" on="1"/>
        <pt x="95" y="182" on="0"/>
        <pt x="205" y="38" on="0"/>
        <pt x="311" y="38" on="1"/>
        <pt x="421" y="38" on="0"/>
        <pt x="535" y="183" on="0"/>
        <pt x="535" y="324" on="1"/>
        <pt x="535" y="460" on="0"/>
        <pt x="425" y="600" on="0"/>
        <pt x="318" y="600" on="1"/>
      </contour>
      <contour>
        <pt x="347" y="-78" on="0"/>
        <pt x="347" y="-112" on="1"/>
        <pt x="347" y="-128" on="0"/>
        <pt x="329" y="-146" on="0"/>
        <pt x="313" y="-146" on="1"/>
        <pt x="280" y="-146" on="0"/>
        <pt x="280" y="-113" on="1"/>
        <pt x="280" y="-97" on="0"/>
        <pt x="298" y="-78" on="0"/>
        <pt x="314" y="-78" on="1"/>
      </contour>
    </TTGlyph>
    <TTGlyph name="Ograve" xMin="43" yMin="-6" xMax="589" yMax="853">
      <component glyphName="O" x="0" y="0" flags="0x1000"/>
      <component glyphName="acute.cap" x="512" y="186" scalex="-1.0" scaley="1.0" flags="0x1000"/>
    </TTGlyph>
    <TTGlyph name="Ohm" xMin="44" yMin="-2" xMax="695" yMax="645">
      <component glyphName="Omega" x="0" y="0" flags="0x1000"/>
    </TTGlyph>
    <TTGlyph name="Ohookabove" xMin="43" yMin="-6" xMax="589" yMax="879">
      <component glyphName="O" x="0" y="0" flags="0x1000"/>
      <component glyphName="hookabove" x="121" y="183" flags="0x1000"/>
    </TTGlyph>
    <TTGlyph name="Ohorn" xMin="43" yMin="-6" xMax="615" yMax="759">
      <contour>
        <pt x="584" y="759" on="0"/>
        <pt x="615" y="710" on="0"/>
        <pt x="615" y="677" on="1"/>
        <pt x="615" y="631" on="0"/>
        <pt x="550" y="580" on="0"/>
        <pt x="499" y="580" on="1"/>
        <pt x="589" y="499" on="0"/>
        <pt x="589" y="327" on="1"/>
        <pt x="589" y="169" on="0"/>
        <pt x="443" y="-6" on="0"/>
        <pt x="310" y="-6" on="1"/>
        <pt x="181" y="-6" on="0"/>
        <pt x="43" y="161" on="0"/>
        <pt x="43" y="316" on="1"/>
        <pt x="43" y="474" on="0"/>
        <pt x="187" y="645" on="0"/>
        <pt x="321" y="645" on="1"/>
        <pt x="379" y="645" on="0"/>
        <pt x="438" y="622" on="1"/>
        <pt x="475" y="609" on="0"/>
        <pt x="495" y="609" on="1"/>
        <pt x="527" y="609" on="0"/>
        <pt x="572" y="643" on="0"/>
        <pt x="572" y="672" on="1"/>
        <pt x="572" y="709" on="0"/>
        <pt x="539" y="742" on="1"/>
        <pt x="541" y="748" on="1"/>
        <pt x="557" y="759" on="0"/>
        <pt x="568" y="759" on="1"/>
      </contour>
      <contour>
        <pt x="208" y="600" on="0"/>
        <pt x="95" y="458" on="0"/>
        <pt x="95" y="321" on="1"/>
        <pt x="95" y="182" on="0"/>
        <pt x="205" y="38" on="0"/>
        <pt x="312" y="38" on="1"/>
        <pt x="421" y="38" on="0"/>
        <pt x="536" y="183" on="0"/>
        <pt x="536" y="322" on="1"/>
        <pt x="536" y="600" on="0"/>
        <pt x="318" y="600" on="1"/>
      </contour>
    </TTGlyph>
    <TTGlyph name="Ohornacute" xMin="43" yMin="-6" xMax="615" yMax="851">
      <component glyphName="Ohorn" x="0" y="0" flags="0x1000"/>
      <component glyphName="acute.cap" x="150" y="184" flags="0x1000"/>
    </TTGlyph>
    <TTGlyph name="Ohorndotbelow" xMin="43" yMin="-146" xMax="616" yMax="759">
      <contour>
        <pt x="578" y="759" on="0"/>
        <pt x="600" y="737" on="0"/>
        <pt x="616" y="699" on="0"/>
        <pt x="616" y="677" on="1"/>
        <pt x="616" y="631" on="0"/>
        <pt x="550" y="580" on="0"/>
        <pt x="499" y="580" on="1"/>
        <pt x="589" y="499" on="0"/>
        <pt x="589" y="327" on="1"/>
        <pt x="589" y="169" on="0"/>
        <pt x="444" y="-6" on="0"/>
        <pt x="310" y="-6" on="1"/>
        <pt x="181" y="-6" on="0"/>
        <pt x="43" y="161" on="0"/>
        <pt x="43" y="316" on="1"/>
        <pt x="43" y="474" on="0"/>
        <pt x="188" y="645" on="0"/>
        <pt x="322" y="645" on="1"/>
        <pt x="376" y="645" on="0"/>
        <pt x="438" y="623" on="1"/>
        <pt x="473" y="609" on="0"/>
        <pt x="495" y="609" on="1"/>
        <pt x="527" y="609" on="0"/>
        <pt x="573" y="643" on="0"/>
        <pt x="573" y="672" on="1"/>
        <pt x="573" y="708" on="0"/>
        <pt x="539" y="742" on="1"/>
        <pt x="541" y="748" on="1"/>
        <pt x="557" y="759" on="0"/>
        <pt x="568" y="759" on="1"/>
      </contour>
      <contour>
        <pt x="208" y="600" on="0"/>
        <pt x="95" y="458" on="0"/>
        <pt x="95" y="321" on="1"/>
        <pt x="95" y="182" on="0"/>
        <pt x="205" y="38" on="0"/>
        <pt x="312" y="38" on="1"/>
        <pt x="421" y="38" on="0"/>
        <pt x="535" y="183" on="0"/>
        <pt x="535" y="322" on="1"/>
        <pt x="535" y="600" on="0"/>
        <pt x="317" y="600" on="1"/>
      </contour>
      <contour>
        <pt x="347" y="-78" on="0"/>
        <pt x="347" y="-112" on="1"/>
        <pt x="347" y="-128" on="0"/>
        <pt x="329" y="-146" on="0"/>
        <pt x="313" y="-146" on="1"/>
        <pt x="280" y="-146" on="0"/>
        <pt x="280" y="-113" on="1"/>
        <pt x="280" y="-97" on="0"/>
        <pt x="298" y="-78" on="0"/>
        <pt x="314" y="-78" on="1"/>
      </contour>
    </TTGlyph>
    <TTGlyph name="Ohorngrave" xMin="43" yMin="-6" xMax="615" yMax="853">
      <component glyphName="Ohorn" x="0" y="0" flags="0x1000"/>
      <component glyphName="acute.cap" x="512" y="186" scalex="-1.0" scaley="1.0" flags="0x1000"/>
    </TTGlyph>
    <TTGlyph name="Ohornhookabove" xMin="43" yMin="-6" xMax="615" yMax="879">
      <component glyphName="Ohorn" x="0" y="0" flags="0x1000"/>
      <component glyphName="hookabove" x="121" y="183" flags="0x1000"/>
    </TTGlyph>
    <TTGlyph name="Ohorntilde" xMin="43" yMin="-6" xMax="615" yMax="834">
      <component glyphName="Ohorn" x="0" y="0" flags="0x1000"/>
      <component glyphName="tilde" x="121" y="184" flags="0x1000"/>
    </TTGlyph>
    <TTGlyph name="Ohungarumlaut" xMin="43" yMin="-6" xMax="589" yMax="853">
      <component glyphName="O" x="0" y="0" flags="0x1000"/>
      <component glyphName="hungarumlaut.cap" x="148" y="184" flags="0x1000"/>
    </TTGlyph>
    <TTGlyph name="Omacron" xMin="43" yMin="-6" xMax="589" yMax="805">
      <component glyphName="O" x="0" y="0" flags="0x1000"/>
      <component glyphName="macron" x="121" y="184" flags="0x1000"/>
    </TTGlyph>
    <TTGlyph name="Omega" xMin="44" yMin="-2" xMax="695" yMax="645">
      <contour>
        <pt x="505" y="645" on="0"/>
        <pt x="644" y="488" on="0"/>
        <pt x="644" y="358" on="1"/>
        <pt x="644" y="265" on="0"/>
        <pt x="568" y="101" on="0"/>
        <pt x="497" y="46" on="1"/>
        <pt x="498" y="42" on="1"/>
        <pt x="611" y="42" on="1"/>
        <pt x="691" y="47" on="1"/>
        <pt x="695" y="42" on="1"/>
        <pt x="688" y="-2" on="1"/>
        <pt x="596" y="0" on="1"/>
        <pt x="469" y="0" on="1"/>
        <pt x="430" y="-1" on="1"/>
        <pt x="427" y="1" on="1"/>
        <pt x="427" y="43" on="1"/>
        <pt x="505" y="95" on="0"/>
        <pt x="591" y="261" on="0"/>
        <pt x="591" y="355" on="1"/>
        <pt x="591" y="468" on="0"/>
        <pt x="477" y="601" on="0"/>
        <pt x="370" y="601" on="1"/>
        <pt x="263" y="601" on="0"/>
        <pt x="148" y="468" on="0"/>
        <pt x="148" y="355" on="1"/>
        <pt x="148" y="260" on="0"/>
        <pt x="233" y="94" on="0"/>
        <pt x="311" y="43" on="1"/>
        <pt x="311" y="1" on="1"/>
        <pt x="308" y="-1" on="1"/>
        <pt x="269" y="0" on="1"/>
        <pt x="132" y="0" on="1"/>
        <pt x="48" y="-2" on="1"/>
        <pt x="44" y="3" on="1"/>
        <pt x="51" y="46" on="1"/>
        <pt x="136" y="42" on="1"/>
        <pt x="240" y="42" on="1"/>
        <pt x="241" y="46" on="1"/>
        <pt x="170" y="99" on="0"/>
        <pt x="95" y="259" on="0"/>
        <pt x="95" y="351" on="1"/>
        <pt x="95" y="438" on="0"/>
        <pt x="159" y="571" on="0"/>
        <pt x="285" y="645" on="0"/>
        <pt x="374" y="645" on="1"/>
      </contour>
    </TTGlyph>
    <TTGlyph name="Oogonek" xMin="43" yMin="-197" xMax="589" yMax="645">
      <contour>
        <pt x="350" y="-94" on="0"/>
        <pt x="350" y="-117" on="1"/>
        <pt x="350" y="-136" on="0"/>
        <pt x="372" y="-159" on="0"/>
        <pt x="392" y="-159" on="1"/>
        <pt x="430" y="-159" on="0"/>
        <pt x="467" y="-114" on="1"/>
        <pt x="470" y="-114" on="1"/>
        <pt x="481" y="-142" on="1"/>
        <pt x="435" y="-197" on="0"/>
        <pt x="386" y="-197" on="1"/>
        <pt x="353" y="-197" on="0"/>
        <pt x="313" y="-157" on="0"/>
        <pt x="313" y="-124" on="1"/>
        <pt x="313" y="-89" on="0"/>
        <pt x="336" y="-57" on="1"/>
        <pt x="375" y="0" on="1"/>
        <pt x="344" y="-6" on="0"/>
        <pt x="309" y="-6" on="1"/>
        <pt x="181" y="-6" on="0"/>
        <pt x="43" y="161" on="0"/>
        <pt x="43" y="316" on="1"/>
        <pt x="43" y="474" on="0"/>
        <pt x="188" y="645" on="0"/>
        <pt x="323" y="645" on="1"/>
        <pt x="451" y="645" on="0"/>
        <pt x="589" y="482" on="0"/>
        <pt x="589" y="331" on="1"/>
        <pt x="589" y="206" on="0"/>
        <pt x="503" y="44" on="0"/>
        <pt x="420" y="13" on="1"/>
        <pt x="369" y="-65" on="1"/>
      </contour>
      <contour>
        <pt x="95" y="182" on="0"/>
        <pt x="205" y="38" on="0"/>
        <pt x="311" y="38" on="1"/>
        <pt x="421" y="38" on="0"/>
        <pt x="535" y="183" on="0"/>
        <pt x="535" y="324" on="1"/>
        <pt x="535" y="460" on="0"/>
        <pt x="425" y="600" on="0"/>
        <pt x="318" y="600" on="1"/>
        <pt x="208" y="600" on="0"/>
        <pt x="95" y="458" on="0"/>
        <pt x="95" y="321" on="1"/>
      </contour>
    </TTGlyph>
    <TTGlyph name="Oslash" xMin="43" yMin="-95" xMax="589" yMax="717">
      <contour>
        <pt x="589" y="534" on="0"/>
        <pt x="589" y="331" on="1"/>
        <pt x="589" y="168" on="0"/>
        <pt x="444" y="-6" on="0"/>
        <pt x="309" y="-6" on="1"/>
        <pt x="244" y="-6" on="0"/>
        <pt x="192" y="17" on="1"/>
        <pt x="140" y="-95" on="1"/>
        <pt x="107" y="-84" on="1"/>
        <pt x="104" y="-79" on="1"/>
        <pt x="157" y="36" on="1"/>
        <pt x="43" y="115" on="0"/>
        <pt x="43" y="316" on="1"/>
        <pt x="43" y="474" on="0"/>
        <pt x="188" y="645" on="0"/>
        <pt x="323" y="645" on="1"/>
        <pt x="384" y="645" on="0"/>
        <pt x="431" y="626" on="1"/>
        <pt x="473" y="717" on="1"/>
        <pt x="506" y="706" on="1"/>
        <pt x="510" y="699" on="1"/>
        <pt x="468" y="608" on="1"/>
      </contour>
      <contour>
        <pt x="95" y="149" on="0"/>
        <pt x="178" y="81" on="1"/>
        <pt x="411" y="583" on="1"/>
        <pt x="369" y="600" on="0"/>
        <pt x="318" y="600" on="1"/>
        <pt x="208" y="600" on="0"/>
        <pt x="95" y="458" on="0"/>
        <pt x="95" y="321" on="1"/>
      </contour>
      <contour>
        <pt x="421" y="38" on="0"/>
        <pt x="535" y="183" on="0"/>
        <pt x="535" y="324" on="1"/>
        <pt x="535" y="498" on="0"/>
        <pt x="446" y="563" on="1"/>
        <pt x="212" y="59" on="1"/>
        <pt x="254" y="38" on="0"/>
        <pt x="311" y="38" on="1"/>
      </contour>
    </TTGlyph>
    <TTGlyph name="Oslashacute" xMin="43" yMin="-95" xMax="589" yMax="851">
      <component glyphName="Oslash" x="0" y="0" flags="0x1000"/>
      <component glyphName="acute.cap" x="148" y="184" flags="0x1000"/>
    </TTGlyph>
    <TTGlyph name="Otilde" xMin="43" yMin="-6" xMax="589" yMax="834">
      <component glyphName="O" x="0" y="0" flags="0x1000"/>
      <component glyphName="tilde" x="121" y="184" flags="0x1000"/>
    </TTGlyph>
    <TTGlyph name="P" xMin="101" yMin="0" xMax="460" yMax="640">
      <contour>
        <pt x="362" y="640" on="0"/>
        <pt x="460" y="545" on="0"/>
        <pt x="460" y="457" on="1"/>
        <pt x="460" y="353" on="0"/>
        <pt x="341" y="236" on="0"/>
        <pt x="233" y="236" on="1"/>
        <pt x="151" y="236" on="1"/>
        <pt x="151" y="197" on="1"/>
        <pt x="153" y="0" on="1"/>
        <pt x="101" y="0" on="1"/>
        <pt x="104" y="194" on="1"/>
        <pt x="101" y="639" on="1"/>
        <pt x="271" y="640" on="1"/>
      </contour>
      <contour>
        <pt x="333" y="289" on="0"/>
        <pt x="407" y="379" on="0"/>
        <pt x="407" y="453" on="1"/>
        <pt x="407" y="591" on="0"/>
        <pt x="265" y="596" on="1"/>
        <pt x="154" y="594" on="1"/>
        <pt x="152" y="282" on="1"/>
        <pt x="263" y="280" on="1"/>
      </contour>
    </TTGlyph>
    <TTGlyph name="Q" xMin="43" yMin="-187" xMax="731" yMax="645">
      <contour>
        <pt x="718" y="-177" on="0"/>
        <pt x="708" y="-186" on="1"/>
        <pt x="702" y="-187" on="1"/>
        <pt x="499" y="-148" on="0"/>
        <pt x="335" y="-5" on="1"/>
        <pt x="310" y="-6" on="1"/>
        <pt x="181" y="-6" on="0"/>
        <pt x="43" y="161" on="0"/>
        <pt x="43" y="316" on="1"/>
        <pt x="43" y="474" on="0"/>
        <pt x="188" y="645" on="0"/>
        <pt x="322" y="645" on="1"/>
        <pt x="451" y="645" on="0"/>
        <pt x="589" y="482" on="0"/>
        <pt x="589" y="329" on="1"/>
        <pt x="589" y="193" on="0"/>
        <pt x="484" y="25" on="0"/>
        <pt x="386" y="2" on="1"/>
        <pt x="538" y="-115" on="0"/>
        <pt x="729" y="-145" on="1"/>
        <pt x="731" y="-153" on="1"/>
      </contour>
      <contour>
        <pt x="95" y="181" on="0"/>
        <pt x="206" y="38" on="0"/>
        <pt x="313" y="38" on="1"/>
        <pt x="421" y="38" on="0"/>
        <pt x="536" y="185" on="0"/>
        <pt x="536" y="326" on="1"/>
        <pt x="536" y="461" on="0"/>
        <pt x="425" y="600" on="0"/>
        <pt x="318" y="600" on="1"/>
        <pt x="208" y="600" on="0"/>
        <pt x="95" y="458" on="0"/>
        <pt x="95" y="319" on="1"/>
      </contour>
    </TTGlyph>
    <TTGlyph name="R" xMin="101" yMin="-8" xMax="494" yMax="640">
      <contour>
        <pt x="396" y="141" on="0"/>
        <pt x="494" y="12" on="1"/>
        <pt x="494" y="5" on="1"/>
        <pt x="478" y="-3" on="0"/>
        <pt x="449" y="-8" on="1"/>
        <pt x="441" y="-4" on="1"/>
        <pt x="344" y="135" on="0"/>
        <pt x="277" y="250" on="1"/>
        <pt x="151" y="250" on="1"/>
        <pt x="151" y="197" on="1"/>
        <pt x="153" y="0" on="1"/>
        <pt x="101" y="0" on="1"/>
        <pt x="104" y="194" on="1"/>
        <pt x="101" y="639" on="1"/>
        <pt x="271" y="640" on="1"/>
        <pt x="362" y="640" on="0"/>
        <pt x="460" y="548" on="0"/>
        <pt x="460" y="461" on="1"/>
        <pt x="460" y="391" on="0"/>
        <pt x="388" y="288" on="0"/>
        <pt x="321" y="262" on="1"/>
      </contour>
      <contour>
        <pt x="282" y="294" on="1"/>
        <pt x="407" y="328" on="0"/>
        <pt x="407" y="458" on="1"/>
        <pt x="407" y="591" on="0"/>
        <pt x="265" y="596" on="1"/>
        <pt x="154" y="594" on="1"/>
        <pt x="152" y="296" on="1"/>
      </contour>
    </TTGlyph>
    <TTGlyph name="Racute" xMin="101" yMin="-8" xMax="494" yMax="868">
      <component glyphName="R" x="0" y="0" flags="0x1000"/>
      <component glyphName="acute" x="103" y="184" flags="0x1000"/>
    </TTGlyph>
    <TTGlyph name="Rcaron" xMin="101" yMin="-8" xMax="494" yMax="858">
      <component glyphName="R" x="0" y="0" flags="0x1000"/>
      <component glyphName="caron" x="75" y="184" flags="0x1000"/>
    </TTGlyph>
    <TTGlyph name="Rcommaaccent" xMin="101" yMin="-227" xMax="495" yMax="640">
      <contour>
        <pt x="399" y="138" on="0"/>
        <pt x="495" y="12" on="1"/>
        <pt x="494" y="5" on="1"/>
        <pt x="479" y="-2" on="0"/>
        <pt x="449" y="-8" on="1"/>
        <pt x="441" y="-4" on="1"/>
        <pt x="344" y="135" on="0"/>
        <pt x="277" y="250" on="1"/>
        <pt x="151" y="250" on="1"/>
        <pt x="151" y="197" on="1"/>
        <pt x="153" y="0" on="1"/>
        <pt x="101" y="0" on="1"/>
        <pt x="104" y="194" on="1"/>
        <pt x="101" y="639" on="1"/>
        <pt x="271" y="640" on="1"/>
        <pt x="362" y="640" on="0"/>
        <pt x="460" y="548" on="0"/>
        <pt x="460" y="461" on="1"/>
        <pt x="460" y="391" on="0"/>
        <pt x="388" y="288" on="0"/>
        <pt x="322" y="262" on="1"/>
      </contour>
      <contour>
        <pt x="282" y="294" on="1"/>
        <pt x="407" y="328" on="0"/>
        <pt x="407" y="458" on="1"/>
        <pt x="407" y="591" on="0"/>
        <pt x="264" y="596" on="1"/>
        <pt x="154" y="594" on="1"/>
        <pt x="152" y="296" on="1"/>
      </contour>
      <contour>
        <pt x="318" y="-83" on="0"/>
        <pt x="318" y="-117" on="1"/>
        <pt x="318" y="-170" on="0"/>
        <pt x="240" y="-227" on="1"/>
        <pt x="221" y="-210" on="1"/>
        <pt x="222" y="-205" on="1"/>
        <pt x="274" y="-165" on="0"/>
        <pt x="274" y="-125" on="1"/>
        <pt x="274" y="-102" on="0"/>
        <pt x="245" y="-85" on="1"/>
        <pt x="245" y="-79" on="1"/>
        <pt x="264" y="-66" on="0"/>
        <pt x="279" y="-61" on="1"/>
      </contour>
    </TTGlyph>
    <TTGlyph name="S" xMin="47" yMin="-5" xMax="411" yMax="643">
      <contour>
        <pt x="323" y="643" on="0"/>
        <pt x="390" y="613" on="1"/>
        <pt x="381" y="565" on="1"/>
        <pt x="371" y="562" on="1"/>
        <pt x="313" y="599" on="0"/>
        <pt x="251" y="599" on="1"/>
        <pt x="209" y="599" on="0"/>
        <pt x="146" y="564" on="0"/>
        <pt x="113" y="508" on="0"/>
        <pt x="113" y="479" on="1"/>
        <pt x="113" y="448" on="0"/>
        <pt x="149" y="402" on="0"/>
        <pt x="202" y="369" on="0"/>
        <pt x="247" y="348" on="1"/>
        <pt x="300" y="322" on="0"/>
        <pt x="365" y="281" on="0"/>
        <pt x="411" y="216" on="0"/>
        <pt x="411" y="170" on="1"/>
        <pt x="411" y="123" on="0"/>
        <pt x="360" y="42" on="0"/>
        <pt x="267" y="-5" on="0"/>
        <pt x="209" y="-5" on="1"/>
        <pt x="119" y="-5" on="0"/>
        <pt x="47" y="40" on="1"/>
        <pt x="53" y="93" on="1"/>
        <pt x="60" y="96" on="1"/>
        <pt x="93" y="67" on="0"/>
        <pt x="175" y="38" on="0"/>
        <pt x="213" y="38" on="1"/>
        <pt x="257" y="38" on="0"/>
        <pt x="323" y="74" on="0"/>
        <pt x="359" y="132" on="0"/>
        <pt x="359" y="164" on="1"/>
        <pt x="359" y="197" on="0"/>
        <pt x="322" y="246" on="0"/>
        <pt x="269" y="278" on="0"/>
        <pt x="222" y="301" on="1"/>
        <pt x="170" y="326" on="0"/>
        <pt x="106" y="366" on="0"/>
        <pt x="62" y="430" on="0"/>
        <pt x="62" y="475" on="1"/>
        <pt x="62" y="521" on="0"/>
        <pt x="111" y="598" on="0"/>
        <pt x="200" y="643" on="0"/>
        <pt x="257" y="643" on="1"/>
      </contour>
    </TTGlyph>
    <TTGlyph name="Sacute" xMin="47" yMin="-5" xMax="411" yMax="868">
      <component glyphName="S" x="0" y="0" flags="0x1000"/>
      <component glyphName="acute" x="75" y="184" flags="0x1000"/>
    </TTGlyph>
    <TTGlyph name="Scaron" xMin="47" yMin="-5" xMax="411" yMax="858">
      <component glyphName="S" x="0" y="0" flags="0x1000"/>
      <component glyphName="caron" x="46" y="184" flags="0x1000"/>
    </TTGlyph>
    <TTGlyph name="Scedilla" xMin="47" yMin="-186" xMax="411" yMax="643">
      <contour>
        <pt x="411" y="105" on="0"/>
        <pt x="317" y="7" on="0"/>
        <pt x="242" y="-3" on="1"/>
        <pt x="227" y="-53" on="1"/>
        <pt x="259" y="-73" on="1"/>
        <pt x="295" y="-94" on="0"/>
        <pt x="295" y="-126" on="1"/>
        <pt x="295" y="-153" on="0"/>
        <pt x="254" y="-186" on="0"/>
        <pt x="224" y="-186" on="1"/>
        <pt x="184" y="-186" on="0"/>
        <pt x="158" y="-154" on="1"/>
        <pt x="165" y="-125" on="1"/>
        <pt x="169" y="-124" on="1"/>
        <pt x="195" y="-155" on="0"/>
        <pt x="222" y="-155" on="1"/>
        <pt x="238" y="-155" on="0"/>
        <pt x="258" y="-139" on="0"/>
        <pt x="258" y="-125" on="1"/>
        <pt x="258" y="-109" on="0"/>
        <pt x="235" y="-96" on="1"/>
        <pt x="189" y="-68" on="1"/>
        <pt x="208" y="-5" on="1"/>
        <pt x="118" y="-5" on="0"/>
        <pt x="47" y="40" on="1"/>
        <pt x="53" y="93" on="1"/>
        <pt x="61" y="96" on="1"/>
        <pt x="94" y="67" on="0"/>
        <pt x="175" y="38" on="0"/>
        <pt x="213" y="38" on="1"/>
        <pt x="257" y="38" on="0"/>
        <pt x="324" y="74" on="0"/>
        <pt x="360" y="132" on="0"/>
        <pt x="360" y="164" on="1"/>
        <pt x="360" y="197" on="0"/>
        <pt x="323" y="246" on="0"/>
        <pt x="270" y="278" on="0"/>
        <pt x="223" y="301" on="1"/>
        <pt x="171" y="326" on="0"/>
        <pt x="107" y="366" on="0"/>
        <pt x="62" y="430" on="0"/>
        <pt x="62" y="475" on="1"/>
        <pt x="62" y="521" on="0"/>
        <pt x="111" y="598" on="0"/>
        <pt x="200" y="643" on="0"/>
        <pt x="257" y="643" on="1"/>
        <pt x="325" y="643" on="0"/>
        <pt x="390" y="613" on="1"/>
        <pt x="382" y="565" on="1"/>
        <pt x="371" y="562" on="1"/>
        <pt x="313" y="599" on="0"/>
        <pt x="251" y="599" on="1"/>
        <pt x="209" y="599" on="0"/>
        <pt x="146" y="564" on="0"/>
        <pt x="113" y="508" on="0"/>
        <pt x="113" y="479" on="1"/>
        <pt x="113" y="448" on="0"/>
        <pt x="149" y="402" on="0"/>
        <pt x="202" y="369" on="0"/>
        <pt x="247" y="348" on="1"/>
        <pt x="300" y="322" on="0"/>
        <pt x="365" y="281" on="0"/>
        <pt x="411" y="216" on="0"/>
        <pt x="411" y="170" on="1"/>
      </contour>
    </TTGlyph>
    <TTGlyph name="Scircumflex" xMin="47" yMin="-5" xMax="411" yMax="858">
      <contour>
        <pt x="170" y="782" on="0"/>
        <pt x="231" y="858" on="1"/>
        <pt x="252" y="858" on="1"/>
        <pt x="316" y="778" on="0"/>
        <pt x="364" y="728" on="1"/>
        <pt x="348" y="705" on="1"/>
        <pt x="341" y="705" on="1"/>
        <pt x="285" y="763" on="0"/>
        <pt x="241" y="815" on="1"/>
        <pt x="191" y="755" on="0"/>
        <pt x="142" y="705" on="1"/>
        <pt x="135" y="705" on="1"/>
        <pt x="119" y="728" on="1"/>
      </contour>
      <contour>
        <pt x="325" y="643" on="0"/>
        <pt x="390" y="613" on="1"/>
        <pt x="382" y="565" on="1"/>
        <pt x="371" y="562" on="1"/>
        <pt x="313" y="599" on="0"/>
        <pt x="251" y="599" on="1"/>
        <pt x="209" y="599" on="0"/>
        <pt x="146" y="564" on="0"/>
        <pt x="113" y="508" on="0"/>
        <pt x="113" y="479" on="1"/>
        <pt x="113" y="448" on="0"/>
        <pt x="149" y="402" on="0"/>
        <pt x="202" y="369" on="0"/>
        <pt x="247" y="348" on="1"/>
        <pt x="300" y="322" on="0"/>
        <pt x="365" y="281" on="0"/>
        <pt x="411" y="216" on="0"/>
        <pt x="411" y="170" on="1"/>
        <pt x="411" y="123" on="0"/>
        <pt x="360" y="42" on="0"/>
        <pt x="268" y="-5" on="0"/>
        <pt x="210" y="-5" on="1"/>
        <pt x="119" y="-5" on="0"/>
        <pt x="47" y="40" on="1"/>
        <pt x="53" y="93" on="1"/>
        <pt x="61" y="96" on="1"/>
        <pt x="94" y="67" on="0"/>
        <pt x="175" y="38" on="0"/>
        <pt x="213" y="38" on="1"/>
        <pt x="257" y="38" on="0"/>
        <pt x="324" y="74" on="0"/>
        <pt x="360" y="132" on="0"/>
        <pt x="360" y="164" on="1"/>
        <pt x="360" y="197" on="0"/>
        <pt x="323" y="246" on="0"/>
        <pt x="270" y="278" on="0"/>
        <pt x="223" y="301" on="1"/>
        <pt x="171" y="326" on="0"/>
        <pt x="107" y="366" on="0"/>
        <pt x="62" y="430" on="0"/>
        <pt x="62" y="475" on="1"/>
        <pt x="62" y="521" on="0"/>
        <pt x="111" y="598" on="0"/>
        <pt x="200" y="643" on="0"/>
        <pt x="257" y="643" on="1"/>
      </contour>
    </TTGlyph>
    <TTGlyph name="Scommaaccent" xMin="47" yMin="-227" xMax="411" yMax="643">
      <contour>
        <pt x="325" y="643" on="0"/>
        <pt x="390" y="613" on="1"/>
        <pt x="382" y="565" on="1"/>
        <pt x="371" y="562" on="1"/>
        <pt x="313" y="599" on="0"/>
        <pt x="251" y="599" on="1"/>
        <pt x="209" y="599" on="0"/>
        <pt x="146" y="564" on="0"/>
        <pt x="113" y="508" on="0"/>
        <pt x="113" y="479" on="1"/>
        <pt x="113" y="448" on="0"/>
        <pt x="149" y="402" on="0"/>
        <pt x="202" y="369" on="0"/>
        <pt x="247" y="348" on="1"/>
        <pt x="300" y="322" on="0"/>
        <pt x="365" y="281" on="0"/>
        <pt x="411" y="216" on="0"/>
        <pt x="411" y="170" on="1"/>
        <pt x="411" y="123" on="0"/>
        <pt x="360" y="42" on="0"/>
        <pt x="268" y="-5" on="0"/>
        <pt x="210" y="-5" on="1"/>
        <pt x="119" y="-5" on="0"/>
        <pt x="47" y="40" on="1"/>
        <pt x="53" y="93" on="1"/>
        <pt x="61" y="96" on="1"/>
        <pt x="94" y="67" on="0"/>
        <pt x="175" y="38" on="0"/>
        <pt x="213" y="38" on="1"/>
        <pt x="257" y="38" on="0"/>
        <pt x="324" y="74" on="0"/>
        <pt x="360" y="132" on="0"/>
        <pt x="360" y="164" on="1"/>
        <pt x="360" y="197" on="0"/>
        <pt x="323" y="246" on="0"/>
        <pt x="270" y="278" on="0"/>
        <pt x="223" y="301" on="1"/>
        <pt x="171" y="326" on="0"/>
        <pt x="107" y="366" on="0"/>
        <pt x="62" y="430" on="0"/>
        <pt x="62" y="475" on="1"/>
        <pt x="62" y="521" on="0"/>
        <pt x="111" y="598" on="0"/>
        <pt x="200" y="643" on="0"/>
        <pt x="257" y="643" on="1"/>
      </contour>
      <contour>
        <pt x="271" y="-83" on="0"/>
        <pt x="271" y="-117" on="1"/>
        <pt x="271" y="-170" on="0"/>
        <pt x="193" y="-227" on="1"/>
        <pt x="174" y="-210" on="1"/>
        <pt x="175" y="-205" on="1"/>
        <pt x="227" y="-165" on="0"/>
        <pt x="227" y="-125" on="1"/>
        <pt x="227" y="-102" on="0"/>
        <pt x="198" y="-85" on="1"/>
        <pt x="198" y="-79" on="1"/>
        <pt x="217" y="-66" on="0"/>
        <pt x="232" y="-61" on="1"/>
      </contour>
    </TTGlyph>
    <TTGlyph name="T" xMin="25" yMin="0" xMax="459" yMax="639">
      <contour>
        <pt x="454" y="593" on="1"/>
        <pt x="347" y="596" on="1"/>
        <pt x="269" y="596" on="1"/>
        <pt x="266" y="197" on="1"/>
        <pt x="268" y="0" on="1"/>
        <pt x="216" y="0" on="1"/>
        <pt x="219" y="194" on="1"/>
        <pt x="216" y="596" on="1"/>
        <pt x="138" y="596" on="1"/>
        <pt x="29" y="593" on="1"/>
        <pt x="25" y="599" on="1"/>
        <pt x="30" y="639" on="1"/>
        <pt x="454" y="639" on="1"/>
        <pt x="459" y="633" on="1"/>
      </contour>
    </TTGlyph>
    <TTGlyph name="Tbar" xMin="25" yMin="0" xMax="459" yMax="639">
      <contour>
        <pt x="267" y="348" on="1"/>
        <pt x="371" y="348" on="1"/>
        <pt x="376" y="343" on="1"/>
        <pt x="373" y="312" on="1"/>
        <pt x="267" y="312" on="1"/>
        <pt x="266" y="197" on="1"/>
        <pt x="268" y="0" on="1"/>
        <pt x="216" y="0" on="1"/>
        <pt x="219" y="194" on="1"/>
        <pt x="218" y="312" on="1"/>
        <pt x="121" y="312" on="1"/>
        <pt x="117" y="316" on="1"/>
        <pt x="120" y="348" on="1"/>
        <pt x="218" y="348" on="1"/>
        <pt x="216" y="596" on="1"/>
        <pt x="139" y="596" on="1"/>
        <pt x="29" y="593" on="1"/>
        <pt x="25" y="599" on="1"/>
        <pt x="30" y="639" on="1"/>
        <pt x="455" y="639" on="1"/>
        <pt x="459" y="633" on="1"/>
        <pt x="454" y="593" on="1"/>
        <pt x="347" y="596" on="1"/>
        <pt x="269" y="596" on="1"/>
      </contour>
    </TTGlyph>
    <TTGlyph name="Tcaron" xMin="25" yMin="0" xMax="459" yMax="858">
      <component glyphName="T" x="0" y="0" flags="0x1000"/>
      <component glyphName="caron" x="51" y="184" flags="0x1000"/>
    </TTGlyph>
    <TTGlyph name="Tcedilla" xMin="25" yMin="-186" xMax="459" yMax="639">
      <contour>
        <pt x="454" y="593" on="1"/>
        <pt x="347" y="596" on="1"/>
        <pt x="269" y="596" on="1"/>
        <pt x="266" y="197" on="1"/>
        <pt x="268" y="0" on="1"/>
        <pt x="256" y="0" on="1"/>
        <pt x="240" y="-53" on="1"/>
        <pt x="272" y="-73" on="1"/>
        <pt x="308" y="-94" on="0"/>
        <pt x="308" y="-126" on="1"/>
        <pt x="308" y="-153" on="0"/>
        <pt x="267" y="-186" on="0"/>
        <pt x="237" y="-186" on="1"/>
        <pt x="197" y="-186" on="0"/>
        <pt x="171" y="-154" on="1"/>
        <pt x="178" y="-125" on="1"/>
        <pt x="182" y="-124" on="1"/>
        <pt x="208" y="-155" on="0"/>
        <pt x="235" y="-155" on="1"/>
        <pt x="251" y="-155" on="0"/>
        <pt x="271" y="-139" on="0"/>
        <pt x="271" y="-125" on="1"/>
        <pt x="271" y="-109" on="0"/>
        <pt x="248" y="-96" on="1"/>
        <pt x="202" y="-68" on="1"/>
        <pt x="222" y="0" on="1"/>
        <pt x="216" y="0" on="1"/>
        <pt x="219" y="194" on="1"/>
        <pt x="216" y="596" on="1"/>
        <pt x="139" y="596" on="1"/>
        <pt x="29" y="593" on="1"/>
        <pt x="25" y="599" on="1"/>
        <pt x="30" y="639" on="1"/>
        <pt x="455" y="639" on="1"/>
        <pt x="459" y="633" on="1"/>
      </contour>
    </TTGlyph>
    <TTGlyph name="Thorn" xMin="101" yMin="0" xMax="461" yMax="639">
      <contour>
        <pt x="364" y="524" on="0"/>
        <pt x="461" y="429" on="0"/>
        <pt x="461" y="339" on="1"/>
        <pt x="461" y="234" on="0"/>
        <pt x="344" y="121" on="0"/>
        <pt x="234" y="121" on="1"/>
        <pt x="152" y="120" on="1"/>
        <pt x="153" y="0" on="1"/>
        <pt x="101" y="0" on="1"/>
        <pt x="103" y="194" on="1"/>
        <pt x="101" y="639" on="1"/>
        <pt x="154" y="639" on="1"/>
        <pt x="153" y="523" on="1"/>
        <pt x="272" y="524" on="1"/>
      </contour>
      <contour>
        <pt x="334" y="175" on="0"/>
        <pt x="408" y="263" on="0"/>
        <pt x="408" y="337" on="1"/>
        <pt x="408" y="474" on="0"/>
        <pt x="266" y="480" on="1"/>
        <pt x="153" y="478" on="1"/>
        <pt x="152" y="197" on="1"/>
        <pt x="152" y="166" on="1"/>
        <pt x="264" y="164" on="1"/>
      </contour>
    </TTGlyph>
    <TTGlyph name="U" xMin="81" yMin="-5" xMax="541" yMax="639">
      <contour>
        <pt x="540" y="236" on="1"/>
        <pt x="542" y="121" on="0"/>
        <pt x="420" y="-5" on="0"/>
        <pt x="307" y="-5" on="1"/>
        <pt x="197" y="-5" on="0"/>
        <pt x="80" y="117" on="0"/>
        <pt x="81" y="232" on="1"/>
        <pt x="81" y="639" on="1"/>
        <pt x="132" y="639" on="1"/>
        <pt x="130" y="237" on="1"/>
        <pt x="129" y="141" on="0"/>
        <pt x="221" y="41" on="0"/>
        <pt x="310" y="41" on="1"/>
        <pt x="399" y="41" on="0"/>
        <pt x="492" y="139" on="0"/>
        <pt x="491" y="232" on="1"/>
        <pt x="489" y="639" on="1"/>
        <pt x="541" y="639" on="1"/>
        <pt x="540" y="313" on="1"/>
      </contour>
    </TTGlyph>
    <TTGlyph name="Uacute" xMin="81" yMin="-5" xMax="541" yMax="851">
      <component glyphName="U" x="0" y="0" flags="0x1000"/>
      <component glyphName="acute.cap" x="147" y="184" flags="0x1000"/>
    </TTGlyph>
    <TTGlyph name="Ubreve" xMin="81" yMin="-5" xMax="541" yMax="840">
      <component glyphName="U" x="0" y="0" flags="0x1000"/>
      <component glyphName="breve" x="118" y="184" flags="0x1000"/>
    </TTGlyph>
    <TTGlyph name="Ucaron" xMin="81" yMin="-5" xMax="541" yMax="858">
      <component glyphName="U" x="0" y="0" flags="0x1000"/>
      <component glyphName="caron" x="118" y="184" flags="0x1000"/>
    </TTGlyph>
    <TTGlyph name="Ucircumflex" xMin="80" yMin="-5" xMax="541" yMax="844">
      <contour>
        <pt x="239" y="790" on="0"/>
        <pt x="304" y="844" on="1"/>
        <pt x="323" y="844" on="1"/>
        <pt x="396" y="786" on="0"/>
        <pt x="432" y="761" on="1"/>
        <pt x="420" y="736" on="1"/>
        <pt x="413" y="736" on="1"/>
        <pt x="338" y="786" on="0"/>
        <pt x="314" y="804" on="1"/>
        <pt x="290" y="787" on="0"/>
        <pt x="215" y="736" on="1"/>
        <pt x="208" y="736" on="1"/>
        <pt x="196" y="761" on="1"/>
      </contour>
      <contour>
        <pt x="539" y="236" on="1"/>
        <pt x="542" y="121" on="0"/>
        <pt x="420" y="-5" on="0"/>
        <pt x="307" y="-5" on="1"/>
        <pt x="196" y="-5" on="0"/>
        <pt x="79" y="117" on="0"/>
        <pt x="80" y="232" on="1"/>
        <pt x="81" y="322" on="1"/>
        <pt x="80" y="639" on="1"/>
        <pt x="132" y="639" on="1"/>
        <pt x="130" y="237" on="1"/>
        <pt x="129" y="141" on="0"/>
        <pt x="221" y="41" on="0"/>
        <pt x="310" y="41" on="1"/>
        <pt x="399" y="41" on="0"/>
        <pt x="491" y="138" on="0"/>
        <pt x="491" y="232" on="1"/>
        <pt x="489" y="639" on="1"/>
        <pt x="541" y="639" on="1"/>
        <pt x="540" y="313" on="1"/>
      </contour>
    </TTGlyph>
    <TTGlyph name="Udieresis" xMin="80" yMin="-5" xMax="541" yMax="818">
      <contour>
        <pt x="273" y="818" on="0"/>
        <pt x="273" y="786" on="1"/>
        <pt x="273" y="770" on="0"/>
        <pt x="255" y="752" on="0"/>
        <pt x="239" y="752" on="1"/>
        <pt x="207" y="752" on="0"/>
        <pt x="207" y="784" on="1"/>
        <pt x="207" y="800" on="0"/>
        <pt x="225" y="818" on="0"/>
        <pt x="241" y="818" on="1"/>
      </contour>
      <contour>
        <pt x="422" y="818" on="0"/>
        <pt x="422" y="786" on="1"/>
        <pt x="422" y="770" on="0"/>
        <pt x="404" y="752" on="0"/>
        <pt x="388" y="752" on="1"/>
        <pt x="356" y="752" on="0"/>
        <pt x="356" y="784" on="1"/>
        <pt x="356" y="800" on="0"/>
        <pt x="374" y="818" on="0"/>
        <pt x="390" y="818" on="1"/>
      </contour>
      <contour>
        <pt x="539" y="236" on="1"/>
        <pt x="542" y="121" on="0"/>
        <pt x="420" y="-5" on="0"/>
        <pt x="307" y="-5" on="1"/>
        <pt x="196" y="-5" on="0"/>
        <pt x="79" y="117" on="0"/>
        <pt x="80" y="232" on="1"/>
        <pt x="81" y="322" on="1"/>
        <pt x="80" y="639" on="1"/>
        <pt x="132" y="639" on="1"/>
        <pt x="130" y="237" on="1"/>
        <pt x="129" y="141" on="0"/>
        <pt x="221" y="41" on="0"/>
        <pt x="310" y="41" on="1"/>
        <pt x="399" y="41" on="0"/>
        <pt x="491" y="138" on="0"/>
        <pt x="491" y="232" on="1"/>
        <pt x="489" y="639" on="1"/>
        <pt x="541" y="639" on="1"/>
        <pt x="540" y="313" on="1"/>
      </contour>
    </TTGlyph>
    <TTGlyph name="Udieresisacute" xMin="81" yMin="-5" xMax="541" yMax="950">
      <component glyphName="U" x="0" y="0" flags="0x1000"/>
      <component glyphName="dieresisacute" x="118" y="184" flags="0x1000"/>
    </TTGlyph>
    <TTGlyph name="Udieresiscaron" xMin="81" yMin="-5" xMax="541" yMax="933">
      <component glyphName="U" x="0" y="0" flags="0x1000"/>
      <component glyphName="dieresiscaron" x="118" y="184" flags="0x1000"/>
    </TTGlyph>
    <TTGlyph name="Udieresisgrave" xMin="81" yMin="-5" xMax="541" yMax="950">
      <component glyphName="U" x="0" y="0" flags="0x1000"/>
      <component glyphName="dieresisgrave" x="118" y="184" flags="0x1000"/>
    </TTGlyph>
    <TTGlyph name="Udieresismacron" xMin="81" yMin="-5" xMax="541" yMax="905">
      <component glyphName="U" x="0" y="0" flags="0x1000"/>
      <component glyphName="dieresismacron" x="118" y="184" flags="0x1000"/>
    </TTGlyph>
    <TTGlyph name="Udotbelow" xMin="80" yMin="-146" xMax="541" yMax="639">
      <contour>
        <pt x="539" y="236" on="1"/>
        <pt x="542" y="121" on="0"/>
        <pt x="420" y="-5" on="0"/>
        <pt x="307" y="-5" on="1"/>
        <pt x="196" y="-5" on="0"/>
        <pt x="79" y="117" on="0"/>
        <pt x="80" y="232" on="1"/>
        <pt x="81" y="322" on="1"/>
        <pt x="80" y="639" on="1"/>
        <pt x="132" y="639" on="1"/>
        <pt x="130" y="237" on="1"/>
        <pt x="129" y="141" on="0"/>
        <pt x="221" y="41" on="0"/>
        <pt x="310" y="41" on="1"/>
        <pt x="399" y="41" on="0"/>
        <pt x="491" y="138" on="0"/>
        <pt x="491" y="232" on="1"/>
        <pt x="489" y="639" on="1"/>
        <pt x="541" y="639" on="1"/>
        <pt x="540" y="313" on="1"/>
      </contour>
      <contour>
        <pt x="341" y="-78" on="0"/>
        <pt x="341" y="-112" on="1"/>
        <pt x="341" y="-128" on="0"/>
        <pt x="323" y="-146" on="0"/>
        <pt x="307" y="-146" on="1"/>
        <pt x="274" y="-146" on="0"/>
        <pt x="274" y="-113" on="1"/>
        <pt x="274" y="-97" on="0"/>
        <pt x="292" y="-78" on="0"/>
        <pt x="308" y="-78" on="1"/>
      </contour>
    </TTGlyph>
    <TTGlyph name="Ugrave" xMin="80" yMin="-5" xMax="541" yMax="853">
      <contour>
        <pt x="308" y="807" on="0"/>
        <pt x="417" y="754" on="1"/>
        <pt x="406" y="728" on="1"/>
        <pt x="398" y="725" on="1"/>
        <pt x="298" y="770" on="0"/>
        <pt x="213" y="814" on="1"/>
        <pt x="211" y="821" on="1"/>
        <pt x="225" y="851" on="1"/>
        <pt x="232" y="853" on="1"/>
      </contour>
      <contour>
        <pt x="539" y="236" on="1"/>
        <pt x="542" y="121" on="0"/>
        <pt x="420" y="-5" on="0"/>
        <pt x="307" y="-5" on="1"/>
        <pt x="196" y="-5" on="0"/>
        <pt x="79" y="117" on="0"/>
        <pt x="80" y="232" on="1"/>
        <pt x="81" y="322" on="1"/>
        <pt x="80" y="639" on="1"/>
        <pt x="132" y="639" on="1"/>
        <pt x="130" y="237" on="1"/>
        <pt x="129" y="141" on="0"/>
        <pt x="221" y="41" on="0"/>
        <pt x="310" y="41" on="1"/>
        <pt x="399" y="41" on="0"/>
        <pt x="491" y="138" on="0"/>
        <pt x="491" y="232" on="1"/>
        <pt x="489" y="639" on="1"/>
        <pt x="541" y="639" on="1"/>
        <pt x="540" y="313" on="1"/>
      </contour>
    </TTGlyph>
    <TTGlyph name="Uhookabove" xMin="81" yMin="-5" xMax="541" yMax="879">
      <component glyphName="U" x="0" y="0" flags="0x1000"/>
      <component glyphName="hookabove" x="117" y="183" flags="0x1000"/>
    </TTGlyph>
    <TTGlyph name="Uhorn" xMin="80" yMin="-5" xMax="624" yMax="769">
      <contour>
        <pt x="624" y="661" on="0"/>
        <pt x="579" y="616" on="0"/>
        <pt x="541" y="609" on="1"/>
        <pt x="540" y="313" on="1"/>
        <pt x="539" y="236" on="1"/>
        <pt x="542" y="121" on="0"/>
        <pt x="420" y="-5" on="0"/>
        <pt x="307" y="-5" on="1"/>
        <pt x="196" y="-5" on="0"/>
        <pt x="79" y="117" on="0"/>
        <pt x="80" y="232" on="1"/>
        <pt x="81" y="322" on="1"/>
        <pt x="80" y="639" on="1"/>
        <pt x="132" y="639" on="1"/>
        <pt x="130" y="237" on="1"/>
        <pt x="129" y="141" on="0"/>
        <pt x="221" y="41" on="0"/>
        <pt x="310" y="41" on="1"/>
        <pt x="399" y="41" on="0"/>
        <pt x="491" y="138" on="0"/>
        <pt x="491" y="232" on="1"/>
        <pt x="489" y="639" on="1"/>
        <pt x="514" y="639" on="1"/>
        <pt x="546" y="639" on="0"/>
        <pt x="581" y="666" on="0"/>
        <pt x="581" y="691" on="1"/>
        <pt x="581" y="721" on="0"/>
        <pt x="548" y="751" on="1"/>
        <pt x="550" y="758" on="1"/>
        <pt x="566" y="769" on="0"/>
        <pt x="576" y="769" on="1"/>
        <pt x="585" y="769" on="0"/>
        <pt x="608" y="748" on="0"/>
        <pt x="624" y="714" on="0"/>
        <pt x="624" y="694" on="1"/>
      </contour>
    </TTGlyph>
    <TTGlyph name="Uhornacute" xMin="80" yMin="-5" xMax="624" yMax="851">
      <component glyphName="Uhorn" x="0" y="0" flags="0x1000"/>
      <component glyphName="acute.cap" x="147" y="184" flags="0x1000"/>
    </TTGlyph>
    <TTGlyph name="Uhorndotbelow" xMin="80" yMin="-146" xMax="624" yMax="769">
      <contour>
        <pt x="624" y="661" on="0"/>
        <pt x="579" y="616" on="0"/>
        <pt x="541" y="609" on="1"/>
        <pt x="540" y="313" on="1"/>
        <pt x="539" y="236" on="1"/>
        <pt x="542" y="121" on="0"/>
        <pt x="420" y="-5" on="0"/>
        <pt x="307" y="-5" on="1"/>
        <pt x="196" y="-5" on="0"/>
        <pt x="79" y="117" on="0"/>
        <pt x="80" y="232" on="1"/>
        <pt x="81" y="322" on="1"/>
        <pt x="80" y="639" on="1"/>
        <pt x="132" y="639" on="1"/>
        <pt x="130" y="237" on="1"/>
        <pt x="129" y="141" on="0"/>
        <pt x="221" y="41" on="0"/>
        <pt x="310" y="41" on="1"/>
        <pt x="399" y="41" on="0"/>
        <pt x="491" y="138" on="0"/>
        <pt x="491" y="232" on="1"/>
        <pt x="489" y="639" on="1"/>
        <pt x="514" y="639" on="1"/>
        <pt x="546" y="639" on="0"/>
        <pt x="581" y="666" on="0"/>
        <pt x="581" y="691" on="1"/>
        <pt x="581" y="721" on="0"/>
        <pt x="548" y="751" on="1"/>
        <pt x="550" y="758" on="1"/>
        <pt x="566" y="769" on="0"/>
        <pt x="576" y="769" on="1"/>
        <pt x="585" y="769" on="0"/>
        <pt x="608" y="748" on="0"/>
        <pt x="624" y="714" on="0"/>
        <pt x="624" y="694" on="1"/>
      </contour>
      <contour>
        <pt x="343" y="-78" on="0"/>
        <pt x="343" y="-112" on="1"/>
        <pt x="343" y="-128" on="0"/>
        <pt x="325" y="-146" on="0"/>
        <pt x="309" y="-146" on="1"/>
        <pt x="276" y="-146" on="0"/>
        <pt x="276" y="-113" on="1"/>
        <pt x="276" y="-97" on="0"/>
        <pt x="294" y="-78" on="0"/>
        <pt x="310" y="-78" on="1"/>
      </contour>
    </TTGlyph>
    <TTGlyph name="Uhorngrave" xMin="80" yMin="-5" xMax="624" yMax="853">
      <contour>
        <pt x="298" y="770" on="0"/>
        <pt x="213" y="814" on="1"/>
        <pt x="211" y="821" on="1"/>
        <pt x="225" y="851" on="1"/>
        <pt x="232" y="853" on="1"/>
        <pt x="308" y="807" on="0"/>
        <pt x="417" y="754" on="1"/>
        <pt x="406" y="728" on="1"/>
        <pt x="398" y="725" on="1"/>
      </contour>
      <contour>
        <pt x="624" y="661" on="0"/>
        <pt x="579" y="616" on="0"/>
        <pt x="541" y="609" on="1"/>
        <pt x="540" y="313" on="1"/>
        <pt x="539" y="236" on="1"/>
        <pt x="542" y="121" on="0"/>
        <pt x="420" y="-5" on="0"/>
        <pt x="307" y="-5" on="1"/>
        <pt x="196" y="-5" on="0"/>
        <pt x="79" y="117" on="0"/>
        <pt x="80" y="232" on="1"/>
        <pt x="81" y="322" on="1"/>
        <pt x="80" y="639" on="1"/>
        <pt x="132" y="639" on="1"/>
        <pt x="130" y="237" on="1"/>
        <pt x="129" y="141" on="0"/>
        <pt x="221" y="41" on="0"/>
        <pt x="310" y="41" on="1"/>
        <pt x="399" y="41" on="0"/>
        <pt x="491" y="138" on="0"/>
        <pt x="491" y="232" on="1"/>
        <pt x="489" y="639" on="1"/>
        <pt x="514" y="639" on="1"/>
        <pt x="546" y="639" on="0"/>
        <pt x="581" y="666" on="0"/>
        <pt x="581" y="691" on="1"/>
        <pt x="581" y="721" on="0"/>
        <pt x="548" y="751" on="1"/>
        <pt x="550" y="758" on="1"/>
        <pt x="566" y="769" on="0"/>
        <pt x="576" y="769" on="1"/>
        <pt x="585" y="769" on="0"/>
        <pt x="608" y="748" on="0"/>
        <pt x="624" y="714" on="0"/>
        <pt x="624" y="694" on="1"/>
      </contour>
    </TTGlyph>
    <TTGlyph name="Uhornhookabove" xMin="80" yMin="-5" xMax="624" yMax="879">
      <component glyphName="Uhorn" x="0" y="0" flags="0x1000"/>
      <component glyphName="hookabove" x="118" y="183" flags="0x1000"/>
    </TTGlyph>
    <TTGlyph name="Uhorntilde" xMin="80" yMin="-5" xMax="624" yMax="834">
      <component glyphName="Uhorn" x="0" y="0" flags="0x1000"/>
      <component glyphName="tilde" x="118" y="184" flags="0x1000"/>
    </TTGlyph>
    <TTGlyph name="Uhungarumlaut" xMin="81" yMin="-5" xMax="541" yMax="853">
      <component glyphName="U" x="0" y="0" flags="0x1000"/>
      <component glyphName="hungarumlaut.cap" x="144" y="184" flags="0x1000"/>
    </TTGlyph>
    <TTGlyph name="Umacron" xMin="81" yMin="-5" xMax="541" yMax="805">
      <component glyphName="U" x="0" y="0" flags="0x1000"/>
      <component glyphName="macron" x="118" y="184" flags="0x1000"/>
    </TTGlyph>
    <TTGlyph name="Uogonek" xMin="80" yMin="-197" xMax="541" yMax="639">
      <contour>
        <pt x="539" y="236" on="1"/>
        <pt x="542" y="92" on="0"/>
        <pt x="448" y="32" on="1"/>
        <pt x="384" y="-68" on="1"/>
        <pt x="365" y="-97" on="0"/>
        <pt x="365" y="-120" on="1"/>
        <pt x="365" y="-138" on="0"/>
        <pt x="387" y="-160" on="0"/>
        <pt x="406" y="-160" on="1"/>
        <pt x="446" y="-160" on="0"/>
        <pt x="483" y="-114" on="1"/>
        <pt x="486" y="-114" on="1"/>
        <pt x="498" y="-142" on="1"/>
        <pt x="449" y="-197" on="0"/>
        <pt x="401" y="-197" on="1"/>
        <pt x="368" y="-197" on="0"/>
        <pt x="329" y="-157" on="0"/>
        <pt x="329" y="-124" on="1"/>
        <pt x="329" y="-93" on="0"/>
        <pt x="350" y="-61" on="1"/>
        <pt x="396" y="7" on="1"/>
        <pt x="356" y="-5" on="0"/>
        <pt x="307" y="-5" on="1"/>
        <pt x="196" y="-5" on="0"/>
        <pt x="79" y="117" on="0"/>
        <pt x="80" y="232" on="1"/>
        <pt x="81" y="322" on="1"/>
        <pt x="80" y="639" on="1"/>
        <pt x="132" y="639" on="1"/>
        <pt x="130" y="237" on="1"/>
        <pt x="129" y="141" on="0"/>
        <pt x="221" y="41" on="0"/>
        <pt x="310" y="41" on="1"/>
        <pt x="399" y="41" on="0"/>
        <pt x="491" y="138" on="0"/>
        <pt x="491" y="232" on="1"/>
        <pt x="489" y="639" on="1"/>
        <pt x="541" y="639" on="1"/>
        <pt x="540" y="313" on="1"/>
      </contour>
    </TTGlyph>
    <TTGlyph name="Uring" xMin="81" yMin="-5" xMax="541" yMax="867">
      <component glyphName="U" x="0" y="0" flags="0x1000"/>
      <component glyphName="ring" x="118" y="184" flags="0x1000"/>
    </TTGlyph>
    <TTGlyph name="Utilde" xMin="81" yMin="-5" xMax="541" yMax="834">
      <component glyphName="U" x="0" y="0" flags="0x1000"/>
      <component glyphName="tilde" x="118" y="184" flags="0x1000"/>
    </TTGlyph>
    <TTGlyph name="V" xMin="17" yMin="0" xMax="543" yMax="639">
      <contour>
        <pt x="240" y="0" on="1"/>
        <pt x="17" y="639" on="1"/>
        <pt x="71" y="639" on="1"/>
        <pt x="85" y="584" on="1"/>
        <pt x="269" y="59" on="1"/>
        <pt x="274" y="59" on="1"/>
        <pt x="474" y="582" on="1"/>
        <pt x="489" y="639" on="1"/>
        <pt x="543" y="639" on="1"/>
        <pt x="299" y="0" on="1"/>
      </contour>
    </TTGlyph>
    <TTGlyph name="V.ss01" xMin="-100" yMin="0" xMax="591" yMax="495">
      <contour>
        <pt x="279" y="28" on="1"/>
        <pt x="591" y="28" on="1"/>
        <pt x="591" y="0" on="1"/>
        <pt x="-100" y="0" on="1"/>
        <pt x="-100" y="28" on="1"/>
        <pt x="204" y="28" on="1"/>
        <pt x="43" y="467" on="1"/>
        <pt x="-100" y="467" on="1"/>
        <pt x="-100" y="495" on="1"/>
        <pt x="591" y="495" on="1"/>
        <pt x="591" y="467" on="1"/>
        <pt x="455" y="467" on="1"/>
      </contour>
      <contour>
        <pt x="91" y="467" on="1"/>
        <pt x="97" y="446" on="1"/>
        <pt x="241" y="56" on="1"/>
        <pt x="245" y="56" on="1"/>
        <pt x="402" y="444" on="1"/>
        <pt x="408" y="467" on="1"/>
      </contour>
    </TTGlyph>
    <TTGlyph name="W" xMin="22" yMin="0" xMax="878" yMax="639">
      <contour>
        <pt x="586" y="0" on="1"/>
        <pt x="446" y="403" on="1"/>
        <pt x="441" y="403" on="1"/>
        <pt x="291" y="0" on="1"/>
        <pt x="238" y="0" on="1"/>
        <pt x="22" y="639" on="1"/>
        <pt x="75" y="639" on="1"/>
        <pt x="87" y="586" on="1"/>
        <pt x="265" y="63" on="1"/>
        <pt x="270" y="63" on="1"/>
        <pt x="423" y="475" on="1"/>
        <pt x="366" y="639" on="1"/>
        <pt x="420" y="639" on="1"/>
        <pt x="434" y="582" on="1"/>
        <pt x="612" y="63" on="1"/>
        <pt x="618" y="63" on="1"/>
        <pt x="813" y="584" on="1"/>
        <pt x="827" y="639" on="1"/>
        <pt x="878" y="639" on="1"/>
        <pt x="639" y="0" on="1"/>
      </contour>
    </TTGlyph>
    <TTGlyph name="Wacute" xMin="22" yMin="0" xMax="878" yMax="851">
      <component glyphName="W" x="0" y="0" flags="0x1000"/>
      <component glyphName="acute.cap" x="271" y="184" flags="0x1000"/>
    </TTGlyph>
    <TTGlyph name="Wcircumflex" xMin="22" yMin="0" xMax="878" yMax="844">
      <contour>
        <pt x="362" y="790" on="0"/>
        <pt x="427" y="844" on="1"/>
        <pt x="446" y="844" on="1"/>
        <pt x="519" y="786" on="0"/>
        <pt x="555" y="761" on="1"/>
        <pt x="543" y="736" on="1"/>
        <pt x="536" y="736" on="1"/>
        <pt x="461" y="786" on="0"/>
        <pt x="437" y="804" on="1"/>
        <pt x="413" y="787" on="0"/>
        <pt x="338" y="736" on="1"/>
        <pt x="331" y="736" on="1"/>
        <pt x="319" y="761" on="1"/>
      </contour>
      <contour>
        <pt x="586" y="0" on="1"/>
        <pt x="446" y="403" on="1"/>
        <pt x="441" y="403" on="1"/>
        <pt x="291" y="0" on="1"/>
        <pt x="238" y="0" on="1"/>
        <pt x="22" y="639" on="1"/>
        <pt x="75" y="639" on="1"/>
        <pt x="87" y="586" on="1"/>
        <pt x="265" y="63" on="1"/>
        <pt x="270" y="63" on="1"/>
        <pt x="423" y="475" on="1"/>
        <pt x="366" y="639" on="1"/>
        <pt x="420" y="639" on="1"/>
        <pt x="434" y="582" on="1"/>
        <pt x="612" y="63" on="1"/>
        <pt x="618" y="63" on="1"/>
        <pt x="813" y="584" on="1"/>
        <pt x="827" y="639" on="1"/>
        <pt x="878" y="639" on="1"/>
        <pt x="639" y="0" on="1"/>
      </contour>
    </TTGlyph>
    <TTGlyph name="Wdieresis" xMin="22" yMin="0" xMax="878" yMax="818">
      <contour>
        <pt x="396" y="818" on="0"/>
        <pt x="396" y="786" on="1"/>
        <pt x="396" y="770" on="0"/>
        <pt x="378" y="752" on="0"/>
        <pt x="362" y="752" on="1"/>
        <pt x="330" y="752" on="0"/>
        <pt x="330" y="784" on="1"/>
        <pt x="330" y="800" on="0"/>
        <pt x="348" y="818" on="0"/>
        <pt x="364" y="818" on="1"/>
      </contour>
      <contour>
        <pt x="545" y="818" on="0"/>
        <pt x="545" y="786" on="1"/>
        <pt x="545" y="770" on="0"/>
        <pt x="527" y="752" on="0"/>
        <pt x="511" y="752" on="1"/>
        <pt x="479" y="752" on="0"/>
        <pt x="479" y="784" on="1"/>
        <pt x="479" y="800" on="0"/>
        <pt x="497" y="818" on="0"/>
        <pt x="513" y="818" on="1"/>
      </contour>
      <contour>
        <pt x="586" y="0" on="1"/>
        <pt x="446" y="403" on="1"/>
        <pt x="441" y="403" on="1"/>
        <pt x="291" y="0" on="1"/>
        <pt x="238" y="0" on="1"/>
        <pt x="22" y="639" on="1"/>
        <pt x="75" y="639" on="1"/>
        <pt x="87" y="586" on="1"/>
        <pt x="265" y="63" on="1"/>
        <pt x="270" y="63" on="1"/>
        <pt x="423" y="475" on="1"/>
        <pt x="366" y="639" on="1"/>
        <pt x="420" y="639" on="1"/>
        <pt x="434" y="582" on="1"/>
        <pt x="612" y="63" on="1"/>
        <pt x="618" y="63" on="1"/>
        <pt x="813" y="584" on="1"/>
        <pt x="827" y="639" on="1"/>
        <pt x="878" y="639" on="1"/>
        <pt x="639" y="0" on="1"/>
      </contour>
    </TTGlyph>
    <TTGlyph name="Wgrave" xMin="22" yMin="0" xMax="878" yMax="853">
      <contour>
        <pt x="431" y="807" on="0"/>
        <pt x="540" y="754" on="1"/>
        <pt x="529" y="728" on="1"/>
        <pt x="521" y="725" on="1"/>
        <pt x="421" y="770" on="0"/>
        <pt x="336" y="814" on="1"/>
        <pt x="334" y="821" on="1"/>
        <pt x="348" y="851" on="1"/>
        <pt x="355" y="853" on="1"/>
      </contour>
      <contour>
        <pt x="586" y="0" on="1"/>
        <pt x="446" y="403" on="1"/>
        <pt x="441" y="403" on="1"/>
        <pt x="291" y="0" on="1"/>
        <pt x="238" y="0" on="1"/>
        <pt x="22" y="639" on="1"/>
        <pt x="75" y="639" on="1"/>
        <pt x="87" y="586" on="1"/>
        <pt x="265" y="63" on="1"/>
        <pt x="270" y="63" on="1"/>
        <pt x="423" y="475" on="1"/>
        <pt x="366" y="639" on="1"/>
        <pt x="420" y="639" on="1"/>
        <pt x="434" y="582" on="1"/>
        <pt x="612" y="63" on="1"/>
        <pt x="618" y="63" on="1"/>
        <pt x="813" y="584" on="1"/>
        <pt x="827" y="639" on="1"/>
        <pt x="878" y="639" on="1"/>
        <pt x="639" y="0" on="1"/>
      </contour>
    </TTGlyph>
    <TTGlyph name="X" xMin="28" yMin="0" xMax="541" yMax="639">
      <contour>
        <pt x="541" y="0" on="1"/>
        <pt x="477" y="0" on="1"/>
        <pt x="451" y="45" on="1"/>
        <pt x="282" y="291" on="1"/>
        <pt x="110" y="42" on="1"/>
        <pt x="86" y="0" on="1"/>
        <pt x="28" y="0" on="1"/>
        <pt x="251" y="327" on="1"/>
        <pt x="39" y="639" on="1"/>
        <pt x="103" y="639" on="1"/>
        <pt x="128" y="596" on="1"/>
        <pt x="285" y="367" on="1"/>
        <pt x="440" y="594" on="1"/>
        <pt x="465" y="639" on="1"/>
        <pt x="524" y="639" on="1"/>
        <pt x="316" y="332" on="1"/>
      </contour>
    </TTGlyph>
    <TTGlyph name="X.ss01" xMin="-100" yMin="0" xMax="613" yMax="495">
      <contour>
        <pt x="448" y="28" on="1"/>
        <pt x="613" y="28" on="1"/>
        <pt x="613" y="0" on="1"/>
        <pt x="-100" y="0" on="1"/>
        <pt x="-100" y="28" on="1"/>
        <pt x="61" y="28" on="1"/>
        <pt x="223" y="252" on="1"/>
        <pt x="68" y="467" on="1"/>
        <pt x="-100" y="467" on="1"/>
        <pt x="-100" y="495" on="1"/>
        <pt x="613" y="495" on="1"/>
        <pt x="613" y="467" on="1"/>
        <pt x="435" y="467" on="1"/>
        <pt x="284" y="257" on="1"/>
      </contour>
      <contour>
        <pt x="375" y="452" on="1"/>
        <pt x="383" y="467" on="1"/>
        <pt x="126" y="467" on="1"/>
        <pt x="134" y="453" on="1"/>
        <pt x="255" y="289" on="1"/>
      </contour>
      <contour>
        <pt x="118" y="41" on="1"/>
        <pt x="111" y="28" on="1"/>
        <pt x="391" y="28" on="1"/>
        <pt x="382" y="44" on="1"/>
        <pt x="252" y="220" on="1"/>
      </contour>
    </TTGlyph>
    <TTGlyph name="Y" xMin="20" yMin="0" xMax="492" yMax="639">
      <contour>
        <pt x="273" y="0" on="1"/>
        <pt x="221" y="0" on="1"/>
        <pt x="224" y="191" on="1"/>
        <pt x="223" y="236" on="1"/>
        <pt x="20" y="639" on="1"/>
        <pt x="78" y="639" on="1"/>
        <pt x="90" y="608" on="1"/>
        <pt x="246" y="298" on="1"/>
        <pt x="252" y="298" on="1"/>
        <pt x="422" y="607" on="1"/>
        <pt x="435" y="639" on="1"/>
        <pt x="492" y="639" on="1"/>
        <pt x="272" y="235" on="1"/>
        <pt x="271" y="191" on="1"/>
      </contour>
    </TTGlyph>
    <TTGlyph name="Yacute" xMin="20" yMin="0" xMax="492" yMax="851">
      <component glyphName="Y" x="0" y="0" flags="0x1000"/>
      <component glyphName="acute.cap" x="83" y="184" flags="0x1000"/>
    </TTGlyph>
    <TTGlyph name="Ycircumflex" xMin="20" yMin="0" xMax="492" yMax="844">
      <contour>
        <pt x="132" y="761" on="1"/>
        <pt x="175" y="790" on="0"/>
        <pt x="240" y="844" on="1"/>
        <pt x="259" y="844" on="1"/>
        <pt x="332" y="786" on="0"/>
        <pt x="368" y="761" on="1"/>
        <pt x="356" y="736" on="1"/>
        <pt x="349" y="736" on="1"/>
        <pt x="274" y="786" on="0"/>
        <pt x="250" y="804" on="1"/>
        <pt x="226" y="787" on="0"/>
        <pt x="151" y="736" on="1"/>
        <pt x="144" y="736" on="1"/>
      </contour>
      <contour>
        <pt x="273" y="0" on="1"/>
        <pt x="221" y="0" on="1"/>
        <pt x="224" y="191" on="1"/>
        <pt x="223" y="236" on="1"/>
        <pt x="20" y="639" on="1"/>
        <pt x="78" y="639" on="1"/>
        <pt x="90" y="608" on="1"/>
        <pt x="245" y="298" on="1"/>
        <pt x="252" y="298" on="1"/>
        <pt x="422" y="607" on="1"/>
        <pt x="434" y="639" on="1"/>
        <pt x="492" y="639" on="1"/>
        <pt x="272" y="235" on="1"/>
        <pt x="271" y="191" on="1"/>
      </contour>
    </TTGlyph>
    <TTGlyph name="Ydieresis" xMin="20" yMin="0" xMax="492" yMax="818">
      <contour>
        <pt x="142" y="752" on="0"/>
        <pt x="142" y="784" on="1"/>
        <pt x="142" y="800" on="0"/>
        <pt x="160" y="818" on="0"/>
        <pt x="176" y="818" on="1"/>
        <pt x="208" y="818" on="0"/>
        <pt x="208" y="786" on="1"/>
        <pt x="208" y="770" on="0"/>
        <pt x="190" y="752" on="0"/>
        <pt x="174" y="752" on="1"/>
      </contour>
      <contour>
        <pt x="291" y="752" on="0"/>
        <pt x="291" y="784" on="1"/>
        <pt x="291" y="800" on="0"/>
        <pt x="309" y="818" on="0"/>
        <pt x="325" y="818" on="1"/>
        <pt x="357" y="818" on="0"/>
        <pt x="357" y="786" on="1"/>
        <pt x="357" y="770" on="0"/>
        <pt x="339" y="752" on="0"/>
        <pt x="323" y="752" on="1"/>
      </contour>
      <contour>
        <pt x="273" y="0" on="1"/>
        <pt x="221" y="0" on="1"/>
        <pt x="224" y="191" on="1"/>
        <pt x="223" y="236" on="1"/>
        <pt x="20" y="639" on="1"/>
        <pt x="78" y="639" on="1"/>
        <pt x="90" y="608" on="1"/>
        <pt x="245" y="298" on="1"/>
        <pt x="252" y="298" on="1"/>
        <pt x="422" y="607" on="1"/>
        <pt x="434" y="639" on="1"/>
        <pt x="492" y="639" on="1"/>
        <pt x="272" y="235" on="1"/>
        <pt x="271" y="191" on="1"/>
      </contour>
    </TTGlyph>
    <TTGlyph name="Ydotbelow" xMin="20" yMin="-146" xMax="492" yMax="639">
      <contour>
        <pt x="20" y="639" on="1"/>
        <pt x="78" y="639" on="1"/>
        <pt x="90" y="608" on="1"/>
        <pt x="245" y="298" on="1"/>
        <pt x="252" y="298" on="1"/>
        <pt x="422" y="607" on="1"/>
        <pt x="434" y="639" on="1"/>
        <pt x="492" y="639" on="1"/>
        <pt x="272" y="235" on="1"/>
        <pt x="271" y="191" on="1"/>
        <pt x="273" y="0" on="1"/>
        <pt x="221" y="0" on="1"/>
        <pt x="224" y="191" on="1"/>
        <pt x="223" y="236" on="1"/>
      </contour>
      <contour>
        <pt x="280" y="-78" on="0"/>
        <pt x="280" y="-112" on="1"/>
        <pt x="280" y="-128" on="0"/>
        <pt x="262" y="-146" on="0"/>
        <pt x="246" y="-146" on="1"/>
        <pt x="213" y="-146" on="0"/>
        <pt x="213" y="-113" on="1"/>
        <pt x="213" y="-97" on="0"/>
        <pt x="231" y="-78" on="0"/>
        <pt x="247" y="-78" on="1"/>
      </contour>
    </TTGlyph>
    <TTGlyph name="Ygrave" xMin="20" yMin="0" xMax="492" yMax="853">
      <contour>
        <pt x="234" y="770" on="0"/>
        <pt x="149" y="814" on="1"/>
        <pt x="147" y="821" on="1"/>
        <pt x="161" y="851" on="1"/>
        <pt x="168" y="853" on="1"/>
        <pt x="244" y="807" on="0"/>
        <pt x="353" y="754" on="1"/>
        <pt x="342" y="728" on="1"/>
        <pt x="334" y="725" on="1"/>
      </contour>
      <contour>
        <pt x="273" y="0" on="1"/>
        <pt x="221" y="0" on="1"/>
        <pt x="224" y="191" on="1"/>
        <pt x="223" y="236" on="1"/>
        <pt x="20" y="639" on="1"/>
        <pt x="78" y="639" on="1"/>
        <pt x="90" y="608" on="1"/>
        <pt x="245" y="298" on="1"/>
        <pt x="252" y="298" on="1"/>
        <pt x="422" y="607" on="1"/>
        <pt x="434" y="639" on="1"/>
        <pt x="492" y="639" on="1"/>
        <pt x="272" y="235" on="1"/>
        <pt x="271" y="191" on="1"/>
      </contour>
    </TTGlyph>
    <TTGlyph name="Yhookabove" xMin="20" yMin="0" xMax="492" yMax="879">
      <component glyphName="Y" x="0" y="0" flags="0x1000"/>
      <component glyphName="hookabove" x="54" y="183" flags="0x1000"/>
    </TTGlyph>
    <TTGlyph name="Ytilde" xMin="20" yMin="0" xMax="492" yMax="834">
      <component glyphName="Y" x="0" y="0" flags="0x1000"/>
      <component glyphName="tilde" x="54" y="184" flags="0x1000"/>
    </TTGlyph>
    <TTGlyph name="Z" xMin="32" yMin="-2" xMax="478" yMax="640">
      <contour>
        <pt x="95" y="44" on="1"/>
        <pt x="391" y="44" on="1"/>
        <pt x="474" y="48" on="1"/>
        <pt x="478" y="43" on="1"/>
        <pt x="473" y="-1" on="1"/>
        <pt x="377" y="0" on="1"/>
        <pt x="79" y="0" on="1"/>
        <pt x="32" y="-2" on="1"/>
        <pt x="32" y="38" on="1"/>
        <pt x="411" y="595" on="1"/>
        <pt x="129" y="595" on="1"/>
        <pt x="51" y="590" on="1"/>
        <pt x="47" y="596" on="1"/>
        <pt x="52" y="640" on="1"/>
        <pt x="141" y="639" on="1"/>
        <pt x="430" y="639" on="1"/>
        <pt x="474" y="640" on="1"/>
        <pt x="474" y="600" on="1"/>
      </contour>
    </TTGlyph>
    <TTGlyph name="Zacute" xMin="32" yMin="-2" xMax="478" yMax="851">
      <component glyphName="Z" x="0" y="0" flags="0x1000"/>
      <component glyphName="acute.cap" x="99" y="184" flags="0x1000"/>
    </TTGlyph>
    <TTGlyph name="Zcaron" xMin="32" yMin="-2" xMax="478" yMax="835">
      <component glyphName="Z" x="0" y="0" flags="0x1000"/>
      <component glyphName="caron.cap" x="71" y="184" flags="0x1000"/>
    </TTGlyph>
    <TTGlyph name="Zdotaccent" xMin="32" yMin="-2" xMax="478" yMax="832">
      <contour>
        <pt x="299" y="832" on="0"/>
        <pt x="299" y="799" on="1"/>
        <pt x="299" y="764" on="0"/>
        <pt x="265" y="764" on="1"/>
        <pt x="232" y="764" on="0"/>
        <pt x="232" y="797" on="1"/>
        <pt x="232" y="813" on="0"/>
        <pt x="250" y="832" on="0"/>
        <pt x="266" y="832" on="1"/>
      </contour>
      <contour>
        <pt x="96" y="44" on="1"/>
        <pt x="392" y="44" on="1"/>
        <pt x="474" y="48" on="1"/>
        <pt x="478" y="43" on="1"/>
        <pt x="473" y="-1" on="1"/>
        <pt x="377" y="0" on="1"/>
        <pt x="79" y="0" on="1"/>
        <pt x="32" y="-2" on="1"/>
        <pt x="32" y="38" on="1"/>
        <pt x="411" y="595" on="1"/>
        <pt x="130" y="595" on="1"/>
        <pt x="52" y="590" on="1"/>
        <pt x="47" y="596" on="1"/>
        <pt x="52" y="640" on="1"/>
        <pt x="141" y="639" on="1"/>
        <pt x="431" y="639" on="1"/>
        <pt x="474" y="640" on="1"/>
        <pt x="474" y="600" on="1"/>
      </contour>
    </TTGlyph>
    <TTGlyph name="a" xMin="29" yMin="0" xMax="466" yMax="495">
      <contour>
        <pt x="415" y="0" on="1"/>
        <pt x="404" y="45" on="1"/>
        <pt x="367" y="144" on="1"/>
        <pt x="131" y="144" on="1"/>
        <pt x="92" y="47" on="1"/>
        <pt x="79" y="0" on="1"/>
        <pt x="29" y="0" on="1"/>
        <pt x="228" y="495" on="1"/>
        <pt x="284" y="495" on="1"/>
        <pt x="466" y="0" on="1"/>
      </contour>
      <contour>
        <pt x="257" y="442" on="1"/>
        <pt x="252" y="442" on="1"/>
        <pt x="148" y="185" on="1"/>
        <pt x="248" y="184" on="1"/>
        <pt x="352" y="185" on="1"/>
      </contour>
    </TTGlyph>
    <TTGlyph name="a.sups" xMin="37" yMin="339" xMax="290" yMax="646">
      <contour>
        <pt x="201" y="646" on="0"/>
        <pt x="249" y="605" on="0"/>
        <pt x="249" y="567" on="1"/>
        <pt x="246" y="483" on="1"/>
        <pt x="243" y="431" on="0"/>
        <pt x="243" y="407" on="1"/>
        <pt x="243" y="377" on="0"/>
        <pt x="263" y="377" on="1"/>
        <pt x="275" y="377" on="0"/>
        <pt x="285" y="384" on="1"/>
        <pt x="290" y="381" on="1"/>
        <pt x="285" y="352" on="1"/>
        <pt x="269" y="340" on="0"/>
        <pt x="247" y="340" on="1"/>
        <pt x="226" y="340" on="0"/>
        <pt x="206" y="362" on="0"/>
        <pt x="204" y="388" on="1"/>
        <pt x="201" y="388" on="1"/>
        <pt x="163" y="345" on="0"/>
        <pt x="121" y="339" on="1"/>
        <pt x="81" y="340" on="0"/>
        <pt x="37" y="382" on="0"/>
        <pt x="37" y="420" on="1"/>
        <pt x="37" y="477" on="0"/>
        <pt x="97" y="489" on="1"/>
        <pt x="204" y="511" on="1"/>
        <pt x="205" y="558" on="1"/>
        <pt x="205" y="611" on="0"/>
        <pt x="150" y="611" on="1"/>
        <pt x="110" y="611" on="0"/>
        <pt x="59" y="572" on="1"/>
        <pt x="54" y="574" on="1"/>
        <pt x="48" y="606" on="1"/>
        <pt x="100" y="646" on="0"/>
        <pt x="158" y="646" on="1"/>
      </contour>
      <contour>
        <pt x="81" y="458" on="0"/>
        <pt x="81" y="424" on="1"/>
        <pt x="81" y="401" on="0"/>
        <pt x="106" y="375" on="0"/>
        <pt x="130" y="375" on="1"/>
        <pt x="165" y="375" on="0"/>
        <pt x="201" y="419" on="1"/>
        <pt x="203" y="485" on="1"/>
        <pt x="117" y="465" on="1"/>
      </contour>
    </TTGlyph>
    <TTGlyph name="aacute" xMin="29" yMin="0" xMax="466" yMax="723">
      <component glyphName="a" x="0" y="0" flags="0x1000"/>
      <component glyphName="acute" x="90" y="39" flags="0x1000"/>
    </TTGlyph>
    <TTGlyph name="abreve" xMin="29" yMin="0" xMax="466" yMax="695">
      <component glyphName="a" x="0" y="0" flags="0x1000"/>
      <component glyphName="breve" x="62" y="39" flags="0x1000"/>
    </TTGlyph>
    <TTGlyph name="abreveacute" xMin="29" yMin="0" xMax="466" yMax="779">
      <component glyphName="a" x="0" y="0" flags="0x1000"/>
      <component glyphName="breveacute" x="61" y="39" flags="0x1000"/>
    </TTGlyph>
    <TTGlyph name="abrevedotbelow" xMin="29" yMin="-146" xMax="466" yMax="695">
      <contour>
        <pt x="163" y="563" on="0"/>
        <pt x="143" y="674" on="1"/>
        <pt x="160" y="695" on="1"/>
        <pt x="169" y="695" on="1"/>
        <pt x="185" y="603" on="0"/>
        <pt x="257" y="603" on="1"/>
        <pt x="329" y="603" on="0"/>
        <pt x="345" y="695" on="1"/>
        <pt x="354" y="695" on="1"/>
        <pt x="372" y="674" on="1"/>
        <pt x="349" y="563" on="0"/>
        <pt x="256" y="563" on="1"/>
      </contour>
      <contour>
        <pt x="415" y="0" on="1"/>
        <pt x="404" y="45" on="1"/>
        <pt x="367" y="144" on="1"/>
        <pt x="131" y="144" on="1"/>
        <pt x="92" y="47" on="1"/>
        <pt x="79" y="0" on="1"/>
        <pt x="29" y="0" on="1"/>
        <pt x="228" y="495" on="1"/>
        <pt x="284" y="495" on="1"/>
        <pt x="466" y="0" on="1"/>
      </contour>
      <contour>
        <pt x="257" y="442" on="1"/>
        <pt x="252" y="442" on="1"/>
        <pt x="148" y="185" on="1"/>
        <pt x="248" y="184" on="1"/>
        <pt x="352" y="185" on="1"/>
      </contour>
      <contour>
        <pt x="283" y="-78" on="0"/>
        <pt x="283" y="-112" on="1"/>
        <pt x="283" y="-128" on="0"/>
        <pt x="265" y="-146" on="0"/>
        <pt x="249" y="-146" on="1"/>
        <pt x="216" y="-146" on="0"/>
        <pt x="216" y="-113" on="1"/>
        <pt x="216" y="-97" on="0"/>
        <pt x="234" y="-78" on="0"/>
        <pt x="250" y="-78" on="1"/>
      </contour>
    </TTGlyph>
    <TTGlyph name="abrevegrave" xMin="29" yMin="0" xMax="466" yMax="779">
      <component glyphName="a" x="0" y="0" flags="0x1000"/>
      <component glyphName="brevegrave" x="61" y="39" flags="0x1000"/>
    </TTGlyph>
    <TTGlyph name="abrevehookabove" xMin="29" yMin="0" xMax="466" yMax="822">
      <contour>
        <pt x="224" y="789" on="0"/>
        <pt x="196" y="766" on="1"/>
        <pt x="184" y="786" on="1"/>
        <pt x="220" y="822" on="0"/>
        <pt x="259" y="822" on="1"/>
        <pt x="282" y="822" on="0"/>
        <pt x="313" y="794" on="0"/>
        <pt x="313" y="774" on="1"/>
        <pt x="313" y="742" on="0"/>
        <pt x="263" y="704" on="1"/>
        <pt x="281" y="672" on="1"/>
        <pt x="255" y="659" on="1"/>
        <pt x="228" y="707" on="1"/>
        <pt x="278" y="743" on="0"/>
        <pt x="278" y="769" on="1"/>
        <pt x="278" y="789" on="0"/>
        <pt x="252" y="789" on="1"/>
      </contour>
      <contour>
        <pt x="167" y="562" on="0"/>
        <pt x="142" y="644" on="1"/>
        <pt x="159" y="664" on="1"/>
        <pt x="168" y="664" on="1"/>
        <pt x="187" y="601" on="0"/>
        <pt x="256" y="601" on="1"/>
        <pt x="324" y="601" on="0"/>
        <pt x="344" y="664" on="1"/>
        <pt x="353" y="664" on="1"/>
        <pt x="371" y="644" on="1"/>
        <pt x="358" y="604" on="0"/>
        <pt x="297" y="562" on="0"/>
        <pt x="255" y="562" on="1"/>
      </contour>
      <contour>
        <pt x="415" y="0" on="1"/>
        <pt x="404" y="45" on="1"/>
        <pt x="367" y="144" on="1"/>
        <pt x="131" y="144" on="1"/>
        <pt x="92" y="47" on="1"/>
        <pt x="79" y="0" on="1"/>
        <pt x="29" y="0" on="1"/>
        <pt x="228" y="495" on="1"/>
        <pt x="284" y="495" on="1"/>
        <pt x="466" y="0" on="1"/>
      </contour>
      <contour>
        <pt x="257" y="442" on="1"/>
        <pt x="252" y="442" on="1"/>
        <pt x="148" y="185" on="1"/>
        <pt x="248" y="184" on="1"/>
        <pt x="352" y="185" on="1"/>
      </contour>
    </TTGlyph>
    <TTGlyph name="abrevetilde" xMin="29" yMin="0" xMax="466" yMax="794">
      <contour>
        <pt x="118" y="721" on="1"/>
        <pt x="118" y="727" on="1"/>
        <pt x="172" y="785" on="1"/>
        <pt x="180" y="787" on="1"/>
        <pt x="199" y="785" on="0"/>
        <pt x="259" y="767" on="1"/>
        <pt x="315" y="751" on="0"/>
        <pt x="326" y="751" on="1"/>
        <pt x="337" y="751" on="0"/>
        <pt x="364" y="780" on="1"/>
        <pt x="378" y="794" on="1"/>
        <pt x="383" y="794" on="1"/>
        <pt x="400" y="776" on="1"/>
        <pt x="400" y="770" on="1"/>
        <pt x="346" y="712" on="1"/>
        <pt x="338" y="709" on="1"/>
        <pt x="326" y="710" on="0"/>
        <pt x="264" y="728" on="1"/>
        <pt x="204" y="746" on="0"/>
        <pt x="192" y="746" on="1"/>
        <pt x="185" y="746" on="0"/>
        <pt x="167" y="730" on="0"/>
        <pt x="156" y="719" on="1"/>
        <pt x="152" y="714" on="0"/>
        <pt x="141" y="703" on="1"/>
        <pt x="135" y="703" on="1"/>
      </contour>
      <contour>
        <pt x="324" y="601" on="0"/>
        <pt x="343" y="663" on="1"/>
        <pt x="352" y="663" on="1"/>
        <pt x="370" y="644" on="1"/>
        <pt x="357" y="604" on="0"/>
        <pt x="297" y="562" on="0"/>
        <pt x="255" y="562" on="1"/>
        <pt x="214" y="562" on="0"/>
        <pt x="156" y="604" on="0"/>
        <pt x="144" y="644" on="1"/>
        <pt x="161" y="663" on="1"/>
        <pt x="170" y="663" on="1"/>
        <pt x="189" y="601" on="0"/>
        <pt x="257" y="601" on="1"/>
      </contour>
      <contour>
        <pt x="415" y="0" on="1"/>
        <pt x="404" y="45" on="1"/>
        <pt x="367" y="144" on="1"/>
        <pt x="131" y="144" on="1"/>
        <pt x="92" y="47" on="1"/>
        <pt x="79" y="0" on="1"/>
        <pt x="29" y="0" on="1"/>
        <pt x="228" y="495" on="1"/>
        <pt x="284" y="495" on="1"/>
        <pt x="466" y="0" on="1"/>
      </contour>
      <contour>
        <pt x="257" y="442" on="1"/>
        <pt x="252" y="442" on="1"/>
        <pt x="148" y="185" on="1"/>
        <pt x="248" y="184" on="1"/>
        <pt x="352" y="185" on="1"/>
      </contour>
    </TTGlyph>
    <TTGlyph name="acaron" xMin="29" yMin="0" xMax="466" yMax="713">
      <component glyphName="a" x="0" y="0" flags="0x1000"/>
      <component glyphName="caron" x="62" y="39" flags="0x1000"/>
    </TTGlyph>
    <TTGlyph name="acircumflex" xMin="29" yMin="0" xMax="466" yMax="713">
      <contour>
        <pt x="135" y="583" on="1"/>
        <pt x="186" y="637" on="0"/>
        <pt x="247" y="713" on="1"/>
        <pt x="268" y="713" on="1"/>
        <pt x="332" y="633" on="0"/>
        <pt x="380" y="583" on="1"/>
        <pt x="364" y="560" on="1"/>
        <pt x="357" y="560" on="1"/>
        <pt x="301" y="618" on="0"/>
        <pt x="257" y="670" on="1"/>
        <pt x="207" y="610" on="0"/>
        <pt x="158" y="560" on="1"/>
        <pt x="151" y="560" on="1"/>
      </contour>
      <contour>
        <pt x="415" y="0" on="1"/>
        <pt x="404" y="45" on="1"/>
        <pt x="367" y="144" on="1"/>
        <pt x="131" y="144" on="1"/>
        <pt x="92" y="47" on="1"/>
        <pt x="79" y="0" on="1"/>
        <pt x="29" y="0" on="1"/>
        <pt x="228" y="495" on="1"/>
        <pt x="284" y="495" on="1"/>
        <pt x="466" y="0" on="1"/>
      </contour>
      <contour>
        <pt x="257" y="442" on="1"/>
        <pt x="252" y="442" on="1"/>
        <pt x="148" y="185" on="1"/>
        <pt x="248" y="184" on="1"/>
        <pt x="352" y="185" on="1"/>
      </contour>
    </TTGlyph>
    <TTGlyph name="acircumflexacute" xMin="29" yMin="0" xMax="466" yMax="777">
      <component glyphName="a" x="0" y="0" flags="0x1000"/>
      <component glyphName="circumflexacute" x="61" y="39" flags="0x1000"/>
    </TTGlyph>
    <TTGlyph name="acircumflexdotbelow" xMin="29" yMin="-146" xMax="466" yMax="713">
      <contour>
        <pt x="135" y="583" on="1"/>
        <pt x="186" y="637" on="0"/>
        <pt x="247" y="713" on="1"/>
        <pt x="268" y="713" on="1"/>
        <pt x="332" y="633" on="0"/>
        <pt x="380" y="583" on="1"/>
        <pt x="364" y="560" on="1"/>
        <pt x="357" y="560" on="1"/>
        <pt x="301" y="618" on="0"/>
        <pt x="257" y="670" on="1"/>
        <pt x="207" y="610" on="0"/>
        <pt x="158" y="560" on="1"/>
        <pt x="151" y="560" on="1"/>
      </contour>
      <contour>
        <pt x="415" y="0" on="1"/>
        <pt x="404" y="45" on="1"/>
        <pt x="367" y="144" on="1"/>
        <pt x="131" y="144" on="1"/>
        <pt x="92" y="47" on="1"/>
        <pt x="79" y="0" on="1"/>
        <pt x="29" y="0" on="1"/>
        <pt x="228" y="495" on="1"/>
        <pt x="284" y="495" on="1"/>
        <pt x="466" y="0" on="1"/>
      </contour>
      <contour>
        <pt x="257" y="442" on="1"/>
        <pt x="252" y="442" on="1"/>
        <pt x="148" y="185" on="1"/>
        <pt x="248" y="184" on="1"/>
        <pt x="352" y="185" on="1"/>
      </contour>
      <contour>
        <pt x="283" y="-78" on="0"/>
        <pt x="283" y="-112" on="1"/>
        <pt x="283" y="-128" on="0"/>
        <pt x="265" y="-146" on="0"/>
        <pt x="249" y="-146" on="1"/>
        <pt x="216" y="-146" on="0"/>
        <pt x="216" y="-113" on="1"/>
        <pt x="216" y="-97" on="0"/>
        <pt x="234" y="-78" on="0"/>
        <pt x="250" y="-78" on="1"/>
      </contour>
    </TTGlyph>
    <TTGlyph name="acircumflexgrave" xMin="29" yMin="0" xMax="466" yMax="777">
      <component glyphName="a" x="0" y="0" flags="0x1000"/>
      <component glyphName="circumflexgrave" x="61" y="39" flags="0x1000"/>
    </TTGlyph>
    <TTGlyph name="acircumflexhookabove" xMin="29" yMin="0" xMax="466" yMax="810">
      <contour>
        <pt x="312" y="779" on="0"/>
        <pt x="287" y="757" on="1"/>
        <pt x="275" y="776" on="1"/>
        <pt x="311" y="810" on="0"/>
        <pt x="347" y="810" on="1"/>
        <pt x="369" y="810" on="0"/>
        <pt x="398" y="785" on="0"/>
        <pt x="398" y="765" on="1"/>
        <pt x="398" y="735" on="0"/>
        <pt x="351" y="698" on="1"/>
        <pt x="368" y="668" on="1"/>
        <pt x="343" y="655" on="1"/>
        <pt x="317" y="701" on="1"/>
        <pt x="365" y="735" on="0"/>
        <pt x="365" y="760" on="1"/>
        <pt x="365" y="779" on="0"/>
        <pt x="340" y="779" on="1"/>
      </contour>
      <contour>
        <pt x="138" y="596" on="1"/>
        <pt x="181" y="625" on="0"/>
        <pt x="246" y="679" on="1"/>
        <pt x="265" y="679" on="1"/>
        <pt x="338" y="621" on="0"/>
        <pt x="374" y="596" on="1"/>
        <pt x="362" y="571" on="1"/>
        <pt x="355" y="571" on="1"/>
        <pt x="280" y="621" on="0"/>
        <pt x="256" y="639" on="1"/>
        <pt x="232" y="621" on="0"/>
        <pt x="157" y="571" on="1"/>
        <pt x="150" y="571" on="1"/>
      </contour>
      <contour>
        <pt x="415" y="0" on="1"/>
        <pt x="404" y="45" on="1"/>
        <pt x="367" y="144" on="1"/>
        <pt x="131" y="144" on="1"/>
        <pt x="92" y="47" on="1"/>
        <pt x="79" y="0" on="1"/>
        <pt x="29" y="0" on="1"/>
        <pt x="228" y="495" on="1"/>
        <pt x="284" y="495" on="1"/>
        <pt x="466" y="0" on="1"/>
      </contour>
      <contour>
        <pt x="257" y="442" on="1"/>
        <pt x="252" y="442" on="1"/>
        <pt x="148" y="185" on="1"/>
        <pt x="248" y="184" on="1"/>
        <pt x="352" y="185" on="1"/>
      </contour>
    </TTGlyph>
    <TTGlyph name="acircumflextilde" xMin="29" yMin="0" xMax="466" yMax="794">
      <contour>
        <pt x="118" y="721" on="1"/>
        <pt x="118" y="727" on="1"/>
        <pt x="172" y="785" on="1"/>
        <pt x="180" y="787" on="1"/>
        <pt x="199" y="785" on="0"/>
        <pt x="259" y="767" on="1"/>
        <pt x="315" y="751" on="0"/>
        <pt x="326" y="751" on="1"/>
        <pt x="337" y="751" on="0"/>
        <pt x="364" y="780" on="1"/>
        <pt x="378" y="794" on="1"/>
        <pt x="383" y="794" on="1"/>
        <pt x="400" y="776" on="1"/>
        <pt x="400" y="770" on="1"/>
        <pt x="346" y="712" on="1"/>
        <pt x="338" y="709" on="1"/>
        <pt x="326" y="710" on="0"/>
        <pt x="264" y="728" on="1"/>
        <pt x="204" y="746" on="0"/>
        <pt x="192" y="746" on="1"/>
        <pt x="185" y="746" on="0"/>
        <pt x="167" y="730" on="0"/>
        <pt x="156" y="719" on="1"/>
        <pt x="152" y="714" on="0"/>
        <pt x="141" y="703" on="1"/>
        <pt x="135" y="703" on="1"/>
      </contour>
      <contour>
        <pt x="338" y="621" on="0"/>
        <pt x="374" y="596" on="1"/>
        <pt x="362" y="571" on="1"/>
        <pt x="355" y="571" on="1"/>
        <pt x="280" y="621" on="0"/>
        <pt x="256" y="639" on="1"/>
        <pt x="232" y="621" on="0"/>
        <pt x="157" y="571" on="1"/>
        <pt x="150" y="571" on="1"/>
        <pt x="138" y="596" on="1"/>
        <pt x="181" y="625" on="0"/>
        <pt x="246" y="679" on="1"/>
        <pt x="265" y="679" on="1"/>
      </contour>
      <contour>
        <pt x="415" y="0" on="1"/>
        <pt x="404" y="45" on="1"/>
        <pt x="367" y="144" on="1"/>
        <pt x="131" y="144" on="1"/>
        <pt x="92" y="47" on="1"/>
        <pt x="79" y="0" on="1"/>
        <pt x="29" y="0" on="1"/>
        <pt x="228" y="495" on="1"/>
        <pt x="284" y="495" on="1"/>
        <pt x="466" y="0" on="1"/>
      </contour>
      <contour>
        <pt x="257" y="442" on="1"/>
        <pt x="252" y="442" on="1"/>
        <pt x="148" y="185" on="1"/>
        <pt x="248" y="184" on="1"/>
        <pt x="352" y="185" on="1"/>
      </contour>
    </TTGlyph>
    <TTGlyph name="acute" xMin="104" yMin="518" xMax="287" yMax="684">
      <contour>
        <pt x="287" y="656" on="1"/>
        <pt x="286" y="649" on="1"/>
        <pt x="238" y="608" on="0"/>
        <pt x="128" y="518" on="1"/>
        <pt x="121" y="519" on="1"/>
        <pt x="104" y="543" on="1"/>
        <pt x="181" y="606" on="0"/>
        <pt x="260" y="684" on="1"/>
        <pt x="266" y="683" on="1"/>
      </contour>
    </TTGlyph>
    <TTGlyph name="acute.cap" xMin="92" yMin="539" xMax="298" yMax="667">
      <contour>
        <pt x="298" y="635" on="1"/>
        <pt x="296" y="628" on="1"/>
        <pt x="211" y="584" on="0"/>
        <pt x="111" y="539" on="1"/>
        <pt x="103" y="542" on="1"/>
        <pt x="92" y="568" on="1"/>
        <pt x="201" y="621" on="0"/>
        <pt x="277" y="667" on="1"/>
        <pt x="284" y="665" on="1"/>
      </contour>
    </TTGlyph>
    <TTGlyph name="adieresis" xMin="29" yMin="0" xMax="466" yMax="673">
      <contour>
        <pt x="149" y="607" on="0"/>
        <pt x="149" y="639" on="1"/>
        <pt x="149" y="655" on="0"/>
        <pt x="167" y="673" on="0"/>
        <pt x="183" y="673" on="1"/>
        <pt x="215" y="673" on="0"/>
        <pt x="215" y="641" on="1"/>
        <pt x="215" y="625" on="0"/>
        <pt x="197" y="607" on="0"/>
        <pt x="181" y="607" on="1"/>
      </contour>
      <contour>
        <pt x="298" y="607" on="0"/>
        <pt x="298" y="639" on="1"/>
        <pt x="298" y="655" on="0"/>
        <pt x="316" y="673" on="0"/>
        <pt x="332" y="673" on="1"/>
        <pt x="364" y="673" on="0"/>
        <pt x="364" y="641" on="1"/>
        <pt x="364" y="625" on="0"/>
        <pt x="346" y="607" on="0"/>
        <pt x="330" y="607" on="1"/>
      </contour>
      <contour>
        <pt x="415" y="0" on="1"/>
        <pt x="404" y="45" on="1"/>
        <pt x="367" y="144" on="1"/>
        <pt x="131" y="144" on="1"/>
        <pt x="92" y="47" on="1"/>
        <pt x="79" y="0" on="1"/>
        <pt x="29" y="0" on="1"/>
        <pt x="228" y="495" on="1"/>
        <pt x="284" y="495" on="1"/>
        <pt x="466" y="0" on="1"/>
      </contour>
      <contour>
        <pt x="257" y="442" on="1"/>
        <pt x="252" y="442" on="1"/>
        <pt x="148" y="185" on="1"/>
        <pt x="248" y="184" on="1"/>
        <pt x="352" y="185" on="1"/>
      </contour>
    </TTGlyph>
    <TTGlyph name="adotbelow" xMin="29" yMin="-146" xMax="466" yMax="495">
      <contour>
        <pt x="415" y="0" on="1"/>
        <pt x="404" y="45" on="1"/>
        <pt x="367" y="144" on="1"/>
        <pt x="131" y="144" on="1"/>
        <pt x="92" y="47" on="1"/>
        <pt x="79" y="0" on="1"/>
        <pt x="29" y="0" on="1"/>
        <pt x="228" y="495" on="1"/>
        <pt x="284" y="495" on="1"/>
        <pt x="466" y="0" on="1"/>
      </contour>
      <contour>
        <pt x="257" y="442" on="1"/>
        <pt x="252" y="442" on="1"/>
        <pt x="148" y="185" on="1"/>
        <pt x="248" y="184" on="1"/>
        <pt x="352" y="185" on="1"/>
      </contour>
      <contour>
        <pt x="283" y="-78" on="0"/>
        <pt x="283" y="-112" on="1"/>
        <pt x="283" y="-128" on="0"/>
        <pt x="265" y="-146" on="0"/>
        <pt x="249" y="-146" on="1"/>
        <pt x="216" y="-146" on="0"/>
        <pt x="216" y="-113" on="1"/>
        <pt x="216" y="-97" on="0"/>
        <pt x="234" y="-78" on="0"/>
        <pt x="250" y="-78" on="1"/>
      </contour>
    </TTGlyph>
    <TTGlyph name="ae" xMin="4" yMin="0" xMax="662" yMax="495">
      <contour>
        <pt x="658" y="0" on="1"/>
        <pt x="384" y="0" on="1"/>
        <pt x="379" y="45" on="1"/>
        <pt x="352" y="205" on="1"/>
        <pt x="143" y="162" on="1"/>
        <pt x="75" y="47" on="1"/>
        <pt x="56" y="0" on="1"/>
        <pt x="4" y="0" on="1"/>
        <pt x="292" y="495" on="1"/>
        <pt x="578" y="495" on="1"/>
        <pt x="582" y="489" on="1"/>
        <pt x="576" y="451" on="1"/>
        <pt x="441" y="455" on="1"/>
        <pt x="359" y="455" on="1"/>
        <pt x="392" y="254" on="1"/>
        <pt x="576" y="288" on="1"/>
        <pt x="580" y="285" on="1"/>
        <pt x="581" y="245" on="1"/>
        <pt x="399" y="214" on="1"/>
        <pt x="427" y="41" on="1"/>
        <pt x="523" y="41" on="1"/>
        <pt x="659" y="44" on="1"/>
        <pt x="662" y="39" on="1"/>
      </contour>
      <contour>
        <pt x="313" y="442" on="1"/>
        <pt x="308" y="442" on="1"/>
        <pt x="172" y="212" on="1"/>
        <pt x="346" y="245" on="1"/>
      </contour>
    </TTGlyph>
    <TTGlyph name="aeacute" xMin="4" yMin="0" xMax="662" yMax="723">
      <component glyphName="ae" x="0" y="0" flags="0x1000"/>
      <component glyphName="acute" x="242" y="39" flags="0x1000"/>
    </TTGlyph>
    <TTGlyph name="agrave" xMin="29" yMin="0" xMax="466" yMax="723">
      <contour>
        <pt x="214" y="647" on="0"/>
        <pt x="166" y="688" on="1"/>
        <pt x="165" y="695" on="1"/>
        <pt x="186" y="722" on="1"/>
        <pt x="192" y="723" on="1"/>
        <pt x="271" y="645" on="0"/>
        <pt x="348" y="582" on="1"/>
        <pt x="331" y="558" on="1"/>
        <pt x="324" y="557" on="1"/>
      </contour>
      <contour>
        <pt x="415" y="0" on="1"/>
        <pt x="404" y="45" on="1"/>
        <pt x="367" y="144" on="1"/>
        <pt x="131" y="144" on="1"/>
        <pt x="92" y="47" on="1"/>
        <pt x="79" y="0" on="1"/>
        <pt x="29" y="0" on="1"/>
        <pt x="228" y="495" on="1"/>
        <pt x="284" y="495" on="1"/>
        <pt x="466" y="0" on="1"/>
      </contour>
      <contour>
        <pt x="257" y="442" on="1"/>
        <pt x="252" y="442" on="1"/>
        <pt x="148" y="185" on="1"/>
        <pt x="248" y="184" on="1"/>
        <pt x="352" y="185" on="1"/>
      </contour>
    </TTGlyph>
    <TTGlyph name="ahookabove" xMin="29" yMin="0" xMax="466" yMax="735">
      <component glyphName="a" x="0" y="0" flags="0x1000"/>
      <component glyphName="hookabove" x="61" y="39" flags="0x1000"/>
    </TTGlyph>
    <TTGlyph name="amacron" xMin="29" yMin="0" xMax="466" yMax="660">
      <component glyphName="a" x="0" y="0" flags="0x1000"/>
      <component glyphName="macron" x="61" y="39" flags="0x1000"/>
    </TTGlyph>
    <TTGlyph name="ampersand" xMin="49" yMin="-10" xMax="830" yMax="711">
      <contour>
        <pt x="810" y="291" on="0"/>
        <pt x="761" y="252" on="0"/>
        <pt x="721" y="249" on="1"/>
        <pt x="690" y="249" on="0"/>
        <pt x="604" y="267" on="1"/>
        <pt x="603" y="185" on="0"/>
        <pt x="528" y="59" on="0"/>
        <pt x="396" y="-10" on="0"/>
        <pt x="310" y="-10" on="1"/>
        <pt x="230" y="-10" on="0"/>
        <pt x="112" y="56" on="0"/>
        <pt x="49" y="177" on="0"/>
        <pt x="49" y="258" on="1"/>
        <pt x="49" y="329" on="0"/>
        <pt x="99" y="439" on="0"/>
        <pt x="185" y="500" on="0"/>
        <pt x="237" y="500" on="1"/>
        <pt x="287" y="500" on="0"/>
        <pt x="346" y="452" on="0"/>
        <pt x="346" y="414" on="1"/>
        <pt x="346" y="391" on="0"/>
        <pt x="337" y="372" on="1"/>
        <pt x="435" y="442" on="0"/>
        <pt x="586" y="617" on="0"/>
        <pt x="628" y="711" on="1"/>
        <pt x="634" y="711" on="1"/>
        <pt x="649" y="694" on="0"/>
        <pt x="655" y="673" on="1"/>
        <pt x="612" y="579" on="0"/>
        <pt x="440" y="393" on="0"/>
        <pt x="217" y="244" on="0"/>
        <pt x="100" y="203" on="1"/>
        <pt x="116" y="123" on="0"/>
        <pt x="226" y="31" on="0"/>
        <pt x="312" y="31" on="1"/>
        <pt x="387" y="31" on="0"/>
        <pt x="502" y="92" on="0"/>
        <pt x="564" y="203" on="0"/>
        <pt x="563" y="275" on="1"/>
        <pt x="516" y="285" on="0"/>
        <pt x="494" y="285" on="1"/>
        <pt x="434" y="285" on="0"/>
        <pt x="405" y="216" on="1"/>
        <pt x="398" y="214" on="1"/>
        <pt x="383" y="242" on="1"/>
        <pt x="403" y="283" on="0"/>
        <pt x="453" y="322" on="0"/>
        <pt x="493" y="325" on="1"/>
        <pt x="512" y="325" on="0"/>
        <pt x="601" y="308" on="1"/>
        <pt x="685" y="289" on="0"/>
        <pt x="719" y="289" on="1"/>
        <pt x="782" y="289" on="0"/>
        <pt x="808" y="358" on="1"/>
        <pt x="815" y="360" on="1"/>
        <pt x="830" y="332" on="1"/>
      </contour>
      <contour>
        <pt x="196" y="462" on="0"/>
        <pt x="132" y="412" on="0"/>
        <pt x="95" y="322" on="0"/>
        <pt x="95" y="263" on="1"/>
        <pt x="96" y="243" on="1"/>
        <pt x="180" y="273" on="0"/>
        <pt x="267" y="325" on="1"/>
        <pt x="308" y="360" on="0"/>
        <pt x="308" y="402" on="1"/>
        <pt x="308" y="431" on="0"/>
        <pt x="270" y="462" on="0"/>
        <pt x="237" y="462" on="1"/>
      </contour>
    </TTGlyph>
    <TTGlyph name="aogonek" xMin="29" yMin="-196" xMax="515" yMax="495">
      <contour>
        <pt x="476" y="-196" on="0"/>
        <pt x="432" y="-196" on="1"/>
        <pt x="404" y="-196" on="0"/>
        <pt x="365" y="-160" on="0"/>
        <pt x="365" y="-130" on="1"/>
        <pt x="365" y="-108" on="0"/>
        <pt x="389" y="-53" on="0"/>
        <pt x="423" y="0" on="1"/>
        <pt x="415" y="0" on="1"/>
        <pt x="404" y="45" on="1"/>
        <pt x="367" y="144" on="1"/>
        <pt x="131" y="144" on="1"/>
        <pt x="92" y="47" on="1"/>
        <pt x="79" y="0" on="1"/>
        <pt x="29" y="0" on="1"/>
        <pt x="228" y="495" on="1"/>
        <pt x="284" y="495" on="1"/>
        <pt x="466" y="0" on="1"/>
        <pt x="460" y="0" on="1"/>
        <pt x="403" y="-84" on="0"/>
        <pt x="403" y="-121" on="1"/>
        <pt x="403" y="-158" on="0"/>
        <pt x="438" y="-158" on="1"/>
        <pt x="471" y="-158" on="0"/>
        <pt x="501" y="-110" on="1"/>
        <pt x="504" y="-110" on="1"/>
        <pt x="515" y="-141" on="1"/>
      </contour>
      <contour>
        <pt x="257" y="442" on="1"/>
        <pt x="252" y="442" on="1"/>
        <pt x="148" y="185" on="1"/>
        <pt x="248" y="184" on="1"/>
        <pt x="352" y="185" on="1"/>
      </contour>
    </TTGlyph>
    <TTGlyph name="approxequal" xMin="74" yMin="145" xMax="435" yMax="394">
      <component glyphName="asciitilde" x="14" y="81" flags="0x1000"/>
      <component glyphName="asciitilde" x="14" y="-74" flags="0x1000"/>
    </TTGlyph>
    <TTGlyph name="aring" xMin="29" yMin="0" xMax="466" yMax="722">
      <component glyphName="a" x="0" y="0" flags="0x1000"/>
      <component glyphName="ring" x="61" y="39" flags="0x1000"/>
    </TTGlyph>
    <TTGlyph name="aringacute" xMin="29" yMin="0" xMax="466" yMax="837">
      <contour>
        <pt x="169" y="771" on="1"/>
        <pt x="275" y="801" on="0"/>
        <pt x="368" y="837" on="1"/>
        <pt x="375" y="834" on="1"/>
        <pt x="383" y="802" on="1"/>
        <pt x="380" y="795" on="1"/>
        <pt x="315" y="774" on="0"/>
        <pt x="182" y="738" on="1"/>
        <pt x="176" y="743" on="1"/>
      </contour>
      <contour>
        <pt x="177" y="680" on="0"/>
        <pt x="219" y="722" on="0"/>
        <pt x="255" y="722" on="1"/>
        <pt x="291" y="722" on="0"/>
        <pt x="332" y="679" on="0"/>
        <pt x="332" y="647" on="1"/>
        <pt x="332" y="611" on="0"/>
        <pt x="286" y="569" on="0"/>
        <pt x="254" y="569" on="1"/>
        <pt x="221" y="569" on="0"/>
        <pt x="177" y="610" on="0"/>
        <pt x="177" y="646" on="1"/>
      </contour>
      <contour>
        <pt x="303" y="666" on="0"/>
        <pt x="278" y="692" on="0"/>
        <pt x="254" y="692" on="1"/>
        <pt x="232" y="692" on="0"/>
        <pt x="207" y="668" on="0"/>
        <pt x="207" y="647" on="1"/>
        <pt x="207" y="624" on="0"/>
        <pt x="233" y="599" on="0"/>
        <pt x="254" y="599" on="1"/>
        <pt x="275" y="599" on="0"/>
        <pt x="303" y="623" on="0"/>
        <pt x="303" y="645" on="1"/>
      </contour>
      <contour>
        <pt x="415" y="0" on="1"/>
        <pt x="404" y="45" on="1"/>
        <pt x="367" y="144" on="1"/>
        <pt x="131" y="144" on="1"/>
        <pt x="92" y="47" on="1"/>
        <pt x="79" y="0" on="1"/>
        <pt x="29" y="0" on="1"/>
        <pt x="228" y="495" on="1"/>
        <pt x="284" y="495" on="1"/>
        <pt x="466" y="0" on="1"/>
      </contour>
      <contour>
        <pt x="257" y="442" on="1"/>
        <pt x="252" y="442" on="1"/>
        <pt x="148" y="185" on="1"/>
        <pt x="248" y="184" on="1"/>
        <pt x="352" y="185" on="1"/>
      </contour>
    </TTGlyph>
    <TTGlyph name="arrowdown" xMin="55" yMin="-2" xMax="453" yMax="459">
      <contour>
        <pt x="258" y="-2" on="1"/>
        <pt x="250" y="-2" on="1"/>
        <pt x="55" y="190" on="1"/>
        <pt x="65" y="220" on="1"/>
        <pt x="74" y="220" on="1"/>
        <pt x="236" y="63" on="1"/>
        <pt x="234" y="455" on="1"/>
        <pt x="238" y="459" on="1"/>
        <pt x="273" y="456" on="1"/>
        <pt x="272" y="63" on="1"/>
        <pt x="433" y="220" on="1"/>
        <pt x="443" y="220" on="1"/>
        <pt x="453" y="190" on="1"/>
      </contour>
    </TTGlyph>
    <TTGlyph name="arrowdownleft" xMin="102" yMin="60" xMax="445" yMax="403">
      <component glyphName="arrowdown" x="-71" y="246" scalex="0.706970214844" scale01="-0.706970214844" scale10="0.706970214844" scaley="0.706970214844" flags="0x1000"/>
    </TTGlyph>
    <TTGlyph name="arrowdownright" xMin="61" yMin="60" xMax="404" yMax="403">
      <component glyphName="arrowdown" x="218" y="-113" scalex="0.706970214844" scale01="0.706970214844" scale10="-0.706970214844" scaley="0.706970214844" flags="0x1000"/>
    </TTGlyph>
    <TTGlyph name="arrowleft" xMin="21" yMin="30" xMax="482" yMax="428">
      <component glyphName="arrowdown" x="23" y="483" scalex="0.0" scale01="-1.0" scale10="1.0" scaley="0.0" flags="0x1000"/>
    </TTGlyph>
    <TTGlyph name="arrowright" xMin="23" yMin="33" xMax="484" yMax="431">
      <component glyphName="arrowdown" x="482" y="-22" scalex="0.0" scale01="1.0" scale10="-1.0" scaley="0.0" flags="0x1000"/>
    </TTGlyph>
    <TTGlyph name="arrowup" xMin="53" yMin="0" xMax="451" yMax="461">
      <component glyphName="arrowdown" x="506" y="459" scale="-1.0" flags="0x1000"/>
    </TTGlyph>
    <TTGlyph name="arrowupleft" xMin="101" yMin="55" xMax="444" yMax="398">
      <component glyphName="arrowdown" x="287" y="571" scalex="-0.706970214844" scale01="-0.706970214844" scale10="0.706970214844" scaley="-0.706970214844" flags="0x1000"/>
    </TTGlyph>
    <TTGlyph name="arrowupright" xMin="63" yMin="57" xMax="406" yMax="400">
      <component glyphName="arrowdown" x="579" y="214" scalex="-0.706970214844" scale01="0.706970214844" scale10="-0.706970214844" scaley="-0.706970214844" flags="0x1000"/>
    </TTGlyph>
    <TTGlyph name="asciicircum" xMin="23" yMin="113" xMax="394" yMax="489">
      <contour>
        <pt x="390" y="122" on="1"/>
        <pt x="358" y="113" on="1"/>
        <pt x="216" y="446" on="1"/>
        <pt x="211" y="446" on="1"/>
        <pt x="60" y="116" on="1"/>
        <pt x="53" y="113" on="1"/>
        <pt x="23" y="125" on="1"/>
        <pt x="186" y="485" on="1"/>
        <pt x="193" y="489" on="1"/>
        <pt x="238" y="489" on="1"/>
        <pt x="394" y="128" on="1"/>
      </contour>
    </TTGlyph>
    <TTGlyph name="asciitilde" xMin="60" yMin="219" xMax="421" yMax="313">
      <contour>
        <pt x="139" y="267" on="0"/>
        <pt x="118" y="251" on="0"/>
        <pt x="90" y="225" on="0"/>
        <pt x="83" y="219" on="1"/>
        <pt x="75" y="219" on="1"/>
        <pt x="60" y="237" on="1"/>
        <pt x="60" y="244" on="1"/>
        <pt x="129" y="308" on="1"/>
        <pt x="137" y="312" on="1"/>
        <pt x="152" y="310" on="0"/>
        <pt x="231" y="288" on="1"/>
        <pt x="317" y="264" on="0"/>
        <pt x="333" y="264" on="1"/>
        <pt x="345" y="264" on="0"/>
        <pt x="381" y="298" on="1"/>
        <pt x="398" y="313" on="1"/>
        <pt x="406" y="313" on="1"/>
        <pt x="421" y="294" on="1"/>
        <pt x="421" y="288" on="1"/>
        <pt x="351" y="223" on="1"/>
        <pt x="343" y="221" on="1"/>
        <pt x="320" y="223" on="0"/>
        <pt x="238" y="246" on="1"/>
        <pt x="164" y="267" on="0"/>
        <pt x="148" y="267" on="1"/>
      </contour>
    </TTGlyph>
    <TTGlyph name="asterisk" xMin="38" yMin="419" xMax="337" yMax="725">
      <contour>
        <pt x="196" y="604" on="1"/>
        <pt x="172" y="601" on="1"/>
        <pt x="167" y="607" on="1"/>
        <pt x="169" y="718" on="1"/>
        <pt x="187" y="725" on="0"/>
        <pt x="210" y="725" on="1"/>
        <pt x="213" y="720" on="1"/>
      </contour>
      <contour>
        <pt x="146" y="565" on="1"/>
        <pt x="140" y="563" on="1"/>
        <pt x="38" y="599" on="1"/>
        <pt x="38" y="622" on="0"/>
        <pt x="44" y="641" on="1"/>
        <pt x="49" y="643" on="1"/>
        <pt x="150" y="589" on="1"/>
      </contour>
      <contour>
        <pt x="331" y="607" on="0"/>
        <pt x="337" y="587" on="1"/>
        <pt x="334" y="584" on="1"/>
        <pt x="223" y="564" on="1"/>
        <pt x="213" y="586" on="1"/>
        <pt x="216" y="592" on="1"/>
        <pt x="318" y="625" on="1"/>
      </contour>
      <contour>
        <pt x="280" y="449" on="1"/>
        <pt x="272" y="436" on="0"/>
        <pt x="251" y="419" on="1"/>
        <pt x="245" y="420" on="1"/>
        <pt x="194" y="525" on="1"/>
        <pt x="211" y="541" on="1"/>
        <pt x="219" y="540" on="1"/>
      </contour>
      <contour>
        <pt x="170" y="521" on="1"/>
        <pt x="108" y="432" on="1"/>
        <pt x="97" y="435" on="0"/>
        <pt x="70" y="451" on="1"/>
        <pt x="69" y="456" on="1"/>
        <pt x="149" y="540" on="1"/>
        <pt x="170" y="529" on="1"/>
      </contour>
    </TTGlyph>
    <TTGlyph name="at" xMin="40" yMin="-192" xMax="779" yMax="604">
      <contour>
        <pt x="779" y="155" on="0"/>
        <pt x="614" y="4" on="0"/>
        <pt x="459" y="-4" on="1"/>
        <pt x="492" y="235" on="1"/>
        <pt x="483" y="235" on="1"/>
        <pt x="400" y="84" on="0"/>
        <pt x="303" y="-6" on="1"/>
        <pt x="290" y="-6" on="1"/>
        <pt x="257" y="16" on="0"/>
        <pt x="225" y="86" on="0"/>
        <pt x="225" y="144" on="1"/>
        <pt x="225" y="222" on="0"/>
        <pt x="279" y="361" on="0"/>
        <pt x="384" y="453" on="0"/>
        <pt x="458" y="461" on="1"/>
        <pt x="462" y="461" on="1"/>
        <pt x="526" y="445" on="1"/>
        <pt x="558" y="462" on="1"/>
        <pt x="565" y="458" on="1"/>
        <pt x="517" y="108" on="1"/>
        <pt x="513" y="36" on="1"/>
        <pt x="623" y="48" on="0"/>
        <pt x="741" y="179" on="0"/>
        <pt x="741" y="290" on="1"/>
        <pt x="741" y="372" on="0"/>
        <pt x="670" y="497" on="0"/>
        <pt x="539" y="566" on="0"/>
        <pt x="450" y="566" on="1"/>
        <pt x="340" y="566" on="0"/>
        <pt x="171" y="473" on="0"/>
        <pt x="78" y="305" on="0"/>
        <pt x="78" y="196" on="1"/>
        <pt x="78" y="87" on="0"/>
        <pt x="173" y="-72" on="0"/>
        <pt x="347" y="-157" on="0"/>
        <pt x="463" y="-157" on="1"/>
        <pt x="465" y="-163" on="1"/>
        <pt x="446" y="-192" on="1"/>
        <pt x="325" y="-190" on="0"/>
        <pt x="141" y="-96" on="0"/>
        <pt x="40" y="75" on="0"/>
        <pt x="40" y="189" on="1"/>
        <pt x="40" y="311" on="0"/>
        <pt x="142" y="499" on="0"/>
        <pt x="328" y="604" on="0"/>
        <pt x="450" y="604" on="1"/>
        <pt x="549" y="604" on="0"/>
        <pt x="698" y="526" on="0"/>
        <pt x="779" y="384" on="0"/>
        <pt x="779" y="292" on="1"/>
      </contour>
      <contour>
        <pt x="315" y="51" on="0"/>
        <pt x="380" y="123" on="0"/>
        <pt x="466" y="256" on="0"/>
        <pt x="507" y="343" on="1"/>
        <pt x="509" y="360" on="1"/>
        <pt x="512" y="405" on="1"/>
        <pt x="451" y="420" on="1"/>
        <pt x="396" y="419" on="0"/>
        <pt x="314" y="346" on="0"/>
        <pt x="270" y="226" on="0"/>
        <pt x="270" y="156" on="1"/>
        <pt x="270" y="102" on="0"/>
        <pt x="293" y="51" on="0"/>
        <pt x="305" y="51" on="1"/>
      </contour>
    </TTGlyph>
    <TTGlyph name="atilde" xMin="29" yMin="0" xMax="466" yMax="689">
      <component glyphName="a" x="0" y="0" flags="0x1000"/>
      <component glyphName="tilde" x="61" y="39" flags="0x1000"/>
    </TTGlyph>
    <TTGlyph name="b" xMin="98" yMin="-2" xMax="413" yMax="496">
      <contour>
        <pt x="413" y="239" on="0"/>
        <pt x="413" y="138" on="1"/>
        <pt x="413" y="69" on="0"/>
        <pt x="308" y="-2" on="0"/>
        <pt x="208" y="-2" on="1"/>
        <pt x="133" y="-2" on="0"/>
        <pt x="98" y="0" on="1"/>
        <pt x="100" y="150" on="1"/>
        <pt x="98" y="495" on="1"/>
        <pt x="230" y="496" on="1"/>
        <pt x="300" y="496" on="0"/>
        <pt x="378" y="435" on="0"/>
        <pt x="378" y="378" on="1"/>
        <pt x="378" y="290" on="0"/>
        <pt x="298" y="258" on="1"/>
      </contour>
      <contour>
        <pt x="326" y="456" on="0"/>
        <pt x="220" y="456" on="1"/>
        <pt x="147" y="456" on="1"/>
        <pt x="146" y="276" on="1"/>
        <pt x="243" y="274" on="1"/>
        <pt x="326" y="289" on="0"/>
        <pt x="326" y="373" on="1"/>
      </contour>
      <contour>
        <pt x="284" y="36" on="0"/>
        <pt x="363" y="90" on="0"/>
        <pt x="363" y="140" on="1"/>
        <pt x="363" y="223" on="0"/>
        <pt x="252" y="235" on="1"/>
        <pt x="145" y="233" on="1"/>
        <pt x="145" y="154" on="1"/>
        <pt x="146" y="39" on="1"/>
        <pt x="179" y="36" on="0"/>
        <pt x="211" y="36" on="1"/>
      </contour>
    </TTGlyph>
    <TTGlyph name="b.sups" xMin="59" yMin="338" xMax="309" yMax="800">
      <contour>
        <pt x="249" y="644" on="0"/>
        <pt x="309" y="568" on="0"/>
        <pt x="309" y="500" on="1"/>
        <pt x="309" y="423" on="0"/>
        <pt x="232" y="338" on="0"/>
        <pt x="164" y="338" on="1"/>
        <pt x="127" y="338" on="0"/>
        <pt x="88" y="349" on="1"/>
        <pt x="65" y="341" on="1"/>
        <pt x="59" y="346" on="1"/>
        <pt x="60" y="468" on="1"/>
        <pt x="59" y="796" on="1"/>
        <pt x="108" y="800" on="1"/>
        <pt x="106" y="597" on="1"/>
        <pt x="108" y="597" on="1"/>
        <pt x="147" y="644" on="0"/>
        <pt x="195" y="644" on="1"/>
      </contour>
      <contour>
        <pt x="210" y="372" on="0"/>
        <pt x="264" y="434" on="0"/>
        <pt x="264" y="495" on="1"/>
        <pt x="264" y="548" on="0"/>
        <pt x="222" y="605" on="0"/>
        <pt x="183" y="605" on="1"/>
        <pt x="140" y="605" on="0"/>
        <pt x="106" y="568" on="1"/>
        <pt x="105" y="475" on="1"/>
        <pt x="106" y="383" on="1"/>
        <pt x="135" y="372" on="0"/>
        <pt x="161" y="372" on="1"/>
      </contour>
    </TTGlyph>
    <TTGlyph name="backslash" xMin="12" yMin="-111" xMax="258" yMax="676">
      <component glyphName="slash" x="292" y="0" scalex="-1.0" scaley="1.0" flags="0x1000"/>
    </TTGlyph>
    <TTGlyph name="bar" xMin="137" yMin="-264" xMax="180" yMax="794">
      <contour>
        <pt x="179" y="286" on="1"/>
        <pt x="179" y="-262" on="1"/>
        <pt x="142" y="-264" on="1"/>
        <pt x="137" y="-257" on="1"/>
        <pt x="137" y="791" on="1"/>
        <pt x="176" y="794" on="1"/>
        <pt x="180" y="790" on="1"/>
      </contour>
    </TTGlyph>
    <TTGlyph name="braceleft" xMin="49" yMin="-139" xMax="270" yMax="654">
      <contour>
        <pt x="239" y="654" on="0"/>
        <pt x="267" y="648" on="1"/>
        <pt x="270" y="643" on="1"/>
        <pt x="264" y="612" on="1"/>
        <pt x="239" y="617" on="0"/>
        <pt x="226" y="617" on="1"/>
        <pt x="160" y="617" on="0"/>
        <pt x="160" y="537" on="1"/>
        <pt x="160" y="510" on="0"/>
        <pt x="170" y="444" on="1"/>
        <pt x="180" y="384" on="0"/>
        <pt x="180" y="362" on="1"/>
        <pt x="180" y="286" on="0"/>
        <pt x="114" y="259" on="1"/>
        <pt x="114" y="256" on="1"/>
        <pt x="180" y="229" on="0"/>
        <pt x="180" y="153" on="1"/>
        <pt x="180" y="132" on="0"/>
        <pt x="170" y="70" on="1"/>
        <pt x="160" y="6" on="0"/>
        <pt x="160" y="-23" on="1"/>
        <pt x="160" y="-103" on="0"/>
        <pt x="226" y="-103" on="1"/>
        <pt x="239" y="-103" on="0"/>
        <pt x="264" y="-98" on="1"/>
        <pt x="270" y="-128" on="1"/>
        <pt x="267" y="-133" on="1"/>
        <pt x="246" y="-139" on="0"/>
        <pt x="222" y="-139" on="1"/>
        <pt x="117" y="-139" on="0"/>
        <pt x="117" y="-29" on="1"/>
        <pt x="117" y="4" on="0"/>
        <pt x="127" y="72" on="1"/>
        <pt x="136" y="126" on="0"/>
        <pt x="136" y="151" on="1"/>
        <pt x="136" y="229" on="0"/>
        <pt x="49" y="242" on="1"/>
        <pt x="49" y="272" on="1"/>
        <pt x="136" y="287" on="0"/>
        <pt x="136" y="363" on="1"/>
        <pt x="136" y="388" on="0"/>
        <pt x="127" y="442" on="1"/>
        <pt x="117" y="512" on="0"/>
        <pt x="117" y="544" on="1"/>
        <pt x="117" y="654" on="0"/>
        <pt x="222" y="654" on="1"/>
      </contour>
    </TTGlyph>
    <TTGlyph name="braceright" xMin="14" yMin="-140" xMax="235" yMax="653">
      <component glyphName="braceleft" x="284" y="514" scale="-1.0" flags="0x1000"/>
    </TTGlyph>
    <TTGlyph name="bracketleft" xMin="107" yMin="-131" xMax="275" yMax="646">
      <contour>
        <pt x="275" y="614" on="1"/>
        <pt x="151" y="604" on="1"/>
        <pt x="151" y="-89" on="1"/>
        <pt x="275" y="-99" on="1"/>
        <pt x="275" y="-127" on="1"/>
        <pt x="270" y="-131" on="1"/>
        <pt x="107" y="-121" on="1"/>
        <pt x="109" y="258" on="1"/>
        <pt x="107" y="636" on="1"/>
        <pt x="270" y="646" on="1"/>
        <pt x="275" y="642" on="1"/>
      </contour>
    </TTGlyph>
    <TTGlyph name="bracketright" xMin="9" yMin="-131" xMax="177" yMax="646">
      <component glyphName="bracketleft" x="284" y="515" scale="-1.0" flags="0x1000"/>
    </TTGlyph>
    <TTGlyph name="breve" xMin="81" yMin="524" xMax="310" yMax="656">
      <contour>
        <pt x="287" y="524" on="0"/>
        <pt x="194" y="524" on="1"/>
        <pt x="101" y="524" on="0"/>
        <pt x="81" y="635" on="1"/>
        <pt x="98" y="656" on="1"/>
        <pt x="107" y="656" on="1"/>
        <pt x="123" y="564" on="0"/>
        <pt x="195" y="564" on="1"/>
        <pt x="267" y="564" on="0"/>
        <pt x="283" y="656" on="1"/>
        <pt x="292" y="656" on="1"/>
        <pt x="310" y="635" on="1"/>
      </contour>
    </TTGlyph>
    <TTGlyph name="breve.cap" xMin="81" yMin="543" xMax="310" yMax="645">
      <contour>
        <pt x="297" y="585" on="0"/>
        <pt x="236" y="543" on="0"/>
        <pt x="194" y="543" on="1"/>
        <pt x="106" y="543" on="0"/>
        <pt x="81" y="625" on="1"/>
        <pt x="98" y="645" on="1"/>
        <pt x="107" y="645" on="1"/>
        <pt x="126" y="582" on="0"/>
        <pt x="195" y="582" on="1"/>
        <pt x="263" y="582" on="0"/>
        <pt x="283" y="645" on="1"/>
        <pt x="292" y="645" on="1"/>
        <pt x="310" y="625" on="1"/>
      </contour>
    </TTGlyph>
    <TTGlyph name="breveacute" xMin="81" yMin="523" xMax="310" yMax="740">
      <contour>
        <pt x="276" y="716" on="1"/>
        <pt x="246" y="683" on="0"/>
        <pt x="187" y="622" on="1"/>
        <pt x="180" y="623" on="1"/>
        <pt x="160" y="640" on="1"/>
        <pt x="202" y="688" on="0"/>
        <pt x="245" y="740" on="1"/>
        <pt x="252" y="740" on="1"/>
        <pt x="276" y="722" on="1"/>
      </contour>
      <contour>
        <pt x="297" y="565" on="0"/>
        <pt x="236" y="523" on="0"/>
        <pt x="194" y="523" on="1"/>
        <pt x="106" y="523" on="0"/>
        <pt x="81" y="605" on="1"/>
        <pt x="98" y="625" on="1"/>
        <pt x="107" y="625" on="1"/>
        <pt x="126" y="562" on="0"/>
        <pt x="195" y="562" on="1"/>
        <pt x="263" y="562" on="0"/>
        <pt x="283" y="625" on="1"/>
        <pt x="292" y="625" on="1"/>
        <pt x="310" y="605" on="1"/>
      </contour>
    </TTGlyph>
    <TTGlyph name="brevegrave" xMin="81" yMin="523" xMax="310" yMax="740">
      <contour>
        <pt x="164" y="712" on="1"/>
        <pt x="204" y="664" on="0"/>
        <pt x="226" y="640" on="1"/>
        <pt x="206" y="623" on="1"/>
        <pt x="199" y="622" on="1"/>
        <pt x="181" y="640" on="1"/>
        <pt x="134" y="689" on="0"/>
        <pt x="110" y="716" on="1"/>
        <pt x="109" y="722" on="1"/>
        <pt x="134" y="740" on="1"/>
        <pt x="140" y="740" on="1"/>
      </contour>
      <contour>
        <pt x="297" y="565" on="0"/>
        <pt x="236" y="523" on="0"/>
        <pt x="194" y="523" on="1"/>
        <pt x="106" y="523" on="0"/>
        <pt x="81" y="605" on="1"/>
        <pt x="98" y="625" on="1"/>
        <pt x="107" y="625" on="1"/>
        <pt x="126" y="562" on="0"/>
        <pt x="195" y="562" on="1"/>
        <pt x="263" y="562" on="0"/>
        <pt x="283" y="625" on="1"/>
        <pt x="292" y="625" on="1"/>
        <pt x="310" y="605" on="1"/>
      </contour>
    </TTGlyph>
    <TTGlyph name="brevehookabove" xMin="81" yMin="523" xMax="310" yMax="783">
      <component glyphName="breve.cap" x="0" y="-20" flags="0x1000"/>
      <component glyphName="hookabove" x="4" y="87" flags="0x1000"/>
    </TTGlyph>
    <TTGlyph name="brevetilde" xMin="56" yMin="523" xMax="339" yMax="753">
      <component glyphName="breve.cap" x="3" y="-13" scale="0.987915039062" flags="0x1000"/>
      <component glyphName="tilde" x="13" y="113" scalex="0.944763183594" scaley="0.984069824219" flags="0x1000"/>
    </TTGlyph>
    <TTGlyph name="brokenbar" xMin="137" yMin="-264" xMax="180" yMax="794">
      <contour>
        <pt x="179" y="370" on="1"/>
        <pt x="142" y="366" on="1"/>
        <pt x="137" y="370" on="1"/>
        <pt x="137" y="791" on="1"/>
        <pt x="176" y="794" on="1"/>
        <pt x="180" y="790" on="1"/>
      </contour>
      <contour>
        <pt x="179" y="-262" on="1"/>
        <pt x="142" y="-264" on="1"/>
        <pt x="137" y="-257" on="1"/>
        <pt x="137" y="155" on="1"/>
        <pt x="174" y="160" on="1"/>
        <pt x="179" y="153" on="1"/>
      </contour>
    </TTGlyph>
</ttFont>
